G04 #@! TF.GenerationSoftware,KiCad,Pcbnew,8.0.4*
G04 #@! TF.CreationDate,2025-04-23T21:37:21-04:00*
G04 #@! TF.ProjectId,HDW_BUSINESS_CARD,4844575f-4255-4534-994e-4553535f4341,rev?*
G04 #@! TF.SameCoordinates,Original*
G04 #@! TF.FileFunction,Copper,L4,Bot*
G04 #@! TF.FilePolarity,Positive*
%FSLAX46Y46*%
G04 Gerber Fmt 4.6, Leading zero omitted, Abs format (unit mm)*
G04 Created by KiCad (PCBNEW 8.0.4) date 2025-04-23 21:37:21*
%MOMM*%
%LPD*%
G01*
G04 APERTURE LIST*
G04 Aperture macros list*
%AMRoundRect*
0 Rectangle with rounded corners*
0 $1 Rounding radius*
0 $2 $3 $4 $5 $6 $7 $8 $9 X,Y pos of 4 corners*
0 Add a 4 corners polygon primitive as box body*
4,1,4,$2,$3,$4,$5,$6,$7,$8,$9,$2,$3,0*
0 Add four circle primitives for the rounded corners*
1,1,$1+$1,$2,$3*
1,1,$1+$1,$4,$5*
1,1,$1+$1,$6,$7*
1,1,$1+$1,$8,$9*
0 Add four rect primitives between the rounded corners*
20,1,$1+$1,$2,$3,$4,$5,0*
20,1,$1+$1,$4,$5,$6,$7,0*
20,1,$1+$1,$6,$7,$8,$9,0*
20,1,$1+$1,$8,$9,$2,$3,0*%
G04 Aperture macros list end*
%ADD10C,0.300000*%
G04 #@! TA.AperFunction,NonConductor*
%ADD11C,0.300000*%
G04 #@! TD*
G04 #@! TA.AperFunction,EtchedComponent*
%ADD12C,0.300000*%
G04 #@! TD*
G04 #@! TA.AperFunction,EtchedComponent*
%ADD13C,0.000000*%
G04 #@! TD*
G04 #@! TA.AperFunction,ComponentPad*
%ADD14C,0.600000*%
G04 #@! TD*
G04 #@! TA.AperFunction,SMDPad,CuDef*
%ADD15RoundRect,0.075000X1.125000X0.075000X-1.125000X0.075000X-1.125000X-0.075000X1.125000X-0.075000X0*%
G04 #@! TD*
G04 #@! TA.AperFunction,SMDPad,CuDef*
%ADD16C,1.000000*%
G04 #@! TD*
G04 #@! TA.AperFunction,ComponentPad*
%ADD17C,1.200000*%
G04 #@! TD*
G04 #@! TA.AperFunction,ComponentPad*
%ADD18C,0.800000*%
G04 #@! TD*
G04 #@! TA.AperFunction,ComponentPad*
%ADD19C,5.400000*%
G04 #@! TD*
G04 #@! TA.AperFunction,ComponentPad*
%ADD20C,6.400000*%
G04 #@! TD*
G04 #@! TA.AperFunction,ComponentPad*
%ADD21C,1.500000*%
G04 #@! TD*
G04 #@! TA.AperFunction,SMDPad,CuDef*
%ADD22R,0.500000X0.900000*%
G04 #@! TD*
G04 #@! TA.AperFunction,SMDPad,CuDef*
%ADD23R,0.280000X0.430000*%
G04 #@! TD*
G04 #@! TA.AperFunction,SMDPad,CuDef*
%ADD24R,0.700000X1.300000*%
G04 #@! TD*
G04 #@! TA.AperFunction,SMDPad,CuDef*
%ADD25R,0.900000X2.500000*%
G04 #@! TD*
G04 #@! TA.AperFunction,ComponentPad*
%ADD26R,1.600000X1.600000*%
G04 #@! TD*
G04 #@! TA.AperFunction,ComponentPad*
%ADD27O,1.600000X1.600000*%
G04 #@! TD*
G04 #@! TA.AperFunction,SMDPad,CuDef*
%ADD28R,0.700000X0.250000*%
G04 #@! TD*
G04 #@! TA.AperFunction,SMDPad,CuDef*
%ADD29R,1.730000X1.000000*%
G04 #@! TD*
G04 #@! TA.AperFunction,SMDPad,CuDef*
%ADD30R,0.850000X0.825000*%
G04 #@! TD*
G04 #@! TA.AperFunction,ComponentPad*
%ADD31O,1.600000X1.200000*%
G04 #@! TD*
G04 #@! TA.AperFunction,ComponentPad*
%ADD32O,1.200000X1.200000*%
G04 #@! TD*
G04 #@! TA.AperFunction,SMDPad,CuDef*
%ADD33R,0.400000X0.600000*%
G04 #@! TD*
G04 #@! TA.AperFunction,SMDPad,CuDef*
%ADD34R,1.975000X5.400000*%
G04 #@! TD*
G04 #@! TA.AperFunction,SMDPad,CuDef*
%ADD35R,0.900000X1.700000*%
G04 #@! TD*
G04 #@! TA.AperFunction,SMDPad,CuDef*
%ADD36R,1.525000X2.650000*%
G04 #@! TD*
G04 #@! TA.AperFunction,SMDPad,CuDef*
%ADD37R,1.300480X1.699260*%
G04 #@! TD*
G04 #@! TA.AperFunction,SMDPad,CuDef*
%ADD38R,1.500000X2.700000*%
G04 #@! TD*
G04 #@! TA.AperFunction,SMDPad,CuDef*
%ADD39R,0.800000X0.350000*%
G04 #@! TD*
G04 #@! TA.AperFunction,SMDPad,CuDef*
%ADD40R,0.350000X0.800000*%
G04 #@! TD*
G04 #@! TA.AperFunction,SMDPad,CuDef*
%ADD41R,1.250000X1.250000*%
G04 #@! TD*
G04 #@! TA.AperFunction,SMDPad,CuDef*
%ADD42O,0.750000X0.300000*%
G04 #@! TD*
G04 #@! TA.AperFunction,SMDPad,CuDef*
%ADD43O,0.300000X0.750000*%
G04 #@! TD*
G04 #@! TA.AperFunction,SMDPad,CuDef*
%ADD44R,0.900000X0.900000*%
G04 #@! TD*
G04 #@! TA.AperFunction,SMDPad,CuDef*
%ADD45R,0.600000X0.200000*%
G04 #@! TD*
G04 #@! TA.AperFunction,SMDPad,CuDef*
%ADD46R,0.200000X0.600000*%
G04 #@! TD*
G04 #@! TA.AperFunction,SMDPad,CuDef*
%ADD47R,1.325000X1.325000*%
G04 #@! TD*
G04 #@! TA.AperFunction,SMDPad,CuDef*
%ADD48R,0.400000X0.500000*%
G04 #@! TD*
G04 #@! TA.AperFunction,SMDPad,CuDef*
%ADD49R,0.300000X0.500000*%
G04 #@! TD*
G04 #@! TA.AperFunction,SMDPad,CuDef*
%ADD50C,0.225000*%
G04 #@! TD*
G04 #@! TA.AperFunction,SMDPad,CuDef*
%ADD51R,2.500000X3.300000*%
G04 #@! TD*
G04 #@! TA.AperFunction,SMDPad,CuDef*
%ADD52R,1.800860X2.499360*%
G04 #@! TD*
G04 #@! TA.AperFunction,SMDPad,CuDef*
%ADD53R,2.301240X2.499360*%
G04 #@! TD*
G04 #@! TA.AperFunction,SMDPad,CuDef*
%ADD54R,2.200000X0.600000*%
G04 #@! TD*
G04 #@! TA.AperFunction,SMDPad,CuDef*
%ADD55R,2.150000X3.450000*%
G04 #@! TD*
G04 #@! TA.AperFunction,SMDPad,CuDef*
%ADD56R,2.200000X1.000000*%
G04 #@! TD*
G04 #@! TA.AperFunction,SMDPad,CuDef*
%ADD57R,1.800000X3.400000*%
G04 #@! TD*
G04 #@! TA.AperFunction,SMDPad,CuDef*
%ADD58R,1.500000X0.600000*%
G04 #@! TD*
G04 #@! TA.AperFunction,SMDPad,CuDef*
%ADD59C,2.032000*%
G04 #@! TD*
G04 #@! TA.AperFunction,SMDPad,CuDef*
%ADD60C,0.762000*%
G04 #@! TD*
G04 #@! TA.AperFunction,SMDPad,CuDef*
%ADD61C,1.016000*%
G04 #@! TD*
G04 #@! TA.AperFunction,SMDPad,CuDef*
%ADD62C,1.524000*%
G04 #@! TD*
G04 #@! TA.AperFunction,SMDPad,CuDef*
%ADD63C,0.265000*%
G04 #@! TD*
G04 #@! TA.AperFunction,SMDPad,CuDef*
%ADD64C,0.165000*%
G04 #@! TD*
G04 #@! TA.AperFunction,SMDPad,CuDef*
%ADD65RoundRect,0.075000X-0.675000X-0.075000X0.675000X-0.075000X0.675000X0.075000X-0.675000X0.075000X0*%
G04 #@! TD*
G04 #@! TA.AperFunction,SMDPad,CuDef*
%ADD66RoundRect,0.075000X-0.075000X-0.675000X0.075000X-0.675000X0.075000X0.675000X-0.075000X0.675000X0*%
G04 #@! TD*
G04 #@! TA.AperFunction,SMDPad,CuDef*
%ADD67R,2.800000X0.950000*%
G04 #@! TD*
G04 #@! TA.AperFunction,SMDPad,CuDef*
%ADD68R,1.050000X0.450000*%
G04 #@! TD*
G04 #@! TA.AperFunction,SMDPad,CuDef*
%ADD69R,1.470000X0.895000*%
G04 #@! TD*
G04 #@! TA.AperFunction,SMDPad,CuDef*
%ADD70R,0.749300X0.398780*%
G04 #@! TD*
G04 #@! TA.AperFunction,SMDPad,CuDef*
%ADD71R,0.660400X0.406400*%
G04 #@! TD*
G04 #@! TA.AperFunction,SMDPad,CuDef*
%ADD72R,0.711200X0.457200*%
G04 #@! TD*
G04 #@! TA.AperFunction,SMDPad,CuDef*
%ADD73R,1.000000X0.300000*%
G04 #@! TD*
G04 #@! TA.AperFunction,SMDPad,CuDef*
%ADD74C,0.450000*%
G04 #@! TD*
G04 #@! TA.AperFunction,SMDPad,CuDef*
%ADD75C,0.370000*%
G04 #@! TD*
G04 #@! TA.AperFunction,SMDPad,CuDef*
%ADD76R,1.060000X0.650000*%
G04 #@! TD*
G04 #@! TA.AperFunction,SMDPad,CuDef*
%ADD77R,1.220000X0.400000*%
G04 #@! TD*
G04 #@! TA.AperFunction,SMDPad,CuDef*
%ADD78R,1.200000X2.200000*%
G04 #@! TD*
G04 #@! TA.AperFunction,SMDPad,CuDef*
%ADD79R,5.800000X6.400000*%
G04 #@! TD*
G04 #@! TA.AperFunction,SMDPad,CuDef*
%ADD80R,2.000000X1.500000*%
G04 #@! TD*
G04 #@! TA.AperFunction,SMDPad,CuDef*
%ADD81R,2.000000X3.800000*%
G04 #@! TD*
G04 #@! TA.AperFunction,SMDPad,CuDef*
%ADD82R,1.200000X1.500000*%
G04 #@! TD*
G04 #@! TA.AperFunction,SMDPad,CuDef*
%ADD83R,0.800100X0.800100*%
G04 #@! TD*
G04 #@! TA.AperFunction,SMDPad,CuDef*
%ADD84R,1.300000X3.400000*%
G04 #@! TD*
G04 #@! TA.AperFunction,SMDPad,CuDef*
%ADD85R,1.525000X3.350000*%
G04 #@! TD*
G04 #@! TA.AperFunction,SMDPad,CuDef*
%ADD86R,2.100000X5.450000*%
G04 #@! TD*
G04 #@! TA.AperFunction,SMDPad,CuDef*
%ADD87R,1.575000X1.800000*%
G04 #@! TD*
G04 #@! TA.AperFunction,SMDPad,CuDef*
%ADD88R,0.900000X1.580000*%
G04 #@! TD*
G04 #@! TA.AperFunction,SMDPad,CuDef*
%ADD89R,0.400000X1.100000*%
G04 #@! TD*
G04 #@! TA.AperFunction,SMDPad,CuDef*
%ADD90R,0.950000X1.050000*%
G04 #@! TD*
G04 #@! TA.AperFunction,SMDPad,CuDef*
%ADD91R,1.600000X0.550000*%
G04 #@! TD*
G04 #@! TA.AperFunction,SMDPad,CuDef*
%ADD92R,0.550000X1.600000*%
G04 #@! TD*
G04 #@! TA.AperFunction,ViaPad*
%ADD93C,1.209040*%
G04 #@! TD*
G04 #@! TA.AperFunction,Conductor*
%ADD94C,0.250000*%
G04 #@! TD*
G04 APERTURE END LIST*
D10*
D11*
G36*
X131402424Y-153629932D02*
G01*
X131321348Y-153669014D01*
X131230152Y-153697974D01*
X131141566Y-153716914D01*
X131047230Y-153728759D01*
X130966866Y-153732074D01*
X130856825Y-153726340D01*
X130758087Y-153709759D01*
X130670547Y-153683267D01*
X130594102Y-153647796D01*
X130509250Y-153588151D01*
X130443686Y-153516419D01*
X130397162Y-153434814D01*
X130369429Y-153345551D01*
X130360240Y-153250842D01*
X130370047Y-153149796D01*
X130399643Y-153060694D01*
X130449295Y-152982281D01*
X130519270Y-152913304D01*
X130590061Y-152864072D01*
X130674164Y-152819433D01*
X130771716Y-152778745D01*
X130863373Y-152741411D01*
X130950829Y-152698750D01*
X131023203Y-152647282D01*
X131072054Y-152569431D01*
X131078974Y-152516331D01*
X131055109Y-152430171D01*
X130989980Y-152366314D01*
X130908189Y-152334506D01*
X130814898Y-152324918D01*
X130721946Y-152330738D01*
X130630394Y-152348405D01*
X130547650Y-152375717D01*
X130493524Y-152400487D01*
X130424183Y-152164230D01*
X130504851Y-152130761D01*
X130594089Y-152106098D01*
X130686059Y-152091127D01*
X130775436Y-152084949D01*
X130807424Y-152084510D01*
X130902337Y-152089611D01*
X130989897Y-152104479D01*
X131069672Y-152128455D01*
X131163180Y-152173457D01*
X131241050Y-152231927D01*
X131302256Y-152302309D01*
X131345771Y-152383045D01*
X131370569Y-152472579D01*
X131376266Y-152544565D01*
X131364161Y-152645602D01*
X131328936Y-152734519D01*
X131272226Y-152812331D01*
X131195665Y-152880057D01*
X131121222Y-152927658D01*
X131035957Y-152969974D01*
X130940708Y-153007528D01*
X130854649Y-153041966D01*
X130773524Y-153084429D01*
X130707398Y-153138173D01*
X130663616Y-153219023D01*
X130657533Y-153272018D01*
X130676788Y-153360841D01*
X130733101Y-153429540D01*
X130811061Y-153469806D01*
X130898030Y-153487317D01*
X130948182Y-153489590D01*
X131031661Y-153484863D01*
X131125250Y-153468854D01*
X131211935Y-153443953D01*
X131298771Y-153407850D01*
X131335990Y-153387863D01*
X131402424Y-153629932D01*
G37*
G36*
X130275537Y-152536261D02*
G01*
X129849528Y-153598376D01*
X129834996Y-153655675D01*
X129851605Y-153707577D01*
X129900595Y-153784157D01*
X129958785Y-153848200D01*
X130013538Y-153890685D01*
X130085411Y-153934724D01*
X130163398Y-153966192D01*
X130182529Y-153971237D01*
X130116095Y-154216628D01*
X130027561Y-154195291D01*
X129948900Y-154162450D01*
X129874399Y-154119016D01*
X129808838Y-154069227D01*
X129746983Y-154007377D01*
X129687471Y-153930993D01*
X129640304Y-153856847D01*
X129592502Y-153768986D01*
X129555664Y-153692912D01*
X129517533Y-153607192D01*
X129477712Y-153511001D01*
X129435798Y-153403511D01*
X129406496Y-153325166D01*
X129116263Y-152536261D01*
X129428087Y-152536261D01*
X129609120Y-153154098D01*
X129634607Y-153241076D01*
X129657467Y-153327923D01*
X129670987Y-153379974D01*
X129678046Y-153379974D01*
X129700124Y-153299842D01*
X129724187Y-153219812D01*
X129744480Y-153156589D01*
X129951671Y-152536261D01*
X130275537Y-152536261D01*
G37*
G36*
X129047752Y-153651523D02*
G01*
X128966518Y-153687686D01*
X128880965Y-153712145D01*
X128797846Y-153726144D01*
X128708767Y-153731977D01*
X128695652Y-153732074D01*
X128587186Y-153725125D01*
X128492392Y-153704975D01*
X128411515Y-153672670D01*
X128330359Y-153616791D01*
X128271801Y-153545597D01*
X128236319Y-153461133D01*
X128224385Y-153365441D01*
X128235557Y-153274212D01*
X128267338Y-153195448D01*
X128320632Y-153127949D01*
X128396342Y-153070517D01*
X128477208Y-153029482D01*
X128533719Y-153007528D01*
X128617554Y-152973458D01*
X128690099Y-152932426D01*
X128735276Y-152856313D01*
X128735928Y-152842688D01*
X128703994Y-152761341D01*
X128627947Y-152722262D01*
X128573995Y-152716879D01*
X128490383Y-152725041D01*
X128407949Y-152747815D01*
X128329019Y-152784558D01*
X128269644Y-152579028D01*
X128346005Y-152546019D01*
X128432259Y-152523491D01*
X128519987Y-152511876D01*
X128578977Y-152509688D01*
X128675049Y-152516854D01*
X128760931Y-152537513D01*
X128852726Y-152580392D01*
X128925760Y-152639922D01*
X128978458Y-152713643D01*
X129009240Y-152799093D01*
X129017027Y-152874244D01*
X129003253Y-152963906D01*
X128960247Y-153047282D01*
X128898200Y-153112144D01*
X128827520Y-153160524D01*
X128738606Y-153202926D01*
X128697728Y-153218041D01*
X128617365Y-153251415D01*
X128543869Y-153298782D01*
X128508132Y-153375044D01*
X128507561Y-153389524D01*
X128536727Y-153471002D01*
X128609859Y-153512900D01*
X128693161Y-153522807D01*
X128784712Y-153513006D01*
X128865688Y-153491442D01*
X128946201Y-153458923D01*
X128988377Y-153435612D01*
X129047752Y-153651523D01*
G37*
G36*
X127937473Y-152319935D02*
G01*
X127937473Y-152536261D01*
X128101482Y-152536261D01*
X128101482Y-152755494D01*
X127937473Y-152755494D01*
X127937473Y-153308557D01*
X127933287Y-153403246D01*
X127917861Y-153495436D01*
X127886149Y-153579367D01*
X127844466Y-153636990D01*
X127776642Y-153689527D01*
X127696932Y-153720001D01*
X127612313Y-153731663D01*
X127592016Y-153732074D01*
X127503901Y-153727542D01*
X127418658Y-153713156D01*
X127380258Y-153701348D01*
X127385240Y-153479625D01*
X127468193Y-153491671D01*
X127499424Y-153492081D01*
X127583681Y-153470806D01*
X127634341Y-153398319D01*
X127648279Y-153313360D01*
X127649316Y-153274510D01*
X127649316Y-152755494D01*
X127370708Y-152755494D01*
X127370708Y-152536261D01*
X127649316Y-152536261D01*
X127649316Y-152238969D01*
X127937473Y-152319935D01*
G37*
G36*
X126771647Y-152517457D02*
G01*
X126862011Y-152539830D01*
X126942902Y-152575405D01*
X127014226Y-152622780D01*
X127075889Y-152680553D01*
X127127796Y-152747322D01*
X127169852Y-152821685D01*
X127201963Y-152902239D01*
X127224035Y-152987583D01*
X127235973Y-153076315D01*
X127238255Y-153136659D01*
X127232474Y-153235585D01*
X127215352Y-153326981D01*
X127187215Y-153410365D01*
X127148394Y-153485258D01*
X127080578Y-153571075D01*
X126995128Y-153639804D01*
X126919937Y-153679452D01*
X126835594Y-153708366D01*
X126742427Y-153726067D01*
X126640764Y-153732074D01*
X126550153Y-153728957D01*
X126465910Y-153720097D01*
X126376219Y-153703489D01*
X126285846Y-153677675D01*
X126236346Y-153658581D01*
X126279113Y-153456788D01*
X126366413Y-153483474D01*
X126452737Y-153500677D01*
X126539686Y-153509200D01*
X126600488Y-153510766D01*
X126686083Y-153503809D01*
X126779658Y-153476434D01*
X126858440Y-153427184D01*
X126917321Y-153354878D01*
X126947501Y-153276157D01*
X126957156Y-153200602D01*
X126181538Y-153200602D01*
X126172780Y-153115645D01*
X126171988Y-153076868D01*
X126176966Y-152996317D01*
X126448105Y-152996317D01*
X126957156Y-152996317D01*
X126939815Y-152912957D01*
X126901400Y-152829783D01*
X126839433Y-152760095D01*
X126765695Y-152721177D01*
X126688513Y-152709820D01*
X126593647Y-152726973D01*
X126517140Y-152781394D01*
X126471621Y-152858044D01*
X126450987Y-152941355D01*
X126448105Y-152996317D01*
X126176966Y-152996317D01*
X126178040Y-152978944D01*
X126197200Y-152880168D01*
X126230976Y-152784827D01*
X126280878Y-152697208D01*
X126348413Y-152621598D01*
X126435091Y-152562283D01*
X126513568Y-152531070D01*
X126604297Y-152513243D01*
X126671905Y-152509688D01*
X126771647Y-152517457D01*
G37*
G36*
X125936978Y-153705501D02*
G01*
X125651311Y-153705501D01*
X125651311Y-153012510D01*
X125641307Y-152928875D01*
X125637194Y-152914105D01*
X125597380Y-152840259D01*
X125532872Y-152779550D01*
X125445495Y-152749009D01*
X125425436Y-152748020D01*
X125336885Y-152768612D01*
X125274454Y-152826184D01*
X125237480Y-152914429D01*
X125226059Y-152996950D01*
X125225303Y-153027043D01*
X125225303Y-153705501D01*
X124939637Y-153705501D01*
X124939637Y-153002960D01*
X124930368Y-152920245D01*
X124925519Y-152904140D01*
X124884399Y-152830765D01*
X124821351Y-152775302D01*
X124739267Y-152748852D01*
X124720819Y-152748020D01*
X124639201Y-152764212D01*
X124571224Y-152820388D01*
X124533416Y-152899956D01*
X124516775Y-152988946D01*
X124513628Y-153058184D01*
X124513628Y-153705501D01*
X124227962Y-153705501D01*
X124227962Y-153015002D01*
X124232943Y-152916097D01*
X124247228Y-152829449D01*
X124279040Y-152732030D01*
X124323296Y-152654111D01*
X124392551Y-152582139D01*
X124473022Y-152536034D01*
X124560137Y-152513239D01*
X124613695Y-152509688D01*
X124698732Y-152516654D01*
X124779794Y-152539980D01*
X124851612Y-152579028D01*
X124917411Y-152631109D01*
X124972538Y-152695144D01*
X124991953Y-152723937D01*
X124996936Y-152723937D01*
X125039210Y-152646276D01*
X125099124Y-152583513D01*
X125174408Y-152538385D01*
X125262795Y-152513631D01*
X125318311Y-152509688D01*
X125404308Y-152517062D01*
X125490912Y-152542637D01*
X125571231Y-152589351D01*
X125631821Y-152646838D01*
X125675394Y-152707329D01*
X125682452Y-152707329D01*
X125696570Y-152536261D01*
X125946528Y-152536261D01*
X125942696Y-152624463D01*
X125939706Y-152708692D01*
X125937637Y-152799340D01*
X125936978Y-152884625D01*
X125936978Y-153705501D01*
G37*
G36*
X123534556Y-153705501D02*
G01*
X123232281Y-153705501D01*
X123094431Y-153253749D01*
X122587456Y-153253749D01*
X122442131Y-153705501D01*
X122125739Y-153705501D01*
X122345711Y-153032440D01*
X122634790Y-153032440D01*
X123046681Y-153032440D01*
X122922948Y-152640480D01*
X122900923Y-152558399D01*
X122879175Y-152472951D01*
X122857981Y-152388844D01*
X122846549Y-152344433D01*
X122841981Y-152344433D01*
X122821366Y-152425422D01*
X122799235Y-152510328D01*
X122775257Y-152595381D01*
X122761015Y-152641310D01*
X122634790Y-153032440D01*
X122345711Y-153032440D01*
X122646831Y-152111083D01*
X123020523Y-152111083D01*
X123534556Y-153705501D01*
G37*
G36*
X121926022Y-153705501D02*
G01*
X121633297Y-153705501D01*
X121633297Y-153108009D01*
X121628586Y-153023004D01*
X121626238Y-153007528D01*
X121599141Y-152926035D01*
X121545541Y-152852548D01*
X121470561Y-152803862D01*
X121389679Y-152784759D01*
X121364239Y-152783728D01*
X121281121Y-152789886D01*
X121276214Y-152790787D01*
X121276214Y-152536261D01*
X121345139Y-152509688D01*
X121428424Y-152521616D01*
X121508921Y-152557193D01*
X121581104Y-152616106D01*
X121632167Y-152684939D01*
X121664438Y-152755078D01*
X121671496Y-152755078D01*
X121683122Y-152536261D01*
X121935572Y-152536261D01*
X121930654Y-152627036D01*
X121927878Y-152715838D01*
X121926521Y-152802166D01*
X121926029Y-152898568D01*
X121926022Y-152913274D01*
X121926022Y-153705501D01*
G37*
G36*
X120288838Y-153455542D02*
G01*
X120367507Y-153482379D01*
X120449642Y-153497466D01*
X120519696Y-153501216D01*
X120609775Y-153491248D01*
X120690716Y-153461856D01*
X120760009Y-153413811D01*
X120815146Y-153347883D01*
X120853617Y-153264841D01*
X120872915Y-153165454D01*
X120874703Y-153121296D01*
X120865933Y-153024126D01*
X120838362Y-152936832D01*
X120793015Y-152862114D01*
X120730919Y-152802669D01*
X120653101Y-152761197D01*
X120560587Y-152740397D01*
X120519696Y-152738470D01*
X120431620Y-152744225D01*
X120349800Y-152763014D01*
X120298387Y-152784558D01*
X120246071Y-152562835D01*
X120328218Y-152535404D01*
X120410197Y-152518840D01*
X120499099Y-152510307D01*
X120529246Y-152509688D01*
X120639282Y-152516650D01*
X120740047Y-152536926D01*
X120831200Y-152569595D01*
X120912404Y-152613737D01*
X120983319Y-152668433D01*
X121043607Y-152732764D01*
X121092930Y-152805809D01*
X121130948Y-152886649D01*
X121157322Y-152974364D01*
X121171715Y-153068035D01*
X121174487Y-153133337D01*
X121168359Y-153232633D01*
X121150338Y-153324428D01*
X121120968Y-153408227D01*
X121080794Y-153483534D01*
X121030358Y-153549857D01*
X120948089Y-153623453D01*
X120875826Y-153666885D01*
X120795116Y-153699683D01*
X120706502Y-153721351D01*
X120610528Y-153731395D01*
X120576995Y-153732074D01*
X120485453Y-153728007D01*
X120403041Y-153717178D01*
X120314067Y-153696635D01*
X120248562Y-153672699D01*
X120288838Y-153455542D01*
G37*
G36*
X120032651Y-153705501D02*
G01*
X119739926Y-153705501D01*
X119739926Y-153002960D01*
X119729594Y-152919071D01*
X119727885Y-152914105D01*
X119683198Y-152836027D01*
X119613195Y-152777032D01*
X119530744Y-152749992D01*
X119499518Y-152748020D01*
X119407215Y-152765716D01*
X119333827Y-152824237D01*
X119295009Y-152902483D01*
X119278693Y-152985052D01*
X119275718Y-153046143D01*
X119275718Y-153705501D01*
X118982993Y-153705501D01*
X118982993Y-153015002D01*
X118988278Y-152916097D01*
X119003417Y-152829449D01*
X119037079Y-152732030D01*
X119083816Y-152654111D01*
X119156754Y-152582139D01*
X119241191Y-152536034D01*
X119332166Y-152513239D01*
X119387826Y-152509688D01*
X119474949Y-152518838D01*
X119555623Y-152545064D01*
X119590034Y-152562420D01*
X119662267Y-152610675D01*
X119721298Y-152673116D01*
X119735359Y-152693212D01*
X119739926Y-152693212D01*
X119739926Y-152004789D01*
X120032651Y-152004789D01*
X120032651Y-153705501D01*
G37*
G36*
X118379689Y-153705501D02*
G01*
X118379689Y-152536261D01*
X118672414Y-152536261D01*
X118672414Y-153705501D01*
X118379689Y-153705501D01*
G37*
G36*
X118525013Y-152057936D02*
G01*
X118606290Y-152076781D01*
X118666906Y-152133911D01*
X118689023Y-152217793D01*
X118667570Y-152298668D01*
X118601024Y-152359071D01*
X118527090Y-152374743D01*
X118443212Y-152355569D01*
X118382324Y-152298668D01*
X118360589Y-152217793D01*
X118383346Y-152133911D01*
X118450119Y-152073319D01*
X118525013Y-152057936D01*
G37*
G36*
X118017208Y-152319935D02*
G01*
X118017208Y-152536261D01*
X118181217Y-152536261D01*
X118181217Y-152755494D01*
X118017208Y-152755494D01*
X118017208Y-153308557D01*
X118013021Y-153403246D01*
X117997596Y-153495436D01*
X117965884Y-153579367D01*
X117924200Y-153636990D01*
X117856377Y-153689527D01*
X117776667Y-153720001D01*
X117692048Y-153731663D01*
X117671751Y-153732074D01*
X117583636Y-153727542D01*
X117498393Y-153713156D01*
X117459993Y-153701348D01*
X117464975Y-153479625D01*
X117547928Y-153491671D01*
X117579159Y-153492081D01*
X117663416Y-153470806D01*
X117714075Y-153398319D01*
X117728014Y-153313360D01*
X117729050Y-153274510D01*
X117729050Y-152755494D01*
X117450443Y-152755494D01*
X117450443Y-152536261D01*
X117729050Y-152536261D01*
X117729050Y-152238969D01*
X118017208Y-152319935D01*
G37*
G36*
X116851382Y-152517457D02*
G01*
X116941746Y-152539830D01*
X117022637Y-152575405D01*
X117093961Y-152622780D01*
X117155624Y-152680553D01*
X117207530Y-152747322D01*
X117249586Y-152821685D01*
X117281698Y-152902239D01*
X117303769Y-152987583D01*
X117315707Y-153076315D01*
X117317990Y-153136659D01*
X117312209Y-153235585D01*
X117295087Y-153326981D01*
X117266950Y-153410365D01*
X117228129Y-153485258D01*
X117160313Y-153571075D01*
X117074863Y-153639804D01*
X116999672Y-153679452D01*
X116915329Y-153708366D01*
X116822162Y-153726067D01*
X116720498Y-153732074D01*
X116629888Y-153728957D01*
X116545644Y-153720097D01*
X116455954Y-153703489D01*
X116365581Y-153677675D01*
X116316081Y-153658581D01*
X116358848Y-153456788D01*
X116446148Y-153483474D01*
X116532472Y-153500677D01*
X116619421Y-153509200D01*
X116680223Y-153510766D01*
X116765818Y-153503809D01*
X116859393Y-153476434D01*
X116938175Y-153427184D01*
X116997055Y-153354878D01*
X117027236Y-153276157D01*
X117036891Y-153200602D01*
X116261273Y-153200602D01*
X116252515Y-153115645D01*
X116251723Y-153076868D01*
X116256701Y-152996317D01*
X116527840Y-152996317D01*
X117036891Y-152996317D01*
X117019550Y-152912957D01*
X116981134Y-152829783D01*
X116919167Y-152760095D01*
X116845430Y-152721177D01*
X116768248Y-152709820D01*
X116673382Y-152726973D01*
X116596875Y-152781394D01*
X116551356Y-152858044D01*
X116530722Y-152941355D01*
X116527840Y-152996317D01*
X116256701Y-152996317D01*
X116257775Y-152978944D01*
X116276934Y-152880168D01*
X116310711Y-152784827D01*
X116360613Y-152697208D01*
X116428148Y-152621598D01*
X116514825Y-152562283D01*
X116593303Y-152531070D01*
X116684032Y-152513243D01*
X116751639Y-152509688D01*
X116851382Y-152517457D01*
G37*
G36*
X115204972Y-153455542D02*
G01*
X115283641Y-153482379D01*
X115365776Y-153497466D01*
X115435830Y-153501216D01*
X115525909Y-153491248D01*
X115606850Y-153461856D01*
X115676143Y-153413811D01*
X115731280Y-153347883D01*
X115769751Y-153264841D01*
X115789049Y-153165454D01*
X115790837Y-153121296D01*
X115782067Y-153024126D01*
X115754496Y-152936832D01*
X115709149Y-152862114D01*
X115647053Y-152802669D01*
X115569235Y-152761197D01*
X115476721Y-152740397D01*
X115435830Y-152738470D01*
X115347754Y-152744225D01*
X115265934Y-152763014D01*
X115214521Y-152784558D01*
X115162205Y-152562835D01*
X115244352Y-152535404D01*
X115326331Y-152518840D01*
X115415233Y-152510307D01*
X115445380Y-152509688D01*
X115555416Y-152516650D01*
X115656181Y-152536926D01*
X115747334Y-152569595D01*
X115828538Y-152613737D01*
X115899453Y-152668433D01*
X115959741Y-152732764D01*
X116009064Y-152805809D01*
X116047082Y-152886649D01*
X116073456Y-152974364D01*
X116087849Y-153068035D01*
X116090621Y-153133337D01*
X116084493Y-153232633D01*
X116066472Y-153324428D01*
X116037102Y-153408227D01*
X115996928Y-153483534D01*
X115946492Y-153549857D01*
X115864223Y-153623453D01*
X115791960Y-153666885D01*
X115711250Y-153699683D01*
X115622636Y-153721351D01*
X115526662Y-153731395D01*
X115493129Y-153732074D01*
X115401587Y-153728007D01*
X115319175Y-153717178D01*
X115230201Y-153696635D01*
X115164696Y-153672699D01*
X115204972Y-153455542D01*
G37*
G36*
X114864912Y-152319935D02*
G01*
X114864912Y-152536261D01*
X115028921Y-152536261D01*
X115028921Y-152755494D01*
X114864912Y-152755494D01*
X114864912Y-153308557D01*
X114860726Y-153403246D01*
X114845300Y-153495436D01*
X114813588Y-153579367D01*
X114771905Y-153636990D01*
X114704081Y-153689527D01*
X114624371Y-153720001D01*
X114539752Y-153731663D01*
X114519455Y-153732074D01*
X114431340Y-153727542D01*
X114346097Y-153713156D01*
X114307697Y-153701348D01*
X114312679Y-153479625D01*
X114395632Y-153491671D01*
X114426863Y-153492081D01*
X114511120Y-153470806D01*
X114561780Y-153398319D01*
X114575718Y-153313360D01*
X114576755Y-153274510D01*
X114576755Y-152755494D01*
X114298147Y-152755494D01*
X114298147Y-152536261D01*
X114576755Y-152536261D01*
X114576755Y-152238969D01*
X114864912Y-152319935D01*
G37*
G36*
X113039221Y-152536261D02*
G01*
X113331946Y-152536261D01*
X113331946Y-153243784D01*
X113344384Y-153326085D01*
X113348555Y-153335546D01*
X113394711Y-153413002D01*
X113464941Y-153468686D01*
X113550518Y-153493220D01*
X113572355Y-153494157D01*
X113660799Y-153476790D01*
X113731881Y-153417419D01*
X113769937Y-153334751D01*
X113786118Y-153243813D01*
X113789096Y-153174028D01*
X113789096Y-152536261D01*
X114081821Y-152536261D01*
X114081821Y-153224684D01*
X114076876Y-153325367D01*
X114062624Y-153413204D01*
X114030654Y-153511449D01*
X113985766Y-153589523D01*
X113914647Y-153661070D01*
X113830630Y-153706454D01*
X113737763Y-153728650D01*
X113679480Y-153732074D01*
X113588067Y-153723974D01*
X113495833Y-153696336D01*
X113421486Y-153655000D01*
X113355711Y-153597720D01*
X113305788Y-153532357D01*
X113298729Y-153532357D01*
X113284197Y-153705501D01*
X113029672Y-153705501D01*
X113033504Y-153619920D01*
X113036493Y-153535657D01*
X113038563Y-153443155D01*
X113039221Y-153355061D01*
X113039221Y-152536261D01*
G37*
G36*
X112723244Y-153705501D02*
G01*
X112430519Y-153705501D01*
X112430519Y-153108009D01*
X112425808Y-153023004D01*
X112423461Y-153007528D01*
X112396364Y-152926035D01*
X112342764Y-152852548D01*
X112267784Y-152803862D01*
X112186902Y-152784759D01*
X112161461Y-152783728D01*
X112078343Y-152789886D01*
X112073436Y-152790787D01*
X112073436Y-152536261D01*
X112142362Y-152509688D01*
X112225646Y-152521616D01*
X112306144Y-152557193D01*
X112378327Y-152616106D01*
X112429389Y-152684939D01*
X112461660Y-152755078D01*
X112468719Y-152755078D01*
X112480345Y-152536261D01*
X112732794Y-152536261D01*
X112727876Y-152627036D01*
X112725100Y-152715838D01*
X112723744Y-152802166D01*
X112723252Y-152898568D01*
X112723244Y-152913274D01*
X112723244Y-153705501D01*
G37*
G36*
X111505101Y-152517457D02*
G01*
X111595465Y-152539830D01*
X111676357Y-152575405D01*
X111747681Y-152622780D01*
X111809343Y-152680553D01*
X111861250Y-152747322D01*
X111903306Y-152821685D01*
X111935417Y-152902239D01*
X111957489Y-152987583D01*
X111969427Y-153076315D01*
X111971709Y-153136659D01*
X111965929Y-153235585D01*
X111948806Y-153326981D01*
X111920670Y-153410365D01*
X111881848Y-153485258D01*
X111814032Y-153571075D01*
X111728583Y-153639804D01*
X111653392Y-153679452D01*
X111569048Y-153708366D01*
X111475881Y-153726067D01*
X111374218Y-153732074D01*
X111283608Y-153728957D01*
X111199364Y-153720097D01*
X111109673Y-153703489D01*
X111019301Y-153677675D01*
X110969801Y-153658581D01*
X111012568Y-153456788D01*
X111099867Y-153483474D01*
X111186192Y-153500677D01*
X111273140Y-153509200D01*
X111333942Y-153510766D01*
X111419537Y-153503809D01*
X111513112Y-153476434D01*
X111591894Y-153427184D01*
X111650775Y-153354878D01*
X111680956Y-153276157D01*
X111690610Y-153200602D01*
X110914993Y-153200602D01*
X110906234Y-153115645D01*
X110905443Y-153076868D01*
X110910420Y-152996317D01*
X111181559Y-152996317D01*
X111690610Y-152996317D01*
X111673269Y-152912957D01*
X111634854Y-152829783D01*
X111572887Y-152760095D01*
X111499149Y-152721177D01*
X111421967Y-152709820D01*
X111327101Y-152726973D01*
X111250595Y-152781394D01*
X111205075Y-152858044D01*
X111184442Y-152941355D01*
X111181559Y-152996317D01*
X110910420Y-152996317D01*
X110911494Y-152978944D01*
X110930654Y-152880168D01*
X110964430Y-152784827D01*
X111014332Y-152697208D01*
X111081868Y-152621598D01*
X111168545Y-152562283D01*
X111247022Y-152531070D01*
X111337752Y-152513243D01*
X111405359Y-152509688D01*
X111505101Y-152517457D01*
G37*
D10*
D11*
G36*
X130229033Y-157430630D02*
G01*
X130314546Y-157458262D01*
X130406119Y-157476355D01*
X130493321Y-157485421D01*
X130548332Y-157487099D01*
X130644063Y-157481318D01*
X130731619Y-157464280D01*
X130810729Y-157436444D01*
X130902602Y-157383322D01*
X130978334Y-157312901D01*
X131037285Y-157226266D01*
X131078811Y-157124502D01*
X131098135Y-157038903D01*
X131107025Y-156945863D01*
X131107623Y-156913274D01*
X131101525Y-156810364D01*
X131083710Y-156717050D01*
X131054900Y-156633446D01*
X131015813Y-156559669D01*
X130948960Y-156476782D01*
X130866828Y-156411840D01*
X130771126Y-156365116D01*
X130663561Y-156336881D01*
X130576129Y-156328003D01*
X130545840Y-156327409D01*
X130452294Y-156332340D01*
X130368285Y-156345678D01*
X130285998Y-156368021D01*
X130231524Y-156388861D01*
X130169658Y-156137657D01*
X130257179Y-156117602D01*
X130338900Y-156102103D01*
X130423943Y-156091062D01*
X130522014Y-156084970D01*
X130557466Y-156084510D01*
X130647929Y-156088214D01*
X130735186Y-156099218D01*
X130818876Y-156117356D01*
X130898635Y-156142464D01*
X131010109Y-156192834D01*
X131110695Y-156257957D01*
X131199169Y-156337279D01*
X131274305Y-156430243D01*
X131334877Y-156536293D01*
X131366562Y-156613987D01*
X131390867Y-156697086D01*
X131407428Y-156785423D01*
X131415883Y-156878835D01*
X131416957Y-156927392D01*
X131413359Y-157016623D01*
X131402670Y-157101684D01*
X131373694Y-157220978D01*
X131329664Y-157329657D01*
X131271122Y-157426984D01*
X131198607Y-157512219D01*
X131112658Y-157584623D01*
X131013817Y-157643456D01*
X130902621Y-157687981D01*
X130821895Y-157709349D01*
X130736078Y-157723811D01*
X130645330Y-157731147D01*
X130598157Y-157732074D01*
X130509968Y-157729468D01*
X130413722Y-157720400D01*
X130329448Y-157706433D01*
X130248405Y-157686180D01*
X130181699Y-157661073D01*
X130229033Y-157430630D01*
G37*
G36*
X129951256Y-157705501D02*
G01*
X129658531Y-157705501D01*
X129658531Y-157108009D01*
X129653819Y-157023004D01*
X129651472Y-157007528D01*
X129624375Y-156926035D01*
X129570775Y-156852548D01*
X129495795Y-156803862D01*
X129414913Y-156784759D01*
X129389473Y-156783728D01*
X129306355Y-156789886D01*
X129301448Y-156790787D01*
X129301448Y-156536261D01*
X129370373Y-156509688D01*
X129453657Y-156521616D01*
X129534155Y-156557193D01*
X129606338Y-156616106D01*
X129657401Y-156684939D01*
X129689672Y-156755078D01*
X129696730Y-156755078D01*
X129708356Y-156536261D01*
X129960806Y-156536261D01*
X129955887Y-156627036D01*
X129953112Y-156715838D01*
X129951755Y-156802166D01*
X129951263Y-156898568D01*
X129951256Y-156913274D01*
X129951256Y-157705501D01*
G37*
G36*
X128695420Y-156515784D02*
G01*
X128785085Y-156533806D01*
X128867990Y-156563350D01*
X128943395Y-156604015D01*
X129010560Y-156655398D01*
X129068742Y-156717097D01*
X129117201Y-156788709D01*
X129155195Y-156869833D01*
X129181985Y-156960065D01*
X129196828Y-157059003D01*
X129199720Y-157129600D01*
X129193150Y-157231962D01*
X129174045Y-157325816D01*
X129143314Y-157410821D01*
X129101867Y-157486636D01*
X129050614Y-157552922D01*
X128968593Y-157625888D01*
X128872910Y-157680499D01*
X128793479Y-157708925D01*
X128708485Y-157726230D01*
X128618838Y-157732074D01*
X128535938Y-157727018D01*
X128454303Y-157711678D01*
X128350022Y-157674790D01*
X128277187Y-157634467D01*
X128210631Y-157583013D01*
X128151860Y-157520173D01*
X128102377Y-157445692D01*
X128063687Y-157359316D01*
X128037296Y-157260791D01*
X128024707Y-157149862D01*
X128024001Y-157117559D01*
X128326113Y-157117559D01*
X128331451Y-157203412D01*
X128352313Y-157299280D01*
X128387511Y-157380523D01*
X128446520Y-157455832D01*
X128521327Y-157503606D01*
X128609288Y-157520316D01*
X128701255Y-157503031D01*
X128777828Y-157454212D01*
X128837105Y-157378405D01*
X128871913Y-157297900D01*
X128892284Y-157204445D01*
X128897445Y-157122126D01*
X128891179Y-157030740D01*
X128871766Y-156942818D01*
X128838283Y-156863281D01*
X128778236Y-156785837D01*
X128695008Y-156736064D01*
X128606796Y-156721861D01*
X128521732Y-156736483D01*
X128441399Y-156787293D01*
X128383376Y-156865397D01*
X128350986Y-156944461D01*
X128332187Y-157030353D01*
X128326113Y-157117559D01*
X128024001Y-157117559D01*
X128023838Y-157110085D01*
X128029829Y-157012762D01*
X128047417Y-156922079D01*
X128076026Y-156838676D01*
X128115078Y-156763194D01*
X128182397Y-156675980D01*
X128265890Y-156605504D01*
X128338301Y-156564545D01*
X128418464Y-156534496D01*
X128505802Y-156515996D01*
X128599738Y-156509688D01*
X128695420Y-156515784D01*
G37*
G36*
X127855261Y-157651523D02*
G01*
X127774027Y-157687686D01*
X127688474Y-157712145D01*
X127605355Y-157726144D01*
X127516276Y-157731977D01*
X127503161Y-157732074D01*
X127394694Y-157725125D01*
X127299901Y-157704975D01*
X127219024Y-157672670D01*
X127137867Y-157616791D01*
X127079310Y-157545597D01*
X127043827Y-157461133D01*
X127031894Y-157365441D01*
X127043066Y-157274212D01*
X127074847Y-157195448D01*
X127128141Y-157127949D01*
X127203851Y-157070517D01*
X127284717Y-157029482D01*
X127341228Y-157007528D01*
X127425063Y-156973458D01*
X127497607Y-156932426D01*
X127542785Y-156856313D01*
X127543436Y-156842688D01*
X127511503Y-156761341D01*
X127435456Y-156722262D01*
X127381503Y-156716879D01*
X127297892Y-156725041D01*
X127215458Y-156747815D01*
X127136528Y-156784558D01*
X127077152Y-156579028D01*
X127153514Y-156546019D01*
X127239768Y-156523491D01*
X127327495Y-156511876D01*
X127386486Y-156509688D01*
X127482557Y-156516854D01*
X127568440Y-156537513D01*
X127660234Y-156580392D01*
X127733269Y-156639922D01*
X127785966Y-156713643D01*
X127816749Y-156799093D01*
X127824535Y-156874244D01*
X127810762Y-156963906D01*
X127767756Y-157047282D01*
X127705709Y-157112144D01*
X127635028Y-157160524D01*
X127546114Y-157202926D01*
X127505237Y-157218041D01*
X127424874Y-157251415D01*
X127351377Y-157298782D01*
X127315640Y-157375044D01*
X127315069Y-157389524D01*
X127344236Y-157471002D01*
X127417367Y-157512900D01*
X127500669Y-157522807D01*
X127592221Y-157513006D01*
X127673197Y-157491442D01*
X127753710Y-157458923D01*
X127795886Y-157435612D01*
X127855261Y-157651523D01*
G37*
G36*
X126863733Y-157651523D02*
G01*
X126782499Y-157687686D01*
X126696945Y-157712145D01*
X126613827Y-157726144D01*
X126524747Y-157731977D01*
X126511632Y-157732074D01*
X126403166Y-157725125D01*
X126308373Y-157704975D01*
X126227495Y-157672670D01*
X126146339Y-157616791D01*
X126087782Y-157545597D01*
X126052299Y-157461133D01*
X126040366Y-157365441D01*
X126051537Y-157274212D01*
X126083318Y-157195448D01*
X126136612Y-157127949D01*
X126212322Y-157070517D01*
X126293189Y-157029482D01*
X126349699Y-157007528D01*
X126433534Y-156973458D01*
X126506079Y-156932426D01*
X126551257Y-156856313D01*
X126551908Y-156842688D01*
X126519974Y-156761341D01*
X126443928Y-156722262D01*
X126389975Y-156716879D01*
X126306364Y-156725041D01*
X126223930Y-156747815D01*
X126145000Y-156784558D01*
X126085624Y-156579028D01*
X126161985Y-156546019D01*
X126248240Y-156523491D01*
X126335967Y-156511876D01*
X126394958Y-156509688D01*
X126491029Y-156516854D01*
X126576912Y-156537513D01*
X126668706Y-156580392D01*
X126741741Y-156639922D01*
X126794438Y-156713643D01*
X126825220Y-156799093D01*
X126833007Y-156874244D01*
X126819234Y-156963906D01*
X126776228Y-157047282D01*
X126714181Y-157112144D01*
X126643500Y-157160524D01*
X126554586Y-157202926D01*
X126513709Y-157218041D01*
X126433346Y-157251415D01*
X126359849Y-157298782D01*
X126324112Y-157375044D01*
X126323541Y-157389524D01*
X126352708Y-157471002D01*
X126425839Y-157512900D01*
X126509141Y-157522807D01*
X126600693Y-157513006D01*
X126681669Y-157491442D01*
X126762181Y-157458923D01*
X126804357Y-157435612D01*
X126863733Y-157651523D01*
G37*
G36*
X125886737Y-156971819D02*
G01*
X125886737Y-157174028D01*
X125279696Y-157174028D01*
X125279696Y-156971819D01*
X125886737Y-156971819D01*
G37*
G36*
X124669691Y-156085977D02*
G01*
X124762739Y-156090115D01*
X124851791Y-156096530D01*
X124936075Y-156104829D01*
X125027351Y-156116365D01*
X125039703Y-156118142D01*
X125039703Y-157710898D01*
X124949861Y-157720230D01*
X124856684Y-157726694D01*
X124764105Y-157730459D01*
X124676047Y-157731969D01*
X124644836Y-157732074D01*
X124558677Y-157730138D01*
X124475726Y-157724334D01*
X124370440Y-157710594D01*
X124271632Y-157690012D01*
X124179746Y-157662609D01*
X124095224Y-157628404D01*
X124018509Y-157587415D01*
X123950044Y-157539663D01*
X123919043Y-157513257D01*
X123851791Y-157442350D01*
X123793546Y-157360397D01*
X123754094Y-157286854D01*
X123721533Y-157206199D01*
X123696367Y-157118409D01*
X123679095Y-157023468D01*
X123670218Y-156921354D01*
X123669286Y-156877151D01*
X123978419Y-156877151D01*
X123984316Y-156987874D01*
X124001776Y-157088061D01*
X124030450Y-157177619D01*
X124069988Y-157256455D01*
X124120041Y-157324477D01*
X124202534Y-157398193D01*
X124275767Y-157440623D01*
X124358352Y-157471932D01*
X124449940Y-157492027D01*
X124550183Y-157500815D01*
X124585460Y-157501216D01*
X124673381Y-157500333D01*
X124746978Y-157494157D01*
X124746978Y-156329900D01*
X124659541Y-156317474D01*
X124572563Y-156313474D01*
X124547260Y-156313292D01*
X124448452Y-156318707D01*
X124358407Y-156334764D01*
X124277348Y-156361175D01*
X124183637Y-156412006D01*
X124106830Y-156480063D01*
X124047459Y-156564670D01*
X124006054Y-156665150D01*
X123987108Y-156750520D01*
X123978791Y-156844153D01*
X123978419Y-156877151D01*
X123669286Y-156877151D01*
X123669085Y-156867601D01*
X123673478Y-156768239D01*
X123686395Y-156676214D01*
X123707447Y-156591390D01*
X123744610Y-156495280D01*
X123793117Y-156409944D01*
X123852207Y-156335114D01*
X123921120Y-156270525D01*
X123994720Y-156217029D01*
X124077528Y-156172554D01*
X124170417Y-156137118D01*
X124252574Y-156115291D01*
X124342190Y-156099271D01*
X124439714Y-156089068D01*
X124545592Y-156084692D01*
X124573419Y-156084510D01*
X124669691Y-156085977D01*
G37*
G36*
X123126402Y-157705501D02*
G01*
X123126402Y-156536261D01*
X123419127Y-156536261D01*
X123419127Y-157705501D01*
X123126402Y-157705501D01*
G37*
G36*
X123271727Y-156057936D02*
G01*
X123353003Y-156076781D01*
X123413619Y-156133911D01*
X123435736Y-156217793D01*
X123414283Y-156298668D01*
X123347737Y-156359071D01*
X123273803Y-156374743D01*
X123189925Y-156355569D01*
X123129037Y-156298668D01*
X123107302Y-156217793D01*
X123130059Y-156133911D01*
X123196832Y-156073319D01*
X123271727Y-156057936D01*
G37*
G36*
X122882672Y-157651523D02*
G01*
X122801438Y-157687686D01*
X122715885Y-157712145D01*
X122632766Y-157726144D01*
X122543687Y-157731977D01*
X122530572Y-157732074D01*
X122422105Y-157725125D01*
X122327312Y-157704975D01*
X122246435Y-157672670D01*
X122165278Y-157616791D01*
X122106721Y-157545597D01*
X122071238Y-157461133D01*
X122059305Y-157365441D01*
X122070477Y-157274212D01*
X122102258Y-157195448D01*
X122155552Y-157127949D01*
X122231262Y-157070517D01*
X122312128Y-157029482D01*
X122368639Y-157007528D01*
X122452474Y-156973458D01*
X122525018Y-156932426D01*
X122570196Y-156856313D01*
X122570847Y-156842688D01*
X122538914Y-156761341D01*
X122462867Y-156722262D01*
X122408914Y-156716879D01*
X122325303Y-156725041D01*
X122242869Y-156747815D01*
X122163939Y-156784558D01*
X122104563Y-156579028D01*
X122180925Y-156546019D01*
X122267179Y-156523491D01*
X122354906Y-156511876D01*
X122413897Y-156509688D01*
X122509968Y-156516854D01*
X122595851Y-156537513D01*
X122687645Y-156580392D01*
X122760680Y-156639922D01*
X122813377Y-156713643D01*
X122844160Y-156799093D01*
X122851946Y-156874244D01*
X122838173Y-156963906D01*
X122795167Y-157047282D01*
X122733120Y-157112144D01*
X122662439Y-157160524D01*
X122573525Y-157202926D01*
X122532648Y-157218041D01*
X122452285Y-157251415D01*
X122378788Y-157298782D01*
X122343051Y-157375044D01*
X122342480Y-157389524D01*
X122371647Y-157471002D01*
X122444778Y-157512900D01*
X122528080Y-157522807D01*
X122619632Y-157513006D01*
X122700608Y-157491442D01*
X122781121Y-157458923D01*
X122823297Y-157435612D01*
X122882672Y-157651523D01*
G37*
G36*
X121007986Y-157455542D02*
G01*
X121086655Y-157482379D01*
X121168790Y-157497466D01*
X121238845Y-157501216D01*
X121328924Y-157491248D01*
X121409864Y-157461856D01*
X121479158Y-157413811D01*
X121534294Y-157347883D01*
X121572766Y-157264841D01*
X121592063Y-157165454D01*
X121593852Y-157121296D01*
X121585082Y-157024126D01*
X121557510Y-156936832D01*
X121512164Y-156862114D01*
X121450068Y-156802669D01*
X121372250Y-156761197D01*
X121279735Y-156740397D01*
X121238845Y-156738470D01*
X121150768Y-156744225D01*
X121068949Y-156763014D01*
X121017536Y-156784558D01*
X120965219Y-156562835D01*
X121047366Y-156535404D01*
X121129346Y-156518840D01*
X121218247Y-156510307D01*
X121248394Y-156509688D01*
X121358431Y-156516650D01*
X121459195Y-156536926D01*
X121550349Y-156569595D01*
X121631552Y-156613737D01*
X121702468Y-156668433D01*
X121762756Y-156732764D01*
X121812078Y-156805809D01*
X121850096Y-156886649D01*
X121876471Y-156974364D01*
X121890864Y-157068035D01*
X121893635Y-157133337D01*
X121887507Y-157232633D01*
X121869487Y-157324428D01*
X121840117Y-157408227D01*
X121799942Y-157483534D01*
X121749507Y-157549857D01*
X121667238Y-157623453D01*
X121594975Y-157666885D01*
X121514265Y-157699683D01*
X121425651Y-157721351D01*
X121329677Y-157731395D01*
X121296144Y-157732074D01*
X121204601Y-157728007D01*
X121122190Y-157717178D01*
X121033216Y-157696635D01*
X120967711Y-157672699D01*
X121007986Y-157455542D01*
G37*
G36*
X120459075Y-157705501D02*
G01*
X120459075Y-156536261D01*
X120751800Y-156536261D01*
X120751800Y-157705501D01*
X120459075Y-157705501D01*
G37*
G36*
X120604399Y-156057936D02*
G01*
X120685676Y-156076781D01*
X120746292Y-156133911D01*
X120768408Y-156217793D01*
X120746956Y-156298668D01*
X120680410Y-156359071D01*
X120606475Y-156374743D01*
X120522598Y-156355569D01*
X120461710Y-156298668D01*
X120439975Y-156217793D01*
X120462732Y-156133911D01*
X120529504Y-156073319D01*
X120604399Y-156057936D01*
G37*
G36*
X119574718Y-156517370D02*
G01*
X119660543Y-156539970D01*
X119737084Y-156576812D01*
X119803947Y-156627225D01*
X119860738Y-156690535D01*
X119877362Y-156714387D01*
X119882344Y-156714387D01*
X119896461Y-156536261D01*
X120153478Y-156536261D01*
X120150059Y-156622288D01*
X120146991Y-156715010D01*
X120144991Y-156802736D01*
X120143985Y-156897600D01*
X120143928Y-156926146D01*
X120143928Y-158183826D01*
X119851203Y-158183826D01*
X119851203Y-157577615D01*
X119846636Y-157577615D01*
X119790855Y-157640812D01*
X119715532Y-157689567D01*
X119636350Y-157718086D01*
X119547236Y-157731357D01*
X119520279Y-157732074D01*
X119421766Y-157722557D01*
X119326348Y-157693849D01*
X119237120Y-157645716D01*
X119157175Y-157577926D01*
X119089609Y-157490245D01*
X119048919Y-157411290D01*
X119018239Y-157320916D01*
X118998873Y-157219025D01*
X118992844Y-157117559D01*
X119289420Y-157117559D01*
X119294493Y-157200778D01*
X119314685Y-157293482D01*
X119349548Y-157371850D01*
X119409666Y-157444320D01*
X119488472Y-157490187D01*
X119584637Y-157506198D01*
X119674057Y-157490751D01*
X119750047Y-157447705D01*
X119808209Y-157382004D01*
X119844145Y-157298592D01*
X119851203Y-157216380D01*
X119851203Y-157037008D01*
X119841653Y-156960609D01*
X119810563Y-156881454D01*
X119752241Y-156809323D01*
X119676101Y-156761074D01*
X119588915Y-156741221D01*
X119577578Y-156740961D01*
X119481140Y-156757925D01*
X119403746Y-156805379D01*
X119345872Y-156878167D01*
X119312899Y-156954455D01*
X119294087Y-157041771D01*
X119289420Y-157117559D01*
X118992844Y-157117559D01*
X118992128Y-157105518D01*
X118997818Y-157006006D01*
X119014309Y-156914233D01*
X119040729Y-156830646D01*
X119089898Y-156732705D01*
X119153110Y-156651173D01*
X119228301Y-156587112D01*
X119313408Y-156541583D01*
X119406370Y-156515645D01*
X119480003Y-156509688D01*
X119574718Y-156517370D01*
G37*
G36*
X118752135Y-157705501D02*
G01*
X118459410Y-157705501D01*
X118459410Y-156004789D01*
X118752135Y-156004789D01*
X118752135Y-157705501D01*
G37*
G36*
X117848217Y-157705501D02*
G01*
X117848217Y-156536261D01*
X118140942Y-156536261D01*
X118140942Y-157705501D01*
X117848217Y-157705501D01*
G37*
G36*
X117993541Y-156057936D02*
G01*
X118074817Y-156076781D01*
X118135433Y-156133911D01*
X118157550Y-156217793D01*
X118136097Y-156298668D01*
X118069552Y-156359071D01*
X117995617Y-156374743D01*
X117911739Y-156355569D01*
X117850852Y-156298668D01*
X117829117Y-156217793D01*
X117851874Y-156133911D01*
X117918646Y-156073319D01*
X117993541Y-156057936D01*
G37*
G36*
X117533070Y-157705501D02*
G01*
X117240345Y-157705501D01*
X117240345Y-157015002D01*
X117229576Y-156930730D01*
X117226228Y-156921163D01*
X117182867Y-156841632D01*
X117121017Y-156784407D01*
X117039497Y-156751815D01*
X116997445Y-156748020D01*
X116906445Y-156765415D01*
X116833872Y-156823150D01*
X116795352Y-156900704D01*
X116779107Y-156982946D01*
X116776137Y-157044066D01*
X116776137Y-157705501D01*
X116483412Y-157705501D01*
X116483412Y-157010019D01*
X116488762Y-156912388D01*
X116504095Y-156826776D01*
X116538215Y-156730411D01*
X116585631Y-156653224D01*
X116659721Y-156581805D01*
X116745638Y-156535956D01*
X116838414Y-156513235D01*
X116895303Y-156509688D01*
X116980718Y-156517225D01*
X117070128Y-156543317D01*
X117144984Y-156583199D01*
X117213525Y-156640363D01*
X117266503Y-156709820D01*
X117273562Y-156709820D01*
X117288094Y-156536261D01*
X117542620Y-156536261D01*
X117538788Y-156624463D01*
X117535798Y-156708692D01*
X117533729Y-156799340D01*
X117533070Y-156884625D01*
X117533070Y-157705501D01*
G37*
G36*
X115780133Y-156517457D02*
G01*
X115870497Y-156539830D01*
X115951388Y-156575405D01*
X116022712Y-156622780D01*
X116084375Y-156680553D01*
X116136281Y-156747322D01*
X116178337Y-156821685D01*
X116210448Y-156902239D01*
X116232520Y-156987583D01*
X116244458Y-157076315D01*
X116246741Y-157136659D01*
X116240960Y-157235585D01*
X116223837Y-157326981D01*
X116195701Y-157410365D01*
X116156879Y-157485258D01*
X116089064Y-157571075D01*
X116003614Y-157639804D01*
X115928423Y-157679452D01*
X115844080Y-157708366D01*
X115750912Y-157726067D01*
X115649249Y-157732074D01*
X115558639Y-157728957D01*
X115474395Y-157720097D01*
X115384705Y-157703489D01*
X115294332Y-157677675D01*
X115244832Y-157658581D01*
X115287599Y-157456788D01*
X115374899Y-157483474D01*
X115461223Y-157500677D01*
X115548172Y-157509200D01*
X115608974Y-157510766D01*
X115694569Y-157503809D01*
X115788144Y-157476434D01*
X115866925Y-157427184D01*
X115925806Y-157354878D01*
X115955987Y-157276157D01*
X115965642Y-157200602D01*
X115190024Y-157200602D01*
X115181266Y-157115645D01*
X115180474Y-157076868D01*
X115185451Y-156996317D01*
X115456591Y-156996317D01*
X115965642Y-156996317D01*
X115948301Y-156912957D01*
X115909885Y-156829783D01*
X115847918Y-156760095D01*
X115774181Y-156721177D01*
X115696999Y-156709820D01*
X115602133Y-156726973D01*
X115525626Y-156781394D01*
X115480107Y-156858044D01*
X115459473Y-156941355D01*
X115456591Y-156996317D01*
X115185451Y-156996317D01*
X115186525Y-156978944D01*
X115205685Y-156880168D01*
X115239462Y-156784827D01*
X115289364Y-156697208D01*
X115356899Y-156621598D01*
X115443576Y-156562283D01*
X115522054Y-156531070D01*
X115612783Y-156513243D01*
X115680390Y-156509688D01*
X115780133Y-156517457D01*
G37*
G36*
X113544535Y-156750096D02*
G01*
X114149085Y-156750096D01*
X114149085Y-156351491D01*
X113508827Y-156351491D01*
X113508827Y-156111083D01*
X114441810Y-156111083D01*
X114441810Y-157705501D01*
X113473119Y-157705501D01*
X113473119Y-157465507D01*
X114149085Y-157465507D01*
X114149085Y-156988013D01*
X113544535Y-156988013D01*
X113544535Y-156750096D01*
G37*
G36*
X113228143Y-157705501D02*
G01*
X112935418Y-157705501D01*
X112935418Y-157015002D01*
X112924649Y-156930730D01*
X112921301Y-156921163D01*
X112877940Y-156841632D01*
X112816090Y-156784407D01*
X112734570Y-156751815D01*
X112692519Y-156748020D01*
X112601519Y-156765415D01*
X112528945Y-156823150D01*
X112490425Y-156900704D01*
X112474180Y-156982946D01*
X112471210Y-157044066D01*
X112471210Y-157705501D01*
X112178485Y-157705501D01*
X112178485Y-157010019D01*
X112183835Y-156912388D01*
X112199169Y-156826776D01*
X112233289Y-156730411D01*
X112280704Y-156653224D01*
X112354794Y-156581805D01*
X112440712Y-156535956D01*
X112533487Y-156513235D01*
X112590376Y-156509688D01*
X112675791Y-156517225D01*
X112765202Y-156543317D01*
X112840057Y-156583199D01*
X112908598Y-156640363D01*
X112961577Y-156709820D01*
X112968635Y-156709820D01*
X112983168Y-156536261D01*
X113237693Y-156536261D01*
X113233861Y-156624463D01*
X113230872Y-156708692D01*
X113228802Y-156799340D01*
X113228143Y-156884625D01*
X113228143Y-157705501D01*
G37*
G36*
X111518335Y-156520387D02*
G01*
X111615476Y-156551916D01*
X111704628Y-156603424D01*
X111783254Y-156674060D01*
X111848822Y-156762971D01*
X111887902Y-156841136D01*
X111917140Y-156928743D01*
X111935467Y-157025433D01*
X111941814Y-157130846D01*
X111936516Y-157222737D01*
X111921024Y-157308767D01*
X111895935Y-157388242D01*
X111848592Y-157482813D01*
X111786677Y-157562852D01*
X111711609Y-157626714D01*
X111624810Y-157672756D01*
X111527700Y-157699332D01*
X111448956Y-157705501D01*
X111366137Y-157698466D01*
X111280224Y-157673769D01*
X111206564Y-157633446D01*
X111138354Y-157571109D01*
X111110973Y-157534433D01*
X111106406Y-157534433D01*
X111106406Y-157634499D01*
X111112914Y-157721305D01*
X111138176Y-157810940D01*
X111190722Y-157892329D01*
X111263955Y-157947027D01*
X111354096Y-157977004D01*
X111439406Y-157984524D01*
X111528987Y-157978526D01*
X111611593Y-157962534D01*
X111694785Y-157935865D01*
X111770353Y-157900514D01*
X111777390Y-157896498D01*
X111841748Y-158117807D01*
X111757070Y-158157323D01*
X111670375Y-158183333D01*
X111576289Y-158200883D01*
X111492923Y-158208856D01*
X111437330Y-158210399D01*
X111347028Y-158206628D01*
X111257061Y-158194240D01*
X111169775Y-158171627D01*
X111087520Y-158137179D01*
X111012644Y-158089287D01*
X110989731Y-158070057D01*
X110928884Y-158001773D01*
X110882192Y-157919661D01*
X110853504Y-157840554D01*
X110833600Y-157751635D01*
X110822007Y-157652809D01*
X110818396Y-157566553D01*
X110818248Y-157543983D01*
X110818248Y-157006697D01*
X111110973Y-157006697D01*
X111110973Y-157198941D01*
X111117713Y-157283166D01*
X111123014Y-157303990D01*
X111164669Y-157386995D01*
X111229368Y-157447781D01*
X111310793Y-157481470D01*
X111360931Y-157486683D01*
X111455213Y-157470291D01*
X111531180Y-157424389D01*
X111588206Y-157353887D01*
X111625668Y-157263695D01*
X111641492Y-157177036D01*
X111644106Y-157121296D01*
X111638576Y-157035251D01*
X111617072Y-156941190D01*
X111581024Y-156863205D01*
X111521083Y-156792475D01*
X111445860Y-156748568D01*
X111358440Y-156733487D01*
X111273444Y-156748175D01*
X111197373Y-156795331D01*
X111143440Y-156867662D01*
X111120523Y-156926146D01*
X111110973Y-157006697D01*
X110818248Y-157006697D01*
X110818248Y-156872584D01*
X110817794Y-156789361D01*
X110815973Y-156695631D01*
X110812711Y-156608913D01*
X110808698Y-156536261D01*
X111063639Y-156536261D01*
X111075265Y-156690720D01*
X111080247Y-156690720D01*
X111130683Y-156622320D01*
X111201593Y-156564548D01*
X111282578Y-156528375D01*
X111367515Y-156511890D01*
X111415739Y-156509688D01*
X111518335Y-156520387D01*
G37*
G36*
X110221587Y-157705501D02*
G01*
X110221587Y-156536261D01*
X110514312Y-156536261D01*
X110514312Y-157705501D01*
X110221587Y-157705501D01*
G37*
G36*
X110366912Y-156057936D02*
G01*
X110448188Y-156076781D01*
X110508804Y-156133911D01*
X110530921Y-156217793D01*
X110509468Y-156298668D01*
X110442922Y-156359071D01*
X110368988Y-156374743D01*
X110285110Y-156355569D01*
X110224222Y-156298668D01*
X110202487Y-156217793D01*
X110225244Y-156133911D01*
X110292017Y-156073319D01*
X110366912Y-156057936D01*
G37*
G36*
X109906441Y-157705501D02*
G01*
X109613715Y-157705501D01*
X109613715Y-157015002D01*
X109602947Y-156930730D01*
X109599598Y-156921163D01*
X109556237Y-156841632D01*
X109494387Y-156784407D01*
X109412868Y-156751815D01*
X109370816Y-156748020D01*
X109279816Y-156765415D01*
X109207243Y-156823150D01*
X109168722Y-156900704D01*
X109152477Y-156982946D01*
X109149508Y-157044066D01*
X109149508Y-157705501D01*
X108856782Y-157705501D01*
X108856782Y-157010019D01*
X108862132Y-156912388D01*
X108877466Y-156826776D01*
X108911586Y-156730411D01*
X108959001Y-156653224D01*
X109033091Y-156581805D01*
X109119009Y-156535956D01*
X109211784Y-156513235D01*
X109268674Y-156509688D01*
X109354088Y-156517225D01*
X109443499Y-156543317D01*
X109518355Y-156583199D01*
X109586895Y-156640363D01*
X109639874Y-156709820D01*
X109646933Y-156709820D01*
X109661465Y-156536261D01*
X109915990Y-156536261D01*
X109912158Y-156624463D01*
X109909169Y-156708692D01*
X109907099Y-156799340D01*
X109906441Y-156884625D01*
X109906441Y-157705501D01*
G37*
G36*
X108153503Y-156517457D02*
G01*
X108243867Y-156539830D01*
X108324759Y-156575405D01*
X108396083Y-156622780D01*
X108457745Y-156680553D01*
X108509652Y-156747322D01*
X108551708Y-156821685D01*
X108583819Y-156902239D01*
X108605891Y-156987583D01*
X108617829Y-157076315D01*
X108620111Y-157136659D01*
X108614331Y-157235585D01*
X108597208Y-157326981D01*
X108569072Y-157410365D01*
X108530250Y-157485258D01*
X108462434Y-157571075D01*
X108376985Y-157639804D01*
X108301794Y-157679452D01*
X108217450Y-157708366D01*
X108124283Y-157726067D01*
X108022620Y-157732074D01*
X107932010Y-157728957D01*
X107847766Y-157720097D01*
X107758075Y-157703489D01*
X107667703Y-157677675D01*
X107618203Y-157658581D01*
X107660969Y-157456788D01*
X107748269Y-157483474D01*
X107834594Y-157500677D01*
X107921542Y-157509200D01*
X107982344Y-157510766D01*
X108067939Y-157503809D01*
X108161514Y-157476434D01*
X108240296Y-157427184D01*
X108299177Y-157354878D01*
X108329358Y-157276157D01*
X108339012Y-157200602D01*
X107563394Y-157200602D01*
X107554636Y-157115645D01*
X107553845Y-157076868D01*
X107558822Y-156996317D01*
X107829961Y-156996317D01*
X108339012Y-156996317D01*
X108321671Y-156912957D01*
X108283256Y-156829783D01*
X108221289Y-156760095D01*
X108147551Y-156721177D01*
X108070369Y-156709820D01*
X107975503Y-156726973D01*
X107898997Y-156781394D01*
X107853477Y-156858044D01*
X107832844Y-156941355D01*
X107829961Y-156996317D01*
X107558822Y-156996317D01*
X107559896Y-156978944D01*
X107579056Y-156880168D01*
X107612832Y-156784827D01*
X107662734Y-156697208D01*
X107730269Y-156621598D01*
X107816947Y-156562283D01*
X107895424Y-156531070D01*
X107986154Y-156513243D01*
X108053761Y-156509688D01*
X108153503Y-156517457D01*
G37*
G36*
X106926134Y-156517457D02*
G01*
X107016498Y-156539830D01*
X107097389Y-156575405D01*
X107168714Y-156622780D01*
X107230376Y-156680553D01*
X107282283Y-156747322D01*
X107324339Y-156821685D01*
X107356450Y-156902239D01*
X107378522Y-156987583D01*
X107390460Y-157076315D01*
X107392742Y-157136659D01*
X107386961Y-157235585D01*
X107369839Y-157326981D01*
X107341702Y-157410365D01*
X107302881Y-157485258D01*
X107235065Y-157571075D01*
X107149615Y-157639804D01*
X107074425Y-157679452D01*
X106990081Y-157708366D01*
X106896914Y-157726067D01*
X106795251Y-157732074D01*
X106704641Y-157728957D01*
X106620397Y-157720097D01*
X106530706Y-157703489D01*
X106440333Y-157677675D01*
X106390833Y-157658581D01*
X106433600Y-157456788D01*
X106520900Y-157483474D01*
X106607225Y-157500677D01*
X106694173Y-157509200D01*
X106754975Y-157510766D01*
X106840570Y-157503809D01*
X106934145Y-157476434D01*
X107012927Y-157427184D01*
X107071808Y-157354878D01*
X107101988Y-157276157D01*
X107111643Y-157200602D01*
X106336025Y-157200602D01*
X106327267Y-157115645D01*
X106326475Y-157076868D01*
X106331453Y-156996317D01*
X106602592Y-156996317D01*
X107111643Y-156996317D01*
X107094302Y-156912957D01*
X107055887Y-156829783D01*
X106993920Y-156760095D01*
X106920182Y-156721177D01*
X106843000Y-156709820D01*
X106748134Y-156726973D01*
X106671627Y-156781394D01*
X106626108Y-156858044D01*
X106605475Y-156941355D01*
X106602592Y-156996317D01*
X106331453Y-156996317D01*
X106332527Y-156978944D01*
X106351687Y-156880168D01*
X106385463Y-156784827D01*
X106435365Y-156697208D01*
X106502900Y-156621598D01*
X106589578Y-156562283D01*
X106668055Y-156531070D01*
X106758784Y-156513243D01*
X106826392Y-156509688D01*
X106926134Y-156517457D01*
G37*
G36*
X106091465Y-157705501D02*
G01*
X105798740Y-157705501D01*
X105798740Y-157108009D01*
X105794029Y-157023004D01*
X105791681Y-157007528D01*
X105764584Y-156926035D01*
X105710984Y-156852548D01*
X105636004Y-156803862D01*
X105555122Y-156784759D01*
X105529682Y-156783728D01*
X105446564Y-156789886D01*
X105441657Y-156790787D01*
X105441657Y-156536261D01*
X105510582Y-156509688D01*
X105593867Y-156521616D01*
X105674365Y-156557193D01*
X105746548Y-156616106D01*
X105797610Y-156684939D01*
X105829881Y-156755078D01*
X105836939Y-156755078D01*
X105848565Y-156536261D01*
X106101015Y-156536261D01*
X106096097Y-156627036D01*
X106093321Y-156715838D01*
X106091965Y-156802166D01*
X106091472Y-156898568D01*
X106091465Y-156913274D01*
X106091465Y-157705501D01*
G37*
G36*
X104951706Y-157705501D02*
G01*
X104951706Y-156536261D01*
X105244431Y-156536261D01*
X105244431Y-157705501D01*
X104951706Y-157705501D01*
G37*
G36*
X105097030Y-156057936D02*
G01*
X105178306Y-156076781D01*
X105238922Y-156133911D01*
X105261039Y-156217793D01*
X105239586Y-156298668D01*
X105173041Y-156359071D01*
X105099106Y-156374743D01*
X105015228Y-156355569D01*
X104954341Y-156298668D01*
X104932606Y-156217793D01*
X104955363Y-156133911D01*
X105022135Y-156073319D01*
X105097030Y-156057936D01*
G37*
G36*
X104636559Y-157705501D02*
G01*
X104343834Y-157705501D01*
X104343834Y-157015002D01*
X104333065Y-156930730D01*
X104329717Y-156921163D01*
X104286356Y-156841632D01*
X104224506Y-156784407D01*
X104142986Y-156751815D01*
X104100935Y-156748020D01*
X104009935Y-156765415D01*
X103937361Y-156823150D01*
X103898841Y-156900704D01*
X103882596Y-156982946D01*
X103879626Y-157044066D01*
X103879626Y-157705501D01*
X103586901Y-157705501D01*
X103586901Y-157010019D01*
X103592251Y-156912388D01*
X103607585Y-156826776D01*
X103641704Y-156730411D01*
X103689120Y-156653224D01*
X103763210Y-156581805D01*
X103849127Y-156535956D01*
X103941903Y-156513235D01*
X103998792Y-156509688D01*
X104084207Y-156517225D01*
X104173618Y-156543317D01*
X104248473Y-156583199D01*
X104317014Y-156640363D01*
X104369993Y-156709820D01*
X104377051Y-156709820D01*
X104391584Y-156536261D01*
X104646109Y-156536261D01*
X104642277Y-156624463D01*
X104639288Y-156708692D01*
X104637218Y-156799340D01*
X104636559Y-156884625D01*
X104636559Y-157705501D01*
G37*
G36*
X102926751Y-156520387D02*
G01*
X103023892Y-156551916D01*
X103113044Y-156603424D01*
X103191670Y-156674060D01*
X103257238Y-156762971D01*
X103296317Y-156841136D01*
X103325556Y-156928743D01*
X103343883Y-157025433D01*
X103350230Y-157130846D01*
X103344932Y-157222737D01*
X103329440Y-157308767D01*
X103304351Y-157388242D01*
X103257008Y-157482813D01*
X103195093Y-157562852D01*
X103120025Y-157626714D01*
X103033226Y-157672756D01*
X102936116Y-157699332D01*
X102857372Y-157705501D01*
X102774553Y-157698466D01*
X102688640Y-157673769D01*
X102614979Y-157633446D01*
X102546769Y-157571109D01*
X102519389Y-157534433D01*
X102514822Y-157534433D01*
X102514822Y-157634499D01*
X102521330Y-157721305D01*
X102546592Y-157810940D01*
X102599138Y-157892329D01*
X102672371Y-157947027D01*
X102762512Y-157977004D01*
X102847822Y-157984524D01*
X102937403Y-157978526D01*
X103020009Y-157962534D01*
X103103201Y-157935865D01*
X103178769Y-157900514D01*
X103185806Y-157896498D01*
X103250163Y-158117807D01*
X103165486Y-158157323D01*
X103078791Y-158183333D01*
X102984705Y-158200883D01*
X102901339Y-158208856D01*
X102845746Y-158210399D01*
X102755444Y-158206628D01*
X102665477Y-158194240D01*
X102578191Y-158171627D01*
X102495936Y-158137179D01*
X102421060Y-158089287D01*
X102398147Y-158070057D01*
X102337300Y-158001773D01*
X102290608Y-157919661D01*
X102261920Y-157840554D01*
X102242016Y-157751635D01*
X102230423Y-157652809D01*
X102226812Y-157566553D01*
X102226664Y-157543983D01*
X102226664Y-157006697D01*
X102519389Y-157006697D01*
X102519389Y-157198941D01*
X102526128Y-157283166D01*
X102531430Y-157303990D01*
X102573085Y-157386995D01*
X102637784Y-157447781D01*
X102719209Y-157481470D01*
X102769347Y-157486683D01*
X102863629Y-157470291D01*
X102939596Y-157424389D01*
X102996622Y-157353887D01*
X103034084Y-157263695D01*
X103049908Y-157177036D01*
X103052522Y-157121296D01*
X103046991Y-157035251D01*
X103025487Y-156941190D01*
X102989439Y-156863205D01*
X102929499Y-156792475D01*
X102854275Y-156748568D01*
X102766856Y-156733487D01*
X102681860Y-156748175D01*
X102605789Y-156795331D01*
X102551856Y-156867662D01*
X102528939Y-156926146D01*
X102519389Y-157006697D01*
X102226664Y-157006697D01*
X102226664Y-156872584D01*
X102226209Y-156789361D01*
X102224389Y-156695631D01*
X102221127Y-156608913D01*
X102217114Y-156536261D01*
X102472055Y-156536261D01*
X102483681Y-156690720D01*
X102488663Y-156690720D01*
X102539099Y-156622320D01*
X102610009Y-156564548D01*
X102690994Y-156528375D01*
X102775931Y-156511890D01*
X102824155Y-156509688D01*
X102926751Y-156520387D01*
G37*
D10*
D11*
G36*
X130982420Y-148085990D02*
G01*
X131073252Y-148090224D01*
X131159179Y-148096900D01*
X131250950Y-148107357D01*
X131331008Y-148120218D01*
X131331008Y-149705501D01*
X131040774Y-149705501D01*
X131040774Y-149042821D01*
X130893374Y-149042821D01*
X130808891Y-149052688D01*
X130731663Y-149085009D01*
X130673363Y-149144633D01*
X130635236Y-149221365D01*
X130609770Y-149305848D01*
X130605216Y-149325166D01*
X130585378Y-149414233D01*
X130562456Y-149507238D01*
X130537678Y-149595885D01*
X130510375Y-149677030D01*
X130498091Y-149705501D01*
X130198307Y-149705501D01*
X130227114Y-149626109D01*
X130253323Y-149532824D01*
X130278262Y-149436709D01*
X130300690Y-149348570D01*
X130324532Y-149255825D01*
X130349218Y-149173199D01*
X130387264Y-149089672D01*
X130436210Y-149021546D01*
X130506767Y-148964620D01*
X130548332Y-148945246D01*
X130548332Y-148938187D01*
X130464694Y-148899574D01*
X130388615Y-148843159D01*
X130325203Y-148769796D01*
X130285721Y-148696331D01*
X130261537Y-148612183D01*
X130257414Y-148563665D01*
X130548332Y-148563665D01*
X130560823Y-148647627D01*
X130605354Y-148728164D01*
X130679464Y-148787012D01*
X130764395Y-148817858D01*
X130848911Y-148828266D01*
X130867215Y-148828571D01*
X131040774Y-148828571D01*
X131040774Y-148320350D01*
X130956637Y-148309255D01*
X130868362Y-148306254D01*
X130859741Y-148306233D01*
X130775848Y-148312373D01*
X130690190Y-148336105D01*
X130613570Y-148386709D01*
X130565189Y-148462415D01*
X130548685Y-148547620D01*
X130548332Y-148563665D01*
X130257414Y-148563665D01*
X130255191Y-148537507D01*
X130262273Y-148450651D01*
X130287026Y-148361554D01*
X130328430Y-148284382D01*
X130385316Y-148220266D01*
X130393457Y-148213226D01*
X130472161Y-148161187D01*
X130551370Y-148127865D01*
X130642743Y-148104369D01*
X130729079Y-148091893D01*
X130825451Y-148085528D01*
X130888391Y-148084510D01*
X130982420Y-148085990D01*
G37*
G36*
X129628458Y-148513184D02*
G01*
X129720968Y-148525541D01*
X129804214Y-148545004D01*
X129887981Y-148574149D01*
X129963712Y-148612245D01*
X129906828Y-148801582D01*
X129831974Y-148763713D01*
X129743905Y-148735371D01*
X129659456Y-148720461D01*
X129595003Y-148716879D01*
X129511218Y-148725337D01*
X129430425Y-148760233D01*
X129375986Y-148828528D01*
X129359162Y-148916181D01*
X129359162Y-148934865D01*
X129475147Y-148938286D01*
X129581773Y-148949709D01*
X129678592Y-148969121D01*
X129765158Y-148996510D01*
X129841021Y-149031864D01*
X129924752Y-149091370D01*
X129987601Y-149164984D01*
X130028508Y-149252678D01*
X130046412Y-149354422D01*
X130047170Y-149382050D01*
X130037698Y-149465428D01*
X130001952Y-149558096D01*
X129952605Y-149624949D01*
X129886167Y-149678543D01*
X129803285Y-149715285D01*
X129704603Y-149731584D01*
X129683028Y-149732074D01*
X129587719Y-149723286D01*
X129502680Y-149698486D01*
X129419776Y-149653548D01*
X129354009Y-149594266D01*
X129340478Y-149577615D01*
X129333004Y-149577615D01*
X129311828Y-149705501D01*
X129047337Y-149705501D01*
X129059011Y-149620134D01*
X129064599Y-149529073D01*
X129066382Y-149440714D01*
X129066437Y-149420664D01*
X129066437Y-149290703D01*
X129352103Y-149290703D01*
X129359162Y-149357552D01*
X129401483Y-149434150D01*
X129472344Y-149493291D01*
X129557568Y-149520786D01*
X129590020Y-149522807D01*
X129676938Y-149503137D01*
X129736956Y-149442576D01*
X129756721Y-149360985D01*
X129756936Y-149350078D01*
X129737331Y-149261294D01*
X129683475Y-149198062D01*
X129602807Y-149156770D01*
X129520470Y-149136512D01*
X129428985Y-149126892D01*
X129352103Y-149125448D01*
X129352103Y-149290703D01*
X129066437Y-149290703D01*
X129066437Y-148997147D01*
X129071766Y-148903840D01*
X129088982Y-148814655D01*
X129119929Y-148732155D01*
X129166451Y-148658905D01*
X129230393Y-148597469D01*
X129313599Y-148550411D01*
X129417912Y-148520296D01*
X129511109Y-148510371D01*
X129545177Y-148509688D01*
X129628458Y-148513184D01*
G37*
G36*
X128187893Y-148517370D02*
G01*
X128273718Y-148539970D01*
X128350259Y-148576812D01*
X128417122Y-148627225D01*
X128473913Y-148690535D01*
X128490537Y-148714387D01*
X128495519Y-148714387D01*
X128509637Y-148536261D01*
X128766653Y-148536261D01*
X128763234Y-148622288D01*
X128760166Y-148715010D01*
X128758166Y-148802736D01*
X128757161Y-148897600D01*
X128757103Y-148926146D01*
X128757103Y-150183826D01*
X128464378Y-150183826D01*
X128464378Y-149577615D01*
X128459811Y-149577615D01*
X128404030Y-149640812D01*
X128328708Y-149689567D01*
X128249525Y-149718086D01*
X128160411Y-149731357D01*
X128133454Y-149732074D01*
X128034941Y-149722557D01*
X127939523Y-149693849D01*
X127850295Y-149645716D01*
X127770350Y-149577926D01*
X127702784Y-149490245D01*
X127662094Y-149411290D01*
X127631414Y-149320916D01*
X127612048Y-149219025D01*
X127606019Y-149117559D01*
X127902595Y-149117559D01*
X127907668Y-149200778D01*
X127927860Y-149293482D01*
X127962723Y-149371850D01*
X128022841Y-149444320D01*
X128101647Y-149490187D01*
X128197812Y-149506198D01*
X128287232Y-149490751D01*
X128363222Y-149447705D01*
X128421384Y-149382004D01*
X128457320Y-149298592D01*
X128464378Y-149216380D01*
X128464378Y-149037008D01*
X128454829Y-148960609D01*
X128423738Y-148881454D01*
X128365416Y-148809323D01*
X128289276Y-148761074D01*
X128202091Y-148741221D01*
X128190753Y-148740961D01*
X128094315Y-148757925D01*
X128016921Y-148805379D01*
X127959047Y-148878167D01*
X127926074Y-148954455D01*
X127907263Y-149041771D01*
X127902595Y-149117559D01*
X127606019Y-149117559D01*
X127605303Y-149105518D01*
X127610993Y-149006006D01*
X127627484Y-148914233D01*
X127653904Y-148830646D01*
X127703073Y-148732705D01*
X127766285Y-148651173D01*
X127841476Y-148587112D01*
X127926584Y-148541583D01*
X128019545Y-148515645D01*
X128093178Y-148509688D01*
X128187893Y-148517370D01*
G37*
G36*
X127072585Y-149705501D02*
G01*
X127072585Y-148536261D01*
X127365310Y-148536261D01*
X127365310Y-149705501D01*
X127072585Y-149705501D01*
G37*
G36*
X127217909Y-148057936D02*
G01*
X127299186Y-148076781D01*
X127359802Y-148133911D01*
X127381919Y-148217793D01*
X127360466Y-148298668D01*
X127293920Y-148359071D01*
X127219986Y-148374743D01*
X127136108Y-148355569D01*
X127075220Y-148298668D01*
X127053485Y-148217793D01*
X127076242Y-148133911D01*
X127143015Y-148073319D01*
X127217909Y-148057936D01*
G37*
G36*
X125981406Y-148659995D02*
G01*
X125986388Y-148659995D01*
X126044842Y-148593550D01*
X126119659Y-148547706D01*
X126201494Y-148521086D01*
X126297516Y-148509875D01*
X126312330Y-148509688D01*
X126414725Y-148520394D01*
X126511315Y-148551974D01*
X126599642Y-148603621D01*
X126677250Y-148674527D01*
X126741682Y-148763884D01*
X126779881Y-148842524D01*
X126808249Y-148930748D01*
X126825750Y-149028214D01*
X126831346Y-149134583D01*
X126825698Y-149232985D01*
X126809281Y-149324171D01*
X126782887Y-149407603D01*
X126747310Y-149482744D01*
X126686956Y-149569103D01*
X126613562Y-149638491D01*
X126529007Y-149689632D01*
X126435167Y-149721251D01*
X126333921Y-149732074D01*
X126243284Y-149723792D01*
X126159899Y-149699799D01*
X126085591Y-149661377D01*
X126012800Y-149600023D01*
X125957739Y-149522807D01*
X125953171Y-149522807D01*
X125938639Y-149705501D01*
X125679131Y-149705501D01*
X125683553Y-149618161D01*
X125686406Y-149534378D01*
X125688226Y-149444386D01*
X125688681Y-149376237D01*
X125688681Y-149023306D01*
X125981406Y-149023306D01*
X125981406Y-149198110D01*
X125989685Y-149281539D01*
X125990956Y-149286551D01*
X126025730Y-149373330D01*
X126083237Y-149439557D01*
X126157715Y-149481805D01*
X126243405Y-149496648D01*
X126339110Y-149480733D01*
X126416799Y-149435537D01*
X126475538Y-149364887D01*
X126514390Y-149272609D01*
X126530899Y-149181950D01*
X126533639Y-149122542D01*
X126526056Y-149024572D01*
X126503631Y-148936475D01*
X126466847Y-148861007D01*
X126404438Y-148790994D01*
X126322888Y-148747897D01*
X126240914Y-148735979D01*
X126148983Y-148752477D01*
X126074725Y-148797274D01*
X126020552Y-148863326D01*
X125988879Y-148943585D01*
X125981406Y-149023306D01*
X125688681Y-149023306D01*
X125688681Y-148004789D01*
X125981406Y-148004789D01*
X125981406Y-148659995D01*
G37*
G36*
X124512643Y-148085536D02*
G01*
X124608814Y-148089256D01*
X124695288Y-148095320D01*
X124784509Y-148104829D01*
X124871957Y-148118142D01*
X124871957Y-149705501D01*
X124581723Y-149705501D01*
X124581723Y-149098459D01*
X124497549Y-149109209D01*
X124438890Y-149110501D01*
X124343848Y-149106296D01*
X124253498Y-149093650D01*
X124168636Y-149072516D01*
X124090062Y-149042846D01*
X124005197Y-148995907D01*
X123931915Y-148936526D01*
X123873565Y-148864973D01*
X123835448Y-148791190D01*
X123809901Y-148707605D01*
X123797393Y-148614819D01*
X123796496Y-148584426D01*
X124086789Y-148584426D01*
X124100532Y-148681399D01*
X124140500Y-148760783D01*
X124204806Y-148821283D01*
X124291561Y-148861600D01*
X124379642Y-148878844D01*
X124438890Y-148881718D01*
X124522770Y-148878778D01*
X124581723Y-148867601D01*
X124581723Y-148325333D01*
X124493681Y-148313428D01*
X124412732Y-148310801D01*
X124323867Y-148317618D01*
X124233861Y-148343648D01*
X124163691Y-148388904D01*
X124109282Y-148465649D01*
X124088228Y-148551656D01*
X124086789Y-148584426D01*
X123796496Y-148584426D01*
X123796140Y-148572385D01*
X123804726Y-148476914D01*
X123829301Y-148389897D01*
X123868092Y-148312871D01*
X123919326Y-148247374D01*
X123953506Y-148215717D01*
X124028177Y-148165202D01*
X124104546Y-148131419D01*
X124192608Y-148106611D01*
X124275114Y-148092924D01*
X124366075Y-148085699D01*
X124424773Y-148084510D01*
X124512643Y-148085536D01*
G37*
G36*
X123583551Y-149705501D02*
G01*
X123290826Y-149705501D01*
X123290826Y-149108009D01*
X123286115Y-149023004D01*
X123283768Y-149007528D01*
X123256671Y-148926035D01*
X123203071Y-148852548D01*
X123128091Y-148803862D01*
X123047209Y-148784759D01*
X123021769Y-148783728D01*
X122938650Y-148789886D01*
X122933743Y-148790787D01*
X122933743Y-148536261D01*
X123002669Y-148509688D01*
X123085953Y-148521616D01*
X123166451Y-148557193D01*
X123238634Y-148616106D01*
X123289696Y-148684939D01*
X123321967Y-148755078D01*
X123329026Y-148755078D01*
X123340652Y-148536261D01*
X123593101Y-148536261D01*
X123588183Y-148627036D01*
X123585408Y-148715838D01*
X123584051Y-148802166D01*
X123583559Y-148898568D01*
X123583551Y-148913274D01*
X123583551Y-149705501D01*
G37*
G36*
X122327716Y-148515784D02*
G01*
X122417381Y-148533806D01*
X122500286Y-148563350D01*
X122575691Y-148604015D01*
X122642855Y-148655398D01*
X122701038Y-148717097D01*
X122749496Y-148788709D01*
X122787491Y-148869833D01*
X122814281Y-148960065D01*
X122829124Y-149059003D01*
X122832016Y-149129600D01*
X122825446Y-149231962D01*
X122806340Y-149325816D01*
X122775610Y-149410821D01*
X122734163Y-149486636D01*
X122682910Y-149552922D01*
X122600889Y-149625888D01*
X122505206Y-149680499D01*
X122425775Y-149708925D01*
X122340781Y-149726230D01*
X122251133Y-149732074D01*
X122168234Y-149727018D01*
X122086599Y-149711678D01*
X121982318Y-149674790D01*
X121909483Y-149634467D01*
X121842927Y-149583013D01*
X121784156Y-149520173D01*
X121734673Y-149445692D01*
X121695983Y-149359316D01*
X121669591Y-149260791D01*
X121657002Y-149149862D01*
X121656296Y-149117559D01*
X121958408Y-149117559D01*
X121963747Y-149203412D01*
X121984609Y-149299280D01*
X122019807Y-149380523D01*
X122078816Y-149455832D01*
X122153623Y-149503606D01*
X122241584Y-149520316D01*
X122333550Y-149503031D01*
X122410124Y-149454212D01*
X122469400Y-149378405D01*
X122504209Y-149297900D01*
X122524580Y-149204445D01*
X122529741Y-149122126D01*
X122523475Y-149030740D01*
X122504062Y-148942818D01*
X122470579Y-148863281D01*
X122410532Y-148785837D01*
X122327304Y-148736064D01*
X122239092Y-148721861D01*
X122154028Y-148736483D01*
X122073695Y-148787293D01*
X122015672Y-148865397D01*
X121983282Y-148944461D01*
X121964483Y-149030353D01*
X121958408Y-149117559D01*
X121656296Y-149117559D01*
X121656133Y-149110085D01*
X121662124Y-149012762D01*
X121679713Y-148922079D01*
X121708322Y-148838676D01*
X121747374Y-148763194D01*
X121814693Y-148675980D01*
X121898186Y-148605504D01*
X121970597Y-148564545D01*
X122050760Y-148534496D01*
X122138098Y-148515996D01*
X122232034Y-148509688D01*
X122327716Y-148515784D01*
G37*
G36*
X121368806Y-148319935D02*
G01*
X121368806Y-148536261D01*
X121532815Y-148536261D01*
X121532815Y-148755494D01*
X121368806Y-148755494D01*
X121368806Y-149308557D01*
X121364620Y-149403246D01*
X121349194Y-149495436D01*
X121317482Y-149579367D01*
X121275799Y-149636990D01*
X121207975Y-149689527D01*
X121128265Y-149720001D01*
X121043646Y-149731663D01*
X121023349Y-149732074D01*
X120935234Y-149727542D01*
X120849991Y-149713156D01*
X120811591Y-149701348D01*
X120816573Y-149479625D01*
X120899526Y-149491671D01*
X120930757Y-149492081D01*
X121015014Y-149470806D01*
X121065673Y-149398319D01*
X121079612Y-149313360D01*
X121080648Y-149274510D01*
X121080648Y-148755494D01*
X120802041Y-148755494D01*
X120802041Y-148536261D01*
X121080648Y-148536261D01*
X121080648Y-148238969D01*
X121368806Y-148319935D01*
G37*
G36*
X120165288Y-148515784D02*
G01*
X120254952Y-148533806D01*
X120337857Y-148563350D01*
X120413263Y-148604015D01*
X120480427Y-148655398D01*
X120538609Y-148717097D01*
X120587068Y-148788709D01*
X120625063Y-148869833D01*
X120651852Y-148960065D01*
X120666695Y-149059003D01*
X120669588Y-149129600D01*
X120663017Y-149231962D01*
X120643912Y-149325816D01*
X120613181Y-149410821D01*
X120571735Y-149486636D01*
X120520481Y-149552922D01*
X120438460Y-149625888D01*
X120342778Y-149680499D01*
X120263347Y-149708925D01*
X120178353Y-149726230D01*
X120088705Y-149732074D01*
X120005806Y-149727018D01*
X119924170Y-149711678D01*
X119819890Y-149674790D01*
X119747055Y-149634467D01*
X119680499Y-149583013D01*
X119621727Y-149520173D01*
X119572244Y-149445692D01*
X119533555Y-149359316D01*
X119507163Y-149260791D01*
X119494574Y-149149862D01*
X119493868Y-149117559D01*
X119795980Y-149117559D01*
X119801319Y-149203412D01*
X119822180Y-149299280D01*
X119857379Y-149380523D01*
X119916388Y-149455832D01*
X119991194Y-149503606D01*
X120079155Y-149520316D01*
X120171122Y-149503031D01*
X120247696Y-149454212D01*
X120306972Y-149378405D01*
X120341781Y-149297900D01*
X120362152Y-149204445D01*
X120367313Y-149122126D01*
X120361047Y-149030740D01*
X120341633Y-148942818D01*
X120308151Y-148863281D01*
X120248103Y-148785837D01*
X120164876Y-148736064D01*
X120076664Y-148721861D01*
X119991600Y-148736483D01*
X119911267Y-148787293D01*
X119853243Y-148865397D01*
X119820854Y-148944461D01*
X119802054Y-149030353D01*
X119795980Y-149117559D01*
X119493868Y-149117559D01*
X119493705Y-149110085D01*
X119499696Y-149012762D01*
X119517284Y-148922079D01*
X119545893Y-148838676D01*
X119584946Y-148763194D01*
X119652264Y-148675980D01*
X119735757Y-148605504D01*
X119808168Y-148564545D01*
X119888331Y-148534496D01*
X119975669Y-148515996D01*
X120069605Y-148509688D01*
X120165288Y-148515784D01*
G37*
G36*
X119206378Y-148319935D02*
G01*
X119206378Y-148536261D01*
X119370387Y-148536261D01*
X119370387Y-148755494D01*
X119206378Y-148755494D01*
X119206378Y-149308557D01*
X119202191Y-149403246D01*
X119186765Y-149495436D01*
X119155054Y-149579367D01*
X119113370Y-149636990D01*
X119045546Y-149689527D01*
X118965836Y-149720001D01*
X118881218Y-149731663D01*
X118860921Y-149732074D01*
X118772805Y-149727542D01*
X118687563Y-149713156D01*
X118649162Y-149701348D01*
X118654145Y-149479625D01*
X118737097Y-149491671D01*
X118768328Y-149492081D01*
X118852586Y-149470806D01*
X118903245Y-149398319D01*
X118917184Y-149313360D01*
X118918220Y-149274510D01*
X118918220Y-148755494D01*
X118639612Y-148755494D01*
X118639612Y-148536261D01*
X118918220Y-148536261D01*
X118918220Y-148238969D01*
X119206378Y-148319935D01*
G37*
G36*
X118539961Y-148536261D02*
G01*
X118113953Y-149598376D01*
X118099420Y-149655675D01*
X118116029Y-149707577D01*
X118165020Y-149784157D01*
X118223210Y-149848200D01*
X118277962Y-149890685D01*
X118349835Y-149934724D01*
X118427822Y-149966192D01*
X118446953Y-149971237D01*
X118380519Y-150216628D01*
X118291985Y-150195291D01*
X118213324Y-150162450D01*
X118138823Y-150119016D01*
X118073262Y-150069227D01*
X118011407Y-150007377D01*
X117951896Y-149930993D01*
X117904729Y-149856847D01*
X117856927Y-149768986D01*
X117820088Y-149692912D01*
X117781958Y-149607192D01*
X117742136Y-149511001D01*
X117700223Y-149403511D01*
X117670921Y-149325166D01*
X117380687Y-148536261D01*
X117692512Y-148536261D01*
X117873545Y-149154098D01*
X117899031Y-149241076D01*
X117921891Y-149327923D01*
X117935411Y-149379974D01*
X117942470Y-149379974D01*
X117964548Y-149299842D01*
X117988611Y-149219812D01*
X118008904Y-149156589D01*
X118216095Y-148536261D01*
X118539961Y-148536261D01*
G37*
G36*
X116919801Y-149705501D02*
G01*
X116919801Y-148536261D01*
X117212526Y-148536261D01*
X117212526Y-149705501D01*
X116919801Y-149705501D01*
G37*
G36*
X117065125Y-148057936D02*
G01*
X117146401Y-148076781D01*
X117207017Y-148133911D01*
X117229134Y-148217793D01*
X117207681Y-148298668D01*
X117141136Y-148359071D01*
X117067201Y-148374743D01*
X116983323Y-148355569D01*
X116922436Y-148298668D01*
X116900701Y-148217793D01*
X116923458Y-148133911D01*
X116990230Y-148073319D01*
X117065125Y-148057936D01*
G37*
G36*
X116604654Y-149705501D02*
G01*
X116311929Y-149705501D01*
X116311929Y-149015002D01*
X116301160Y-148930730D01*
X116297812Y-148921163D01*
X116254451Y-148841632D01*
X116192601Y-148784407D01*
X116111081Y-148751815D01*
X116069030Y-148748020D01*
X115978029Y-148765415D01*
X115905456Y-148823150D01*
X115866936Y-148900704D01*
X115850691Y-148982946D01*
X115847721Y-149044066D01*
X115847721Y-149705501D01*
X115554996Y-149705501D01*
X115554996Y-149010019D01*
X115560346Y-148912388D01*
X115575680Y-148826776D01*
X115609799Y-148730411D01*
X115657215Y-148653224D01*
X115731305Y-148581805D01*
X115817222Y-148535956D01*
X115909998Y-148513235D01*
X115966887Y-148509688D01*
X116052302Y-148517225D01*
X116141713Y-148543317D01*
X116216568Y-148583199D01*
X116285109Y-148640363D01*
X116338087Y-148709820D01*
X116345146Y-148709820D01*
X116359678Y-148536261D01*
X116614204Y-148536261D01*
X116610372Y-148624463D01*
X116607383Y-148708692D01*
X116605313Y-148799340D01*
X116604654Y-148884625D01*
X116604654Y-149705501D01*
G37*
G36*
X114894846Y-148520387D02*
G01*
X114991987Y-148551916D01*
X115081138Y-148603424D01*
X115159765Y-148674060D01*
X115225332Y-148762971D01*
X115264412Y-148841136D01*
X115293651Y-148928743D01*
X115311978Y-149025433D01*
X115318325Y-149130846D01*
X115313027Y-149222737D01*
X115297534Y-149308767D01*
X115272446Y-149388242D01*
X115225103Y-149482813D01*
X115163188Y-149562852D01*
X115088120Y-149626714D01*
X115001321Y-149672756D01*
X114904211Y-149699332D01*
X114825467Y-149705501D01*
X114742648Y-149698466D01*
X114656735Y-149673769D01*
X114583074Y-149633446D01*
X114514864Y-149571109D01*
X114487484Y-149534433D01*
X114482916Y-149534433D01*
X114482916Y-149634499D01*
X114489425Y-149721305D01*
X114514687Y-149810940D01*
X114567233Y-149892329D01*
X114640466Y-149947027D01*
X114730607Y-149977004D01*
X114815917Y-149984524D01*
X114905498Y-149978526D01*
X114988104Y-149962534D01*
X115071296Y-149935865D01*
X115146864Y-149900514D01*
X115153900Y-149896498D01*
X115218258Y-150117807D01*
X115133581Y-150157323D01*
X115046886Y-150183333D01*
X114952800Y-150200883D01*
X114869434Y-150208856D01*
X114813841Y-150210399D01*
X114723539Y-150206628D01*
X114633571Y-150194240D01*
X114546286Y-150171627D01*
X114464031Y-150137179D01*
X114389155Y-150089287D01*
X114366242Y-150070057D01*
X114305395Y-150001773D01*
X114258703Y-149919661D01*
X114230015Y-149840554D01*
X114210111Y-149751635D01*
X114198518Y-149652809D01*
X114194907Y-149566553D01*
X114194759Y-149543983D01*
X114194759Y-149006697D01*
X114487484Y-149006697D01*
X114487484Y-149198941D01*
X114494223Y-149283166D01*
X114499525Y-149303990D01*
X114541180Y-149386995D01*
X114605879Y-149447781D01*
X114687304Y-149481470D01*
X114737442Y-149486683D01*
X114831724Y-149470291D01*
X114907691Y-149424389D01*
X114964717Y-149353887D01*
X115002179Y-149263695D01*
X115018003Y-149177036D01*
X115020617Y-149121296D01*
X115015086Y-149035251D01*
X114993582Y-148941190D01*
X114957534Y-148863205D01*
X114897594Y-148792475D01*
X114822370Y-148748568D01*
X114734951Y-148733487D01*
X114649955Y-148748175D01*
X114573883Y-148795331D01*
X114519951Y-148867662D01*
X114497034Y-148926146D01*
X114487484Y-149006697D01*
X114194759Y-149006697D01*
X114194759Y-148872584D01*
X114194304Y-148789361D01*
X114192484Y-148695631D01*
X114189222Y-148608913D01*
X114185209Y-148536261D01*
X114440150Y-148536261D01*
X114451775Y-148690720D01*
X114456758Y-148690720D01*
X114507193Y-148622320D01*
X114578104Y-148564548D01*
X114659089Y-148528375D01*
X114744026Y-148511890D01*
X114792250Y-148509688D01*
X114894846Y-148520387D01*
G37*
D12*
X64850000Y-69460000D02*
X63800000Y-69460000D01*
X62000000Y-68360000D02*
X62000000Y-69460000D01*
X61200000Y-68360000D02*
X62000000Y-68360000D01*
X63800000Y-69460000D02*
G75*
G02*
X86500000Y-69460000I11350000J0D01*
G01*
X86500000Y-69460000D02*
G75*
G02*
X63350000Y-69460000I-11575000J0D01*
G01*
X63350000Y-69460000D02*
G75*
G02*
X86950000Y-69460000I11800000J0D01*
G01*
X86950000Y-69460000D02*
G75*
G02*
X62900000Y-69460000I-12025000J0D01*
G01*
X62900000Y-69460000D02*
G75*
G02*
X87400000Y-69460000I12250000J0D01*
G01*
X87400000Y-69460000D02*
G75*
G02*
X62450000Y-69460000I-12475000J0D01*
G01*
X62450000Y-69460000D02*
G75*
G02*
X87850000Y-69460000I12700000J0D01*
G01*
X87850000Y-69460000D02*
G75*
G02*
X62000000Y-69460000I-12925000J0D01*
G01*
D13*
G04 #@! TA.AperFunction,EtchedComponent*
G36*
X72365525Y-61013774D02*
G01*
X72607311Y-61185165D01*
X72781408Y-61410470D01*
X72800366Y-61609175D01*
X72668597Y-61824320D01*
X72417894Y-62021919D01*
X72157599Y-62045823D01*
X71921135Y-61923712D01*
X71732050Y-61686659D01*
X71705413Y-61422669D01*
X71843786Y-61166638D01*
X71863973Y-61145625D01*
X72109481Y-60993049D01*
X72365525Y-61013774D01*
G37*
G04 #@! TD.AperFunction*
G04 #@! TA.AperFunction,EtchedComponent*
G36*
X72625837Y-78000780D02*
G01*
X72646850Y-78020968D01*
X72797963Y-78256217D01*
X72783501Y-78507407D01*
X72640537Y-78748620D01*
X72419722Y-78938547D01*
X72188209Y-78955315D01*
X71968155Y-78825591D01*
X71770556Y-78574889D01*
X71746652Y-78314594D01*
X71868763Y-78078129D01*
X72105816Y-77889044D01*
X72369806Y-77862407D01*
X72625837Y-78000780D01*
G37*
G04 #@! TD.AperFunction*
G04 #@! TA.AperFunction,EtchedComponent*
G36*
X75345082Y-79594118D02*
G01*
X75531825Y-79764292D01*
X75604384Y-79987400D01*
X75534521Y-80259090D01*
X75356648Y-80448204D01*
X75118336Y-80534628D01*
X74867160Y-80498248D01*
X74693637Y-80372480D01*
X74564665Y-80124583D01*
X74552929Y-79844748D01*
X74647313Y-79630482D01*
X74848054Y-79506787D01*
X75098901Y-79501474D01*
X75345082Y-79594118D01*
G37*
G04 #@! TD.AperFunction*
G04 #@! TA.AperFunction,EtchedComponent*
G36*
X78108337Y-61098927D02*
G01*
X78283764Y-61210865D01*
X78478681Y-61458867D01*
X78511957Y-61712573D01*
X78411706Y-61912669D01*
X78161234Y-62107876D01*
X77892231Y-62148571D01*
X77641144Y-62029948D01*
X77625964Y-62016285D01*
X77461766Y-61762664D01*
X77455593Y-61484901D01*
X77605069Y-61232612D01*
X77852066Y-61079032D01*
X78108337Y-61098927D01*
G37*
G04 #@! TD.AperFunction*
G04 #@! TA.AperFunction,EtchedComponent*
G36*
X78130343Y-71184984D02*
G01*
X78372783Y-71350376D01*
X78534127Y-71589541D01*
X78531578Y-71810758D01*
X78409693Y-72001718D01*
X78159899Y-72203411D01*
X77910813Y-72231727D01*
X77665019Y-72086428D01*
X77650011Y-72071762D01*
X77466870Y-71806652D01*
X77457227Y-71551591D01*
X77605069Y-71323023D01*
X77859377Y-71171375D01*
X78130343Y-71184984D01*
G37*
G04 #@! TD.AperFunction*
G04 #@! TA.AperFunction,EtchedComponent*
G36*
X69673141Y-76277242D02*
G01*
X69796717Y-76402997D01*
X69873348Y-76639890D01*
X69820099Y-76870748D01*
X69672884Y-77065700D01*
X69467619Y-77194875D01*
X69240219Y-77228400D01*
X69026601Y-77136404D01*
X68975682Y-77085865D01*
X68812069Y-76800706D01*
X68802770Y-76529109D01*
X68941702Y-76304945D01*
X69136621Y-76189421D01*
X69410343Y-76168230D01*
X69673141Y-76277242D01*
G37*
G04 #@! TD.AperFunction*
G04 #@! TA.AperFunction,EtchedComponent*
G36*
X83983745Y-71239544D02*
G01*
X84213009Y-71373916D01*
X84362987Y-71573766D01*
X84390001Y-71701419D01*
X84324251Y-71961721D01*
X84161023Y-72187382D01*
X83971954Y-72300661D01*
X83776933Y-72293466D01*
X83587910Y-72227006D01*
X83380690Y-72037709D01*
X83300981Y-71790455D01*
X83341341Y-71536365D01*
X83494328Y-71326560D01*
X83735200Y-71215206D01*
X83983745Y-71239544D01*
G37*
G04 #@! TD.AperFunction*
G04 #@! TA.AperFunction,EtchedComponent*
G36*
X66529404Y-71272250D02*
G01*
X66739954Y-71427060D01*
X66876012Y-71670374D01*
X66904566Y-71853377D01*
X66854366Y-71949970D01*
X66743325Y-72092590D01*
X66506424Y-72248268D01*
X66229399Y-72260202D01*
X65971569Y-72127399D01*
X65948905Y-72105899D01*
X65796408Y-71875905D01*
X65805651Y-71627768D01*
X65867605Y-71486370D01*
X66051548Y-71287153D01*
X66286042Y-71220698D01*
X66529404Y-71272250D01*
G37*
G04 #@! TD.AperFunction*
G04 #@! TA.AperFunction,EtchedComponent*
G36*
X66611748Y-74542378D02*
G01*
X66816009Y-74753951D01*
X66820065Y-74761406D01*
X66892745Y-74946087D01*
X66861005Y-75107220D01*
X66798698Y-75220431D01*
X66597000Y-75412936D01*
X66332327Y-75490736D01*
X66067691Y-75445556D01*
X65916192Y-75336305D01*
X65794873Y-75089534D01*
X65815737Y-74823968D01*
X65968661Y-74602707D01*
X66041919Y-74552631D01*
X66337752Y-74470988D01*
X66611748Y-74542378D01*
G37*
G04 #@! TD.AperFunction*
G04 #@! TA.AperFunction,EtchedComponent*
G36*
X69580293Y-62883535D02*
G01*
X69585927Y-62888740D01*
X69749754Y-63136234D01*
X69746909Y-63395819D01*
X69579003Y-63635445D01*
X69547106Y-63661915D01*
X69315252Y-63809400D01*
X69130651Y-63821150D01*
X68935087Y-63699786D01*
X68923635Y-63689975D01*
X68726035Y-63439272D01*
X68702132Y-63178977D01*
X68824243Y-62942512D01*
X69058632Y-62752642D01*
X69317199Y-62732521D01*
X69580293Y-62883535D01*
G37*
G04 #@! TD.AperFunction*
G04 #@! TA.AperFunction,EtchedComponent*
G36*
X72403007Y-71146895D02*
G01*
X72639602Y-71254021D01*
X72783143Y-71449619D01*
X72790503Y-71475019D01*
X72791647Y-71751605D01*
X72675086Y-71980145D01*
X72480668Y-72134724D01*
X72248241Y-72189426D01*
X72017654Y-72118339D01*
X71924768Y-72038031D01*
X71816528Y-71830318D01*
X71780589Y-71574641D01*
X71820780Y-71347777D01*
X71885720Y-71255175D01*
X72132124Y-71142520D01*
X72403007Y-71146895D01*
G37*
G04 #@! TD.AperFunction*
G04 #@! TA.AperFunction,EtchedComponent*
G36*
X78058398Y-77782960D02*
G01*
X78192227Y-77849709D01*
X78395380Y-78049541D01*
X78467689Y-78313897D01*
X78401441Y-78584399D01*
X78306088Y-78711729D01*
X78065799Y-78867876D01*
X77811560Y-78855645D01*
X77619666Y-78752086D01*
X77465817Y-78551498D01*
X77434308Y-78294093D01*
X77518847Y-78040187D01*
X77713141Y-77850097D01*
X77713802Y-77849728D01*
X77903537Y-77765489D01*
X78058398Y-77782960D01*
G37*
G04 #@! TD.AperFunction*
G04 #@! TA.AperFunction,EtchedComponent*
G36*
X83999461Y-67789068D02*
G01*
X84216028Y-67930557D01*
X84366013Y-68181989D01*
X84366720Y-68446936D01*
X84232374Y-68679473D01*
X83977199Y-68833675D01*
X83932327Y-68846478D01*
X83730065Y-68853410D01*
X83541389Y-68739466D01*
X83481022Y-68682226D01*
X83298091Y-68429988D01*
X83284621Y-68196998D01*
X83440115Y-67965355D01*
X83460504Y-67945720D01*
X83730184Y-67782867D01*
X83999461Y-67789068D01*
G37*
G04 #@! TD.AperFunction*
G04 #@! TA.AperFunction,EtchedComponent*
G36*
X66493621Y-64429363D02*
G01*
X66697227Y-64587033D01*
X66854264Y-64780030D01*
X66905754Y-64929529D01*
X66837312Y-65104558D01*
X66672510Y-65295828D01*
X66472137Y-65444944D01*
X66317206Y-65494940D01*
X66138240Y-65438247D01*
X65965307Y-65317579D01*
X65825488Y-65123450D01*
X65774932Y-64942543D01*
X65843268Y-64712218D01*
X66010560Y-64503207D01*
X66220234Y-64377338D01*
X66304193Y-64364118D01*
X66493621Y-64429363D01*
G37*
G04 #@! TD.AperFunction*
G04 #@! TA.AperFunction,EtchedComponent*
G36*
X66690271Y-67904630D02*
G01*
X66847528Y-68155601D01*
X66864826Y-68214258D01*
X66871758Y-68416520D01*
X66757814Y-68605196D01*
X66700574Y-68665563D01*
X66479931Y-68841781D01*
X66284626Y-68868112D01*
X66057713Y-68747956D01*
X66004129Y-68707120D01*
X65815559Y-68473328D01*
X65796375Y-68214707D01*
X65947966Y-67951637D01*
X65952293Y-67946959D01*
X66197804Y-67787171D01*
X66458747Y-67777440D01*
X66690271Y-67904630D01*
G37*
G04 #@! TD.AperFunction*
G04 #@! TA.AperFunction,EtchedComponent*
G36*
X75222686Y-59418317D02*
G01*
X75429132Y-59579807D01*
X75553469Y-59774532D01*
X75590169Y-59966701D01*
X75519416Y-60129015D01*
X75431597Y-60231007D01*
X75170408Y-60412462D01*
X74900018Y-60426676D01*
X74644237Y-60272458D01*
X74642266Y-60270493D01*
X74503312Y-60026677D01*
X74520559Y-59761501D01*
X74688458Y-59517663D01*
X74746285Y-59470211D01*
X74926931Y-59359880D01*
X75079974Y-59359319D01*
X75222686Y-59418317D01*
G37*
G04 #@! TD.AperFunction*
G04 #@! TA.AperFunction,EtchedComponent*
G36*
X75274006Y-76348274D02*
G01*
X75480446Y-76512728D01*
X75596453Y-76719635D01*
X75604384Y-76783805D01*
X75533061Y-77057983D01*
X75351062Y-77249949D01*
X75106339Y-77338736D01*
X74846848Y-77303374D01*
X74677582Y-77189060D01*
X74534416Y-76994427D01*
X74473581Y-76809563D01*
X74473562Y-76807113D01*
X74549874Y-76579632D01*
X74738649Y-76387186D01*
X74979650Y-76285800D01*
X75038973Y-76281242D01*
X75274006Y-76348274D01*
G37*
G04 #@! TD.AperFunction*
G04 #@! TA.AperFunction,EtchedComponent*
G36*
X80994288Y-76140373D02*
G01*
X81234529Y-76314844D01*
X81252180Y-76336466D01*
X81401102Y-76576959D01*
X81404357Y-76773969D01*
X81259258Y-76983124D01*
X81218955Y-77024579D01*
X81002065Y-77195586D01*
X80806932Y-77217775D01*
X80577929Y-77093833D01*
X80530841Y-77057805D01*
X80343051Y-76821207D01*
X80317472Y-76556981D01*
X80456651Y-76300938D01*
X80475617Y-76281242D01*
X80729380Y-76128323D01*
X80994288Y-76140373D01*
G37*
G04 #@! TD.AperFunction*
G04 #@! TA.AperFunction,EtchedComponent*
G36*
X81184080Y-62904092D02*
G01*
X81366894Y-63069398D01*
X81474091Y-63236418D01*
X81482573Y-63371605D01*
X81397399Y-63564946D01*
X81395009Y-63569570D01*
X81259817Y-63763472D01*
X81082925Y-63836058D01*
X80965290Y-63842201D01*
X80697906Y-63790232D01*
X80532592Y-63683125D01*
X80403285Y-63435856D01*
X80412007Y-63180193D01*
X80535910Y-62962676D01*
X80752146Y-62829845D01*
X80959493Y-62813591D01*
X81184080Y-62904092D01*
G37*
G04 #@! TD.AperFunction*
G04 #@! TA.AperFunction,EtchedComponent*
G36*
X84046558Y-74440482D02*
G01*
X84237918Y-74617987D01*
X84366488Y-74838091D01*
X84390001Y-74960307D01*
X84316825Y-75188512D01*
X84138463Y-75387352D01*
X83916666Y-75493645D01*
X83864129Y-75498365D01*
X83682685Y-75439387D01*
X83484368Y-75296277D01*
X83472691Y-75284853D01*
X83326895Y-75101543D01*
X83259691Y-74943062D01*
X83259179Y-74932954D01*
X83327717Y-74757631D01*
X83492804Y-74566347D01*
X83693652Y-74417378D01*
X83848966Y-74367543D01*
X84046558Y-74440482D01*
G37*
G04 #@! TD.AperFunction*
G04 #@! TA.AperFunction,EtchedComponent*
G36*
X84063505Y-64524702D02*
G01*
X84261338Y-64703326D01*
X84379134Y-64923726D01*
X84390001Y-65003502D01*
X84321665Y-65233827D01*
X84154373Y-65442838D01*
X83944699Y-65568707D01*
X83860740Y-65581927D01*
X83681805Y-65523043D01*
X83484666Y-65380129D01*
X83472691Y-65368415D01*
X83326895Y-65185105D01*
X83259691Y-65026624D01*
X83259179Y-65016516D01*
X83327621Y-64841488D01*
X83492423Y-64650217D01*
X83692796Y-64501102D01*
X83847727Y-64451105D01*
X84063505Y-64524702D01*
G37*
G04 #@! TD.AperFunction*
G04 #@! TA.AperFunction,EtchedComponent*
G36*
X75388486Y-62315513D02*
G01*
X75619132Y-62456343D01*
X75738435Y-62567073D01*
X75971098Y-62837836D01*
X76079766Y-63088680D01*
X76069304Y-63366291D01*
X75944579Y-63717353D01*
X75874030Y-63867862D01*
X75650843Y-64476876D01*
X75594662Y-65059241D01*
X75705399Y-65636744D01*
X75865343Y-66016858D01*
X75999985Y-66306025D01*
X76094108Y-66551052D01*
X76125977Y-66688521D01*
X76059418Y-66933014D01*
X75891272Y-67204838D01*
X75667519Y-67439176D01*
X75525565Y-67534895D01*
X75168980Y-67655890D01*
X74834680Y-67619306D01*
X74586518Y-67499147D01*
X74329775Y-67277435D01*
X74134541Y-66989701D01*
X74056642Y-66743931D01*
X74664686Y-66743931D01*
X74778104Y-66973306D01*
X74791496Y-66988605D01*
X74961790Y-67124239D01*
X75136694Y-67119463D01*
X75324070Y-67012268D01*
X75482240Y-66809000D01*
X75503676Y-66558945D01*
X75382795Y-66329627D01*
X75380705Y-66327524D01*
X75166513Y-66201107D01*
X74957787Y-66213231D01*
X74784556Y-66330203D01*
X74676846Y-66518333D01*
X74664686Y-66743931D01*
X74056642Y-66743931D01*
X74043384Y-66702104D01*
X74041361Y-66651829D01*
X74080044Y-66496042D01*
X74178321Y-66243704D01*
X74302320Y-65975580D01*
X74511023Y-65423519D01*
X74564516Y-64894625D01*
X74462746Y-64351292D01*
X74299521Y-63943123D01*
X74145541Y-63603248D01*
X74066275Y-63365616D01*
X74056385Y-63182091D01*
X74662996Y-63182091D01*
X74694562Y-63457299D01*
X74857999Y-63623561D01*
X75082467Y-63668228D01*
X75298187Y-63625368D01*
X75426046Y-63543009D01*
X75515609Y-63316755D01*
X75472254Y-63075727D01*
X75315448Y-62889093D01*
X75230102Y-62846800D01*
X74952053Y-62815025D01*
X74756651Y-62931217D01*
X74662996Y-63182091D01*
X74056385Y-63182091D01*
X74056171Y-63178124D01*
X74109677Y-62988665D01*
X74180840Y-62829426D01*
X74420269Y-62514500D01*
X74769585Y-62326991D01*
X75130339Y-62276447D01*
X75388486Y-62315513D01*
G37*
G04 #@! TD.AperFunction*
G04 #@! TA.AperFunction,EtchedComponent*
G36*
X75479857Y-69067081D02*
G01*
X75729142Y-69241996D01*
X75972431Y-69507139D01*
X76085792Y-69782619D01*
X76072473Y-70103318D01*
X75935726Y-70504114D01*
X75861701Y-70664811D01*
X75714108Y-70989244D01*
X75635745Y-71236164D01*
X75611692Y-71480326D01*
X75627029Y-71796485D01*
X75629573Y-71827884D01*
X75732789Y-72409928D01*
X75893247Y-72821217D01*
X76022713Y-73102677D01*
X76065285Y-73321798D01*
X76036061Y-73557179D01*
X76035296Y-73560601D01*
X75876248Y-73926309D01*
X75608836Y-74191763D01*
X75271505Y-74339870D01*
X74902704Y-74353540D01*
X74549484Y-74221083D01*
X74235340Y-73939221D01*
X74075960Y-73594067D01*
X74075935Y-73304926D01*
X74615822Y-73304926D01*
X74631757Y-73524933D01*
X74751191Y-73705604D01*
X74940095Y-73812849D01*
X75164436Y-73812577D01*
X75358323Y-73701664D01*
X75499207Y-73473748D01*
X75480667Y-73218191D01*
X75373437Y-73047851D01*
X75155791Y-72905855D01*
X74923624Y-72935061D01*
X74737421Y-73079676D01*
X74615822Y-73304926D01*
X74075935Y-73304926D01*
X74075927Y-73210144D01*
X74239820Y-72811973D01*
X74275932Y-72756742D01*
X74415564Y-72514866D01*
X74496759Y-72255149D01*
X74538702Y-71909048D01*
X74545748Y-71792584D01*
X74554581Y-71441612D01*
X74525899Y-71175345D01*
X74443241Y-70913915D01*
X74299133Y-70596059D01*
X74132223Y-70201495D01*
X74091101Y-69986418D01*
X74661057Y-69986418D01*
X74741134Y-70228757D01*
X74791496Y-70294084D01*
X75013142Y-70436279D01*
X75247597Y-70412196D01*
X75380705Y-70316467D01*
X75499709Y-70097584D01*
X75494168Y-69853669D01*
X75384157Y-69639919D01*
X75189747Y-69511533D01*
X75082467Y-69496310D01*
X74850715Y-69568124D01*
X74703914Y-69748850D01*
X74661057Y-69986418D01*
X74091101Y-69986418D01*
X74074590Y-69900059D01*
X74130602Y-69646097D01*
X74304627Y-69393953D01*
X74426498Y-69265018D01*
X74762990Y-69027499D01*
X75118106Y-68961449D01*
X75479857Y-69067081D01*
G37*
G04 #@! TD.AperFunction*
G04 #@! TA.AperFunction,EtchedComponent*
G36*
X78187236Y-64023559D02*
G01*
X78501620Y-64141830D01*
X78759848Y-64374494D01*
X78907422Y-64661172D01*
X78956979Y-65077562D01*
X78835510Y-65494506D01*
X78723206Y-65682341D01*
X78636931Y-65849319D01*
X78587176Y-66074021D01*
X78566422Y-66401816D01*
X78564633Y-66639190D01*
X78574095Y-67028430D01*
X78606624Y-67300744D01*
X78673669Y-67512790D01*
X78781653Y-67713091D01*
X78958492Y-68132432D01*
X78975285Y-68531679D01*
X78839248Y-68885500D01*
X78557597Y-69168563D01*
X78332642Y-69289385D01*
X78106569Y-69376716D01*
X77952040Y-69395120D01*
X77780748Y-69344333D01*
X77648562Y-69287324D01*
X77293646Y-69048342D01*
X77076290Y-68724100D01*
X77006579Y-68347042D01*
X77031449Y-68234748D01*
X77553869Y-68234748D01*
X77560294Y-68488916D01*
X77689135Y-68677290D01*
X77894279Y-68777245D01*
X78129610Y-68766156D01*
X78346837Y-68623813D01*
X78456125Y-68439741D01*
X78428577Y-68228708D01*
X78425558Y-68220147D01*
X78276951Y-68006357D01*
X78061050Y-67908873D01*
X77831005Y-67926805D01*
X77639964Y-68059262D01*
X77553869Y-68234748D01*
X77031449Y-68234748D01*
X77094600Y-67949607D01*
X77181208Y-67784126D01*
X77287198Y-67586314D01*
X77349938Y-67378387D01*
X77379912Y-67105926D01*
X77387603Y-66714513D01*
X77387604Y-66712749D01*
X77379478Y-66316690D01*
X77348519Y-66040929D01*
X77284848Y-65832271D01*
X77191884Y-65658646D01*
X77023922Y-65231316D01*
X76997684Y-64973023D01*
X77518083Y-64973023D01*
X77556058Y-65185153D01*
X77622467Y-65303571D01*
X77810862Y-65390817D01*
X78056010Y-65397468D01*
X78260485Y-65323524D01*
X78283562Y-65303571D01*
X78363942Y-65140912D01*
X78387946Y-64973023D01*
X78325265Y-64707656D01*
X78138827Y-64564484D01*
X77953014Y-64538091D01*
X77687648Y-64600772D01*
X77544476Y-64787210D01*
X77518083Y-64973023D01*
X76997684Y-64973023D01*
X76996165Y-64958072D01*
X77067107Y-64585816D01*
X77256632Y-64300808D01*
X77529795Y-64108476D01*
X77851645Y-64014250D01*
X78187236Y-64023559D01*
G37*
G04 #@! TD.AperFunction*
G04 #@! TA.AperFunction,EtchedComponent*
G36*
X72706611Y-64020648D02*
G01*
X72895328Y-64149499D01*
X73154938Y-64461947D01*
X73277491Y-64820796D01*
X73261100Y-65185050D01*
X73103877Y-65513710D01*
X72964777Y-65657817D01*
X72893704Y-65752307D01*
X72849616Y-65915789D01*
X72827120Y-66183150D01*
X72820823Y-66589057D01*
X72825609Y-66985510D01*
X72846399Y-67256979D01*
X72892838Y-67452338D01*
X72974572Y-67620461D01*
X73046191Y-67730975D01*
X73212653Y-68106454D01*
X73232922Y-68497701D01*
X73109662Y-68858360D01*
X72971072Y-69037655D01*
X72682903Y-69216931D01*
X72319034Y-69296613D01*
X71952419Y-69267488D01*
X71756334Y-69191084D01*
X71488999Y-68950973D01*
X71309672Y-68612598D01*
X71260618Y-68328058D01*
X71809412Y-68328058D01*
X71862620Y-68555492D01*
X72015181Y-68730338D01*
X72254863Y-68800420D01*
X72255412Y-68800420D01*
X72458411Y-68738305D01*
X72600185Y-68629952D01*
X72707598Y-68408516D01*
X72680170Y-68182504D01*
X72550514Y-67993753D01*
X72351245Y-67884103D01*
X72114977Y-67895392D01*
X72049976Y-67924118D01*
X71867786Y-68100208D01*
X71809412Y-68328058D01*
X71260618Y-68328058D01*
X71255069Y-68295873D01*
X71307929Y-68068298D01*
X71443620Y-67792688D01*
X71516028Y-67683402D01*
X71648356Y-67484990D01*
X71726519Y-67304720D01*
X71764532Y-67085524D01*
X71776410Y-66770327D01*
X71776987Y-66620712D01*
X71770940Y-66255425D01*
X71744255Y-66009506D01*
X71684119Y-65828524D01*
X71577716Y-65658051D01*
X71537775Y-65604641D01*
X71356630Y-65289587D01*
X71298905Y-64943685D01*
X71298562Y-64907870D01*
X71299998Y-64888896D01*
X71878873Y-64888896D01*
X71915181Y-65168625D01*
X72059930Y-65347248D01*
X72272592Y-65402918D01*
X72512636Y-65313788D01*
X72574761Y-65263993D01*
X72713820Y-65047600D01*
X72716957Y-64818701D01*
X72609704Y-64622554D01*
X72417595Y-64504419D01*
X72166164Y-64509555D01*
X72151712Y-64514117D01*
X71970607Y-64614710D01*
X71891278Y-64796394D01*
X71878873Y-64888896D01*
X71299998Y-64888896D01*
X71317916Y-64652201D01*
X71400516Y-64463395D01*
X71583172Y-64264313D01*
X71623484Y-64226955D01*
X71982920Y-63989252D01*
X72349022Y-63920175D01*
X72706611Y-64020648D01*
G37*
G04 #@! TD.AperFunction*
G04 #@! TA.AperFunction,EtchedComponent*
G36*
X69454043Y-65613219D02*
G01*
X69461697Y-65615099D01*
X69657638Y-65707475D01*
X69885543Y-65871923D01*
X69940122Y-65920387D01*
X70115003Y-66114440D01*
X70193788Y-66315216D01*
X70211234Y-66585155D01*
X70137321Y-67056616D01*
X70022866Y-67301451D01*
X69892136Y-67627351D01*
X69822679Y-68043296D01*
X69814537Y-68489875D01*
X69867752Y-68907679D01*
X69982366Y-69237298D01*
X70021459Y-69300145D01*
X70221088Y-69670268D01*
X70265888Y-70028459D01*
X70157567Y-70416062D01*
X70074453Y-70583639D01*
X69941491Y-70862581D01*
X69867885Y-71130664D01*
X69837265Y-71461597D01*
X69832980Y-71670968D01*
X69839299Y-72035613D01*
X69876562Y-72300212D01*
X69962484Y-72538187D01*
X70108100Y-72811340D01*
X70278912Y-73089557D01*
X70439918Y-73319477D01*
X70538853Y-73433705D01*
X70795613Y-73615138D01*
X71140967Y-73798951D01*
X71515320Y-73959316D01*
X71859077Y-74070406D01*
X72092200Y-74106909D01*
X72449287Y-74167749D01*
X72776365Y-74327526D01*
X73015933Y-74553145D01*
X73083950Y-74677698D01*
X73161197Y-75081821D01*
X73095579Y-75449593D01*
X72913543Y-75756858D01*
X72641537Y-75979462D01*
X72306010Y-76093251D01*
X71933409Y-76074068D01*
X71668333Y-75970570D01*
X71490190Y-75817550D01*
X71303558Y-75572720D01*
X71218263Y-75424574D01*
X71061853Y-75208463D01*
X71752291Y-75208463D01*
X71769055Y-75260035D01*
X71871177Y-75440937D01*
X71967085Y-75524998D01*
X72197625Y-75536193D01*
X72435712Y-75436612D01*
X72538117Y-75342476D01*
X72640249Y-75107265D01*
X72569901Y-74873028D01*
X72502889Y-74787577D01*
X72288914Y-74651068D01*
X72064050Y-74652467D01*
X71871114Y-74764211D01*
X71752922Y-74958731D01*
X71752291Y-75208463D01*
X71061853Y-75208463D01*
X70904760Y-74991408D01*
X70465718Y-74653752D01*
X69931096Y-74429103D01*
X69354017Y-74335916D01*
X68904963Y-74254520D01*
X68576297Y-74051784D01*
X68355938Y-73719146D01*
X68310218Y-73596079D01*
X68250958Y-73384947D01*
X68248601Y-73323708D01*
X68819453Y-73323708D01*
X68882134Y-73589074D01*
X69068572Y-73732246D01*
X69254384Y-73758639D01*
X69466515Y-73720664D01*
X69584932Y-73654255D01*
X69665312Y-73491597D01*
X69689316Y-73323708D01*
X69626634Y-73058341D01*
X69440196Y-72915169D01*
X69254384Y-72888776D01*
X68989018Y-72951457D01*
X68845846Y-73137895D01*
X68819453Y-73323708D01*
X68248601Y-73323708D01*
X68244554Y-73218589D01*
X68300840Y-73032502D01*
X68429651Y-72762185D01*
X68440698Y-72740301D01*
X68629458Y-72212386D01*
X68698704Y-71646891D01*
X68647146Y-71098551D01*
X68489852Y-70652344D01*
X68324766Y-70183189D01*
X68326543Y-70031303D01*
X68819453Y-70031303D01*
X68893217Y-70254948D01*
X69075453Y-70406047D01*
X69307577Y-70460303D01*
X69531008Y-70393419D01*
X69584932Y-70348776D01*
X69665312Y-70186118D01*
X69689316Y-70018228D01*
X69626634Y-69752861D01*
X69440196Y-69609690D01*
X69254384Y-69583297D01*
X68990239Y-69645086D01*
X68847613Y-69831239D01*
X68819453Y-70031303D01*
X68326543Y-70031303D01*
X68330019Y-69734144D01*
X68493254Y-69332605D01*
X68602188Y-69118860D01*
X68662704Y-68878880D01*
X68686807Y-68552953D01*
X68688973Y-68359151D01*
X68676729Y-67968460D01*
X68628544Y-67671776D01*
X68527239Y-67390149D01*
X68437256Y-67202364D01*
X68301123Y-66916817D01*
X68239652Y-66719512D01*
X68240682Y-66625762D01*
X68819453Y-66625762D01*
X68882134Y-66891129D01*
X69068572Y-67034300D01*
X69254384Y-67060694D01*
X69466515Y-67022719D01*
X69584932Y-66956310D01*
X69665312Y-66793652D01*
X69689316Y-66625762D01*
X69626634Y-66360396D01*
X69440196Y-66217224D01*
X69254384Y-66190831D01*
X68989018Y-66253512D01*
X68845846Y-66439950D01*
X68819453Y-66625762D01*
X68240682Y-66625762D01*
X68241543Y-66547438D01*
X68287123Y-66365252D01*
X68468618Y-66011384D01*
X68751010Y-65750585D01*
X69093190Y-65609111D01*
X69454043Y-65613219D01*
G37*
G04 #@! TD.AperFunction*
G04 #@! TA.AperFunction,EtchedComponent*
G36*
X81203044Y-65739162D02*
G01*
X81538539Y-65922368D01*
X81696374Y-66083857D01*
X81837895Y-66393138D01*
X81859482Y-66768449D01*
X81762271Y-67150884D01*
X81672496Y-67321653D01*
X81572097Y-67509344D01*
X81512761Y-67718077D01*
X81484742Y-68000225D01*
X81478245Y-68365488D01*
X81486214Y-68760132D01*
X81516620Y-69033640D01*
X81579209Y-69238385D01*
X81672496Y-69409324D01*
X81838471Y-69815453D01*
X81836419Y-70254068D01*
X81666218Y-70730752D01*
X81643162Y-70774755D01*
X81520976Y-71030399D01*
X81457908Y-71263165D01*
X81440571Y-71544912D01*
X81448862Y-71817826D01*
X81482134Y-72204366D01*
X81547333Y-72474818D01*
X81659120Y-72686205D01*
X81679373Y-72714400D01*
X81883431Y-73109189D01*
X81936339Y-73511404D01*
X81841341Y-73886880D01*
X81601681Y-74201456D01*
X81532860Y-74256890D01*
X81242890Y-74390704D01*
X80810028Y-74462978D01*
X80733682Y-74468689D01*
X80205933Y-74570404D01*
X79713559Y-74788706D01*
X79300604Y-75097573D01*
X79011116Y-75470982D01*
X78999439Y-75493290D01*
X78740430Y-75834014D01*
X78397615Y-76042253D01*
X78006601Y-76103988D01*
X77648562Y-76025036D01*
X77357621Y-75822697D01*
X77175698Y-75526683D01*
X77103902Y-75179782D01*
X77113676Y-75091813D01*
X77605069Y-75091813D01*
X77673488Y-75316757D01*
X77839296Y-75502909D01*
X78043315Y-75585136D01*
X78053483Y-75585351D01*
X78231925Y-75526766D01*
X78387946Y-75411379D01*
X78516973Y-75239164D01*
X78561919Y-75106927D01*
X78492582Y-74930722D01*
X78329297Y-74753736D01*
X78139144Y-74641027D01*
X78068597Y-74628502D01*
X77856806Y-74702526D01*
X77679653Y-74879332D01*
X77605071Y-75091021D01*
X77605069Y-75091813D01*
X77113676Y-75091813D01*
X77143345Y-74824784D01*
X77295136Y-74504476D01*
X77560384Y-74261647D01*
X77602222Y-74238536D01*
X77848906Y-74156964D01*
X78162910Y-74109970D01*
X78274893Y-74105547D01*
X78773275Y-74023784D01*
X79261855Y-73799254D01*
X79695114Y-73459456D01*
X79729665Y-73415626D01*
X80475617Y-73415626D01*
X80541593Y-73611700D01*
X80698609Y-73802038D01*
X80885297Y-73920325D01*
X80954042Y-73932612D01*
X81108395Y-73875028D01*
X81258494Y-73758639D01*
X81387968Y-73580632D01*
X81432467Y-73439290D01*
X81365514Y-73241460D01*
X81207667Y-73064085D01*
X81023440Y-72976863D01*
X81003408Y-72975762D01*
X80788033Y-73037367D01*
X80592426Y-73185711D01*
X80482229Y-73366087D01*
X80475617Y-73415626D01*
X79729665Y-73415626D01*
X80014015Y-73054916D01*
X80153119Y-72806564D01*
X80237202Y-72595372D01*
X80280213Y-72361242D01*
X80296102Y-72044076D01*
X80298258Y-71830341D01*
X80291490Y-71422796D01*
X80259443Y-71127142D01*
X80191025Y-70881876D01*
X80084179Y-70643393D01*
X79928681Y-70285811D01*
X79890588Y-70065384D01*
X80478566Y-70065384D01*
X80503502Y-70272794D01*
X80578259Y-70392756D01*
X80584350Y-70395550D01*
X80824700Y-70443436D01*
X81074060Y-70424744D01*
X81241097Y-70348776D01*
X81337843Y-70141917D01*
X81300177Y-69896211D01*
X81201519Y-69742372D01*
X80989000Y-69609266D01*
X80748712Y-69597857D01*
X80580001Y-69687680D01*
X80503912Y-69845390D01*
X80478566Y-70065384D01*
X79890588Y-70065384D01*
X79879871Y-70003371D01*
X79937626Y-69733892D01*
X80081780Y-69449064D01*
X80201076Y-69208616D01*
X80270320Y-68953396D01*
X80303212Y-68620402D01*
X80310459Y-68397586D01*
X80309076Y-68017822D01*
X80277868Y-67743103D01*
X80203394Y-67505273D01*
X80086863Y-67263777D01*
X79926280Y-66865665D01*
X79920597Y-66730173D01*
X80476949Y-66730173D01*
X80546188Y-66956290D01*
X80719263Y-67101476D01*
X80939792Y-67145721D01*
X81151393Y-67069014D01*
X81224391Y-66995454D01*
X81327568Y-66749932D01*
X81298121Y-66512938D01*
X81162216Y-66329532D01*
X80946020Y-66244776D01*
X80796188Y-66258056D01*
X80586842Y-66359007D01*
X80491534Y-66551190D01*
X80476949Y-66730173D01*
X79920597Y-66730173D01*
X79911997Y-66525157D01*
X80047231Y-66200897D01*
X80183778Y-66017732D01*
X80481972Y-65784934D01*
X80836291Y-65692714D01*
X81203044Y-65739162D01*
G37*
G04 #@! TD.AperFunction*
G04 #@! TA.AperFunction,EtchedComponent*
G36*
X60547984Y-150234609D02*
G01*
X60547984Y-152079451D01*
X59237879Y-152079451D01*
X57927774Y-152079451D01*
X57927774Y-151758609D01*
X57927774Y-151437766D01*
X58890300Y-151437766D01*
X59852826Y-151437766D01*
X59852826Y-149913766D01*
X59852826Y-148389766D01*
X60200405Y-148389766D01*
X60547984Y-148389766D01*
X60547984Y-150234609D01*
G37*
G04 #@! TD.AperFunction*
G04 #@! TA.AperFunction,EtchedComponent*
G36*
X83381247Y-150234609D02*
G01*
X83381247Y-152079451D01*
X82071142Y-152079451D01*
X80761037Y-152079451D01*
X80761037Y-151758609D01*
X80761037Y-151437766D01*
X81723563Y-151437766D01*
X82686089Y-151437766D01*
X82686089Y-149913766D01*
X82686089Y-148389766D01*
X83033668Y-148389766D01*
X83381247Y-148389766D01*
X83381247Y-150234609D01*
G37*
G04 #@! TD.AperFunction*
G04 #@! TA.AperFunction,EtchedComponent*
G36*
X70494089Y-149165135D02*
G01*
X70494089Y-149940503D01*
X71403142Y-149940503D01*
X72312195Y-149940503D01*
X72312195Y-149165135D01*
X72312195Y-148389766D01*
X72659774Y-148389766D01*
X73007353Y-148389766D01*
X73007353Y-150234609D01*
X73007353Y-152079451D01*
X72659774Y-152079451D01*
X72312195Y-152079451D01*
X72312195Y-151330819D01*
X72312195Y-150582188D01*
X71403142Y-150582188D01*
X70494089Y-150582188D01*
X70494089Y-151330819D01*
X70494089Y-152079451D01*
X70146510Y-152079451D01*
X69798931Y-152079451D01*
X69798931Y-150234609D01*
X69798931Y-148389766D01*
X70146510Y-148389766D01*
X70494089Y-148389766D01*
X70494089Y-149165135D01*
G37*
G04 #@! TD.AperFunction*
G04 #@! TA.AperFunction,EtchedComponent*
G36*
X80226300Y-150234609D02*
G01*
X80226300Y-152079451D01*
X78835984Y-152079451D01*
X77445668Y-152079451D01*
X77445668Y-151731872D01*
X77445668Y-151384293D01*
X78488405Y-151384293D01*
X79531142Y-151384293D01*
X79531142Y-150956503D01*
X79531142Y-150528714D01*
X78515142Y-150528714D01*
X77499142Y-150528714D01*
X77499142Y-150207872D01*
X77499142Y-149887030D01*
X78515142Y-149887030D01*
X79531142Y-149887030D01*
X79531142Y-149485977D01*
X79531142Y-149084924D01*
X78488405Y-149084924D01*
X77445668Y-149084924D01*
X77445668Y-148737345D01*
X77445668Y-148389766D01*
X78835984Y-148389766D01*
X80226300Y-148389766D01*
X80226300Y-150234609D01*
G37*
G04 #@! TD.AperFunction*
G04 #@! TA.AperFunction,EtchedComponent*
G36*
X66376616Y-149624086D02*
G01*
X66376616Y-150858406D01*
X66657353Y-150513824D01*
X66670339Y-150497877D01*
X66799535Y-150338873D01*
X66978318Y-150118413D01*
X67191200Y-149855618D01*
X67422690Y-149569608D01*
X67657299Y-149279504D01*
X68376509Y-148389766D01*
X68659931Y-148389766D01*
X68943353Y-148389766D01*
X68943353Y-150234609D01*
X68943353Y-152079451D01*
X68596778Y-152079451D01*
X68250203Y-152079451D01*
X68235830Y-150867480D01*
X68221458Y-149655509D01*
X67683861Y-150319374D01*
X67641569Y-150371593D01*
X67403295Y-150665634D01*
X67148440Y-150979913D01*
X66904953Y-151279970D01*
X66700787Y-151531345D01*
X66255311Y-152079451D01*
X65968384Y-152079451D01*
X65681458Y-152079451D01*
X65681458Y-150234609D01*
X65681458Y-148389766D01*
X66029037Y-148389766D01*
X66376616Y-148389766D01*
X66376616Y-149624086D01*
G37*
G04 #@! TD.AperFunction*
G04 #@! TA.AperFunction,EtchedComponent*
G36*
X46601432Y-148391133D02*
G01*
X47045879Y-148392499D01*
X47521490Y-149139764D01*
X47638288Y-149322565D01*
X47783216Y-149547193D01*
X47900307Y-149726069D01*
X47979793Y-149844309D01*
X48011907Y-149887030D01*
X48025762Y-149869519D01*
X48086814Y-149776507D01*
X48187321Y-149616967D01*
X48317630Y-149406288D01*
X48468085Y-149159862D01*
X48562152Y-149006648D01*
X48708350Y-148775775D01*
X48832616Y-148588374D01*
X48924097Y-148460627D01*
X48971936Y-148408718D01*
X48974232Y-148407928D01*
X49061385Y-148398560D01*
X49220575Y-148395928D01*
X49419096Y-148400623D01*
X49803778Y-148416503D01*
X49079881Y-149482393D01*
X48355984Y-150548283D01*
X48355984Y-151313867D01*
X48355984Y-152079451D01*
X48008405Y-152079451D01*
X47660826Y-152079451D01*
X47660435Y-151317451D01*
X47660044Y-150555451D01*
X47324686Y-150074188D01*
X47176273Y-149860912D01*
X46976514Y-149573322D01*
X46766578Y-149270646D01*
X46573157Y-148991345D01*
X46156986Y-148389766D01*
X46601432Y-148391133D01*
G37*
G04 #@! TD.AperFunction*
G04 #@! TA.AperFunction,EtchedComponent*
G36*
X75361116Y-148364169D02*
G01*
X75780183Y-148470237D01*
X76162300Y-148665640D01*
X76342378Y-148804541D01*
X76622532Y-149119501D01*
X76820138Y-149494122D01*
X76930199Y-149917503D01*
X76947715Y-150378742D01*
X76935371Y-150514459D01*
X76836023Y-150957047D01*
X76652840Y-151337304D01*
X76389749Y-151650204D01*
X76050676Y-151890720D01*
X75639544Y-152053827D01*
X75550118Y-152075970D01*
X75167405Y-152124173D01*
X74771227Y-152109744D01*
X74389345Y-152037398D01*
X74049522Y-151911854D01*
X73779518Y-151737826D01*
X73588494Y-151571451D01*
X73824982Y-151340589D01*
X74061471Y-151109727D01*
X74257670Y-151242871D01*
X74540303Y-151382675D01*
X74889579Y-151456541D01*
X75254416Y-151447085D01*
X75605241Y-151351914D01*
X75778318Y-151243860D01*
X75963242Y-151064833D01*
X76118435Y-150855535D01*
X76211917Y-150652814D01*
X76253432Y-150445221D01*
X76252227Y-150085642D01*
X76162476Y-149748176D01*
X75990663Y-149452661D01*
X75743273Y-149218940D01*
X75646736Y-149155115D01*
X75540616Y-149102197D01*
X75421997Y-149073076D01*
X75259408Y-149060742D01*
X75021378Y-149058188D01*
X74875647Y-149059010D01*
X74679278Y-149067194D01*
X74540774Y-149089407D01*
X74428638Y-149131997D01*
X74311370Y-149201315D01*
X74091388Y-149344442D01*
X73865373Y-149114149D01*
X73639357Y-148883855D01*
X73820930Y-148745363D01*
X74089808Y-148574905D01*
X74495170Y-148417210D01*
X74925859Y-148346729D01*
X75361116Y-148364169D01*
G37*
G04 #@! TD.AperFunction*
G04 #@! TA.AperFunction,EtchedComponent*
G36*
X57635776Y-150538171D02*
G01*
X57539765Y-150970891D01*
X57362029Y-151353298D01*
X57108816Y-151675305D01*
X56786379Y-151926823D01*
X56400967Y-152097765D01*
X56187059Y-152149702D01*
X55765824Y-152184341D01*
X55342982Y-152140533D01*
X54947163Y-152022481D01*
X54606995Y-151834389D01*
X54507731Y-151756550D01*
X54233364Y-151463551D01*
X54040971Y-151112011D01*
X53927750Y-150695571D01*
X53898999Y-150315044D01*
X54566401Y-150315044D01*
X54608215Y-150628099D01*
X54711160Y-150918328D01*
X54874181Y-151168801D01*
X55096224Y-151362587D01*
X55376231Y-151482756D01*
X55532357Y-151515048D01*
X55908294Y-151529989D01*
X56240541Y-151452000D01*
X56520254Y-151287484D01*
X56738589Y-151042849D01*
X56886701Y-150724498D01*
X56955747Y-150338838D01*
X56957644Y-150304104D01*
X56931908Y-149914974D01*
X56820821Y-149574255D01*
X56629468Y-149292733D01*
X56362933Y-149081196D01*
X56248803Y-149029254D01*
X55992458Y-148966787D01*
X55708825Y-148947216D01*
X55439006Y-148971944D01*
X55224102Y-149042371D01*
X55031573Y-149173181D01*
X54818306Y-149408232D01*
X54670391Y-149688180D01*
X54586775Y-149996094D01*
X54566401Y-150315044D01*
X53898999Y-150315044D01*
X53890902Y-150207872D01*
X53892033Y-150051850D01*
X53901783Y-149843296D01*
X53927705Y-149682288D01*
X53977126Y-149531173D01*
X54057372Y-149352293D01*
X54279848Y-148981497D01*
X54573394Y-148675180D01*
X54933247Y-148449272D01*
X54980231Y-148427403D01*
X55134231Y-148366487D01*
X55287542Y-148330700D01*
X55475977Y-148313802D01*
X55735353Y-148309556D01*
X55814426Y-148309812D01*
X56051649Y-148316926D01*
X56228136Y-148338529D01*
X56380131Y-148380937D01*
X56543875Y-148450468D01*
X56803939Y-148594273D01*
X57143559Y-148874660D01*
X57398509Y-149219437D01*
X57566576Y-149625314D01*
X57645549Y-150089000D01*
X57640869Y-150304104D01*
X57635776Y-150538171D01*
G37*
G04 #@! TD.AperFunction*
G04 #@! TA.AperFunction,EtchedComponent*
G36*
X52044600Y-148353581D02*
G01*
X52446528Y-148506522D01*
X52793523Y-148744671D01*
X53076661Y-149062629D01*
X53287020Y-149454997D01*
X53340361Y-149606331D01*
X53380333Y-149786087D01*
X53400559Y-150001534D01*
X53406101Y-150288082D01*
X53405067Y-150448255D01*
X53396172Y-150663549D01*
X53373286Y-150824648D01*
X53330607Y-150965055D01*
X53262334Y-151118276D01*
X53161124Y-151304782D01*
X52914726Y-151622863D01*
X52606064Y-151860892D01*
X52220693Y-152031529D01*
X52189730Y-152041472D01*
X51972463Y-152094190D01*
X51733314Y-152117683D01*
X51430721Y-152116419D01*
X51074055Y-152086021D01*
X50761958Y-152009835D01*
X50492217Y-151877612D01*
X50234386Y-151678201D01*
X50013668Y-151478795D01*
X50013668Y-150709649D01*
X50013668Y-149940503D01*
X50815774Y-149940503D01*
X51617879Y-149940503D01*
X51617879Y-150261345D01*
X51617879Y-150582188D01*
X51136616Y-150582188D01*
X50655353Y-150582188D01*
X50655353Y-150901943D01*
X50655384Y-150944378D01*
X50660412Y-151106301D01*
X50685545Y-151201565D01*
X50747124Y-151263857D01*
X50861490Y-151326861D01*
X51181793Y-151440093D01*
X51525782Y-151473768D01*
X51864343Y-151429587D01*
X52171676Y-151310950D01*
X52421982Y-151121256D01*
X52444314Y-151097047D01*
X52624931Y-150820724D01*
X52722344Y-150505205D01*
X52740019Y-150171424D01*
X52681423Y-149840315D01*
X52550023Y-149532811D01*
X52349285Y-149269846D01*
X52082676Y-149072354D01*
X51862611Y-148988967D01*
X51541953Y-148947420D01*
X51209810Y-148976305D01*
X50899661Y-149071937D01*
X50644984Y-149230630D01*
X50598993Y-149263110D01*
X50541600Y-149263158D01*
X50463418Y-149205528D01*
X50340376Y-149078173D01*
X50230104Y-148954742D01*
X50172472Y-148869494D01*
X50170227Y-148810155D01*
X50213170Y-148750443D01*
X50301073Y-148671564D01*
X50519132Y-148539162D01*
X50791966Y-148423584D01*
X51086519Y-148337849D01*
X51369736Y-148294975D01*
X51596660Y-148291245D01*
X52044600Y-148353581D01*
G37*
G04 #@! TD.AperFunction*
G04 #@! TA.AperFunction,EtchedComponent*
G36*
X65011608Y-150347852D02*
G01*
X64990775Y-150673405D01*
X64938747Y-150937581D01*
X64847447Y-151172318D01*
X64708797Y-151409555D01*
X64505651Y-151656895D01*
X64179797Y-151912794D01*
X63794441Y-152092624D01*
X63625861Y-152137867D01*
X63371567Y-152168849D01*
X63049962Y-152169834D01*
X63010921Y-152168406D01*
X62772335Y-152153133D01*
X62590781Y-152121984D01*
X62422350Y-152064320D01*
X62223133Y-151969503D01*
X61872359Y-151742596D01*
X61603968Y-151458313D01*
X61416233Y-151111603D01*
X61306039Y-150696709D01*
X61280814Y-150351956D01*
X61951791Y-150351956D01*
X62002586Y-150671868D01*
X62116966Y-150964465D01*
X62294828Y-151210110D01*
X62536067Y-151389168D01*
X62700260Y-151455348D01*
X62998009Y-151516752D01*
X63302094Y-151522215D01*
X63566155Y-151468182D01*
X63741439Y-151390441D01*
X63999967Y-151203339D01*
X64179400Y-150953186D01*
X64283963Y-150633059D01*
X64317879Y-150236036D01*
X64308780Y-149999522D01*
X64256956Y-149712657D01*
X64150567Y-149478664D01*
X63979770Y-149269399D01*
X63873207Y-149171475D01*
X63671478Y-149041837D01*
X63439379Y-148973361D01*
X63141458Y-148952651D01*
X63036041Y-148953475D01*
X62839285Y-148969141D01*
X62683799Y-149012581D01*
X62523819Y-149094290D01*
X62386574Y-149191864D01*
X62181975Y-149424681D01*
X62041381Y-149708726D01*
X61964688Y-150024363D01*
X61951791Y-150351956D01*
X61280814Y-150351956D01*
X61270271Y-150207872D01*
X61271401Y-150051850D01*
X61281151Y-149843296D01*
X61307073Y-149682288D01*
X61356494Y-149531173D01*
X61436740Y-149352293D01*
X61659217Y-148981497D01*
X61952762Y-148675180D01*
X62312616Y-148449272D01*
X62359600Y-148427403D01*
X62513600Y-148366487D01*
X62666910Y-148330700D01*
X62855346Y-148313802D01*
X63114721Y-148309556D01*
X63193795Y-148309812D01*
X63431017Y-148316926D01*
X63607504Y-148338529D01*
X63759499Y-148380937D01*
X63923244Y-148450468D01*
X64297058Y-148673709D01*
X64602677Y-148969835D01*
X64838721Y-149343537D01*
X64901305Y-149474830D01*
X64961458Y-149627811D01*
X64995117Y-149775966D01*
X65009801Y-149956527D01*
X65013028Y-150206730D01*
X65012733Y-150236036D01*
X65011608Y-150347852D01*
G37*
G04 #@! TD.AperFunction*
D14*
X64850000Y-69460000D03*
D15*
X60300000Y-68360000D03*
D16*
X104401375Y-138333754D03*
X124679352Y-138703243D03*
X111328200Y-141325600D03*
D17*
X60186600Y-120874800D03*
X62336600Y-119624800D03*
X62336600Y-122224800D03*
X64586600Y-120924800D03*
X66836600Y-122224800D03*
X60186600Y-123474800D03*
X64586600Y-123524800D03*
X66786600Y-124874800D03*
X57886600Y-122174800D03*
X57886600Y-124774800D03*
X57886600Y-127374800D03*
X60086600Y-128724800D03*
X62336600Y-127374800D03*
X62336600Y-124774800D03*
X64686600Y-128724800D03*
X66836600Y-127424800D03*
D18*
X51975000Y-54025000D03*
X52568109Y-52593109D03*
X52568109Y-55456891D03*
X54000000Y-52000000D03*
D19*
X54000000Y-54000000D03*
D18*
X54000000Y-56050000D03*
X55431891Y-52593109D03*
X55431891Y-55456891D03*
X56025000Y-54025000D03*
X56909000Y-45288200D03*
X57611944Y-43591144D03*
X57611944Y-46985256D03*
X59309000Y-42888200D03*
D20*
X59309000Y-45288200D03*
D18*
X59309000Y-47688200D03*
X61006056Y-43591144D03*
X61006056Y-46985256D03*
X61709000Y-45288200D03*
X134975000Y-54000000D03*
X135568109Y-52568109D03*
X135568109Y-55431891D03*
X137000000Y-51975000D03*
D19*
X137000000Y-54000000D03*
D18*
X137000000Y-56025000D03*
X138431891Y-52568109D03*
X138431891Y-55431891D03*
X139025000Y-54000000D03*
X139025000Y-98600000D03*
X138431891Y-100031891D03*
X138431891Y-97168109D03*
X137000000Y-100625000D03*
D19*
X137000000Y-98600000D03*
D18*
X137000000Y-96575000D03*
X135568109Y-100031891D03*
X135568109Y-97168109D03*
X134975000Y-98600000D03*
X51975000Y-98600000D03*
X52568109Y-97168109D03*
X52568109Y-100031891D03*
X54000000Y-96575000D03*
D19*
X54000000Y-98600000D03*
D18*
X54000000Y-100625000D03*
X55431891Y-97168109D03*
X55431891Y-100031891D03*
X56025000Y-98600000D03*
D21*
X69270102Y-66576800D03*
X69270102Y-69986800D03*
X69250102Y-73316800D03*
X72190102Y-75106800D03*
X75070102Y-73356800D03*
X75070102Y-69956800D03*
X72290102Y-64916800D03*
X72260102Y-68326800D03*
X75090102Y-63276800D03*
X75100102Y-66666800D03*
X77980102Y-64956800D03*
X77980102Y-68346800D03*
X80890102Y-66676800D03*
X80870102Y-70036800D03*
X80930102Y-73436800D03*
X78070102Y-75086800D03*
D22*
X119717998Y-34801494D03*
X121217998Y-34801494D03*
D23*
X119603398Y-31837494D03*
X120113398Y-31837494D03*
D24*
X119822798Y-36751094D03*
X121722798Y-36751094D03*
D25*
X119881598Y-42053494D03*
X122781598Y-42053494D03*
D26*
X168401640Y-88300560D03*
D27*
X168401640Y-85760560D03*
X168401640Y-83220560D03*
X168401640Y-80680560D03*
X176021640Y-80680560D03*
X176021640Y-83220560D03*
X176021640Y-85760560D03*
X176021640Y-88300560D03*
D28*
X209894600Y-111227240D03*
X209894600Y-110727240D03*
X209894600Y-110227240D03*
X209894600Y-109727240D03*
X209894600Y-109227240D03*
X209894600Y-108727240D03*
X209894600Y-108227240D03*
X209894600Y-107727240D03*
X214694600Y-107727240D03*
X214694600Y-108227240D03*
X214694600Y-108727240D03*
X214694600Y-109227240D03*
X214694600Y-109727240D03*
X214694600Y-110227240D03*
X214694600Y-110727240D03*
X214694600Y-111227240D03*
D29*
X211429600Y-107977240D03*
X211429600Y-108977240D03*
X211429600Y-109977240D03*
X211429600Y-110977240D03*
X213159600Y-107977240D03*
X213159600Y-108977240D03*
X213159600Y-109977240D03*
X213159600Y-110977240D03*
D28*
X203999300Y-111534840D03*
X203999300Y-111084840D03*
X203999300Y-110634840D03*
X203999300Y-110184840D03*
X203999300Y-109734840D03*
X203999300Y-109284840D03*
X203999300Y-108834840D03*
X203999300Y-108384840D03*
X206899300Y-108384840D03*
X206899300Y-108834840D03*
X206899300Y-109284840D03*
X206899300Y-109734840D03*
X206899300Y-110184840D03*
X206899300Y-110634840D03*
X206899300Y-111084840D03*
X206899300Y-111534840D03*
D30*
X205024300Y-108722340D03*
X205024300Y-109547340D03*
X205024300Y-110372340D03*
X205024300Y-111197340D03*
X205874300Y-108722340D03*
X205874300Y-109547340D03*
X205874300Y-110372340D03*
X205874300Y-111197340D03*
D31*
X158851600Y-84810600D03*
D32*
X159409270Y-83094267D03*
X160869270Y-82033515D03*
X162673930Y-82033515D03*
X164133930Y-83094267D03*
X164691600Y-84810600D03*
X164133930Y-86526933D03*
X162673930Y-87587685D03*
X160869270Y-87587685D03*
X159409270Y-86526933D03*
D33*
X119662398Y-33197494D03*
X120562398Y-33197494D03*
D34*
X154001000Y-131391860D03*
X159276000Y-131391860D03*
D35*
X119932398Y-39097094D03*
X122832398Y-39097094D03*
D36*
X153793000Y-126642380D03*
X158468000Y-126642380D03*
D37*
X165810440Y-122200700D03*
X169310560Y-122200700D03*
D38*
X169833500Y-116612700D03*
X165033500Y-116612700D03*
D39*
X210535900Y-119379200D03*
X210535900Y-118729200D03*
X210535900Y-118079200D03*
X210535900Y-117429200D03*
D40*
X211560900Y-116404200D03*
X212210900Y-116404200D03*
X212860900Y-116404200D03*
X213510900Y-116404200D03*
D39*
X214535900Y-117429200D03*
X214535900Y-118079200D03*
X214535900Y-118729200D03*
X214535900Y-119379200D03*
D40*
X213510900Y-120404200D03*
X212860900Y-120404200D03*
X212210900Y-120404200D03*
X211560900Y-120404200D03*
D41*
X211910900Y-117779200D03*
X211910900Y-119029200D03*
X213160900Y-117779200D03*
X213160900Y-119029200D03*
D42*
X203887940Y-119698500D03*
X203887940Y-119198500D03*
X203887940Y-118698500D03*
X203887940Y-118198500D03*
D43*
X204612940Y-117473500D03*
X205112940Y-117473500D03*
X205612940Y-117473500D03*
X206112940Y-117473500D03*
D42*
X206837940Y-118198500D03*
X206837940Y-118698500D03*
X206837940Y-119198500D03*
X206837940Y-119698500D03*
D43*
X206112940Y-120423500D03*
X205612940Y-120423500D03*
X205112940Y-120423500D03*
X204612940Y-120423500D03*
D44*
X204912940Y-118498500D03*
X204912940Y-119398500D03*
X205812940Y-118498500D03*
X205812940Y-119398500D03*
D45*
X218591180Y-120020100D03*
X218591180Y-119620100D03*
X218591180Y-119220100D03*
X218591180Y-118820100D03*
X218591180Y-118420100D03*
X218591180Y-118020100D03*
X218591180Y-117620100D03*
X218591180Y-117220100D03*
D46*
X219091180Y-116720100D03*
X219491180Y-116720100D03*
X219891180Y-116720100D03*
X220291180Y-116720100D03*
X220691180Y-116720100D03*
X221091180Y-116720100D03*
X221491180Y-116720100D03*
X221891180Y-116720100D03*
D45*
X222391180Y-117220100D03*
X222391180Y-117620100D03*
X222391180Y-118020100D03*
X222391180Y-118420100D03*
X222391180Y-118820100D03*
X222391180Y-119220100D03*
X222391180Y-119620100D03*
X222391180Y-120020100D03*
D46*
X221891180Y-120520100D03*
X221491180Y-120520100D03*
X221091180Y-120520100D03*
X220691180Y-120520100D03*
X220291180Y-120520100D03*
X219891180Y-120520100D03*
X219491180Y-120520100D03*
X219091180Y-120520100D03*
D47*
X219828680Y-117957600D03*
X219828680Y-119282600D03*
X221153680Y-117957600D03*
X221153680Y-119282600D03*
D48*
X162971420Y-107258460D03*
D49*
X162471420Y-107258460D03*
X161971420Y-107258460D03*
D48*
X161471420Y-107258460D03*
X161471420Y-106258460D03*
D49*
X161971420Y-106258460D03*
X162471420Y-106258460D03*
D48*
X162971420Y-106258460D03*
D50*
X194055000Y-120537100D03*
X193655000Y-120537100D03*
X193255000Y-120537100D03*
X192855000Y-120537100D03*
X192455000Y-120537100D03*
X192055000Y-120537100D03*
X191655000Y-120537100D03*
X194055000Y-120937100D03*
X193655000Y-120937100D03*
X193255000Y-120937100D03*
X192855000Y-120937100D03*
X192455000Y-120937100D03*
X192055000Y-120937100D03*
X191655000Y-120937100D03*
X194055000Y-121337100D03*
X193655000Y-121337100D03*
X193255000Y-121337100D03*
X192855000Y-121337100D03*
X192455000Y-121337100D03*
X192055000Y-121337100D03*
X191655000Y-121337100D03*
X194055000Y-121737100D03*
X193655000Y-121737100D03*
X193255000Y-121737100D03*
X192855000Y-121737100D03*
X192455000Y-121737100D03*
X192055000Y-121737100D03*
X191655000Y-121737100D03*
X194055000Y-122137100D03*
X193655000Y-122137100D03*
X193255000Y-122137100D03*
X192855000Y-122137100D03*
X192455000Y-122137100D03*
X192055000Y-122137100D03*
X191655000Y-122137100D03*
X194055000Y-122537100D03*
X193655000Y-122537100D03*
X193255000Y-122537100D03*
X192855000Y-122537100D03*
X192455000Y-122537100D03*
X192055000Y-122537100D03*
X191655000Y-122537100D03*
X194055000Y-122937100D03*
X193655000Y-122937100D03*
X193255000Y-122937100D03*
X192855000Y-122937100D03*
X192455000Y-122937100D03*
X192055000Y-122937100D03*
X191655000Y-122937100D03*
X200721000Y-120342800D03*
X200321000Y-120342800D03*
X200521000Y-120689300D03*
X200721000Y-121035800D03*
X200321000Y-121035800D03*
X189049000Y-120292700D03*
X188649000Y-120292700D03*
X188249000Y-120292700D03*
X187849000Y-120292700D03*
X187449000Y-120292700D03*
X187049000Y-120292700D03*
X186649000Y-120292700D03*
X186249000Y-120292700D03*
X189049000Y-120692700D03*
X188649000Y-120692700D03*
X188249000Y-120692700D03*
X187849000Y-120692700D03*
X187449000Y-120692700D03*
X187049000Y-120692700D03*
X186649000Y-120692700D03*
X186249000Y-120692700D03*
X189049000Y-121092700D03*
X188649000Y-121092700D03*
X188249000Y-121092700D03*
X187849000Y-121092700D03*
X187449000Y-121092700D03*
X187049000Y-121092700D03*
X186649000Y-121092700D03*
X186249000Y-121092700D03*
X189049000Y-121492700D03*
X188649000Y-121492700D03*
X188249000Y-121492700D03*
X187849000Y-121492700D03*
X187449000Y-121492700D03*
X187049000Y-121492700D03*
X186649000Y-121492700D03*
X186249000Y-121492700D03*
X189049000Y-121892700D03*
X188649000Y-121892700D03*
X188249000Y-121892700D03*
X187849000Y-121892700D03*
X187449000Y-121892700D03*
X187049000Y-121892700D03*
X186649000Y-121892700D03*
X186249000Y-121892700D03*
X189049000Y-122292700D03*
X188649000Y-122292700D03*
X188249000Y-122292700D03*
X187849000Y-122292700D03*
X187449000Y-122292700D03*
X187049000Y-122292700D03*
X186649000Y-122292700D03*
X186249000Y-122292700D03*
X189049000Y-122692700D03*
X188649000Y-122692700D03*
X188249000Y-122692700D03*
X187849000Y-122692700D03*
X187449000Y-122692700D03*
X187049000Y-122692700D03*
X186649000Y-122692700D03*
X186249000Y-122692700D03*
X189049000Y-123092700D03*
X188649000Y-123092700D03*
X188249000Y-123092700D03*
X187849000Y-123092700D03*
X187449000Y-123092700D03*
X187049000Y-123092700D03*
X186649000Y-123092700D03*
X186249000Y-123092700D03*
D51*
X179850500Y-108358500D03*
X173050500Y-108358500D03*
D52*
X173783500Y-118611680D03*
X173783500Y-114613720D03*
D53*
X178863500Y-118761540D03*
X178863500Y-114463860D03*
D54*
X164696000Y-143837700D03*
X164696000Y-142567700D03*
X164696000Y-141297700D03*
X164696000Y-140027700D03*
X164696000Y-138757700D03*
D55*
X170996000Y-141297700D03*
D56*
X174316500Y-143543200D03*
X174316500Y-142043200D03*
X174316500Y-140543200D03*
X174316500Y-139043200D03*
D57*
X180616500Y-141293200D03*
D58*
X192534940Y-144393620D03*
X192534940Y-143123620D03*
X192534940Y-141853620D03*
X192534940Y-140583620D03*
X192534940Y-139313620D03*
X192534940Y-138043620D03*
X192534940Y-136773620D03*
X192534940Y-135503620D03*
X197934940Y-135503620D03*
X197934940Y-136773620D03*
X197934940Y-138043620D03*
X197934940Y-139313620D03*
X197934940Y-140583620D03*
X197934940Y-141853620D03*
X197934940Y-143123620D03*
X197934940Y-144393620D03*
X200990940Y-144393620D03*
X200990940Y-143123620D03*
X200990940Y-141853620D03*
X200990940Y-140583620D03*
X200990940Y-139313620D03*
X200990940Y-138043620D03*
X200990940Y-136773620D03*
X200990940Y-135503620D03*
X210290940Y-135503620D03*
X210290940Y-136773620D03*
X210290940Y-138043620D03*
X210290940Y-139313620D03*
X210290940Y-140583620D03*
X210290940Y-141853620D03*
X210290940Y-143123620D03*
X210290940Y-144393620D03*
D59*
X225829980Y-120392220D03*
D60*
X225829900Y-108317060D03*
D61*
X225829920Y-111888300D03*
D62*
X225829980Y-115876100D03*
D63*
X184669000Y-115564900D03*
X184169000Y-115564900D03*
X183669000Y-115564900D03*
X184669000Y-116064900D03*
X184169000Y-116064900D03*
X183669000Y-116064900D03*
X184669000Y-116564900D03*
X184169000Y-116564900D03*
X183669000Y-116564900D03*
X184669000Y-117064900D03*
X184169000Y-117064900D03*
X183669000Y-117064900D03*
D64*
X194887000Y-115604700D03*
X194387000Y-115604700D03*
X193887000Y-115604700D03*
X194887000Y-116104700D03*
X193887000Y-116104700D03*
X194887000Y-116604700D03*
X194387000Y-116604700D03*
X193887000Y-116604700D03*
D63*
X187895000Y-115564900D03*
X187395000Y-115564900D03*
X186895000Y-115564900D03*
X187895000Y-116064900D03*
X186895000Y-116064900D03*
X187895000Y-116564900D03*
X186895000Y-116564900D03*
X187895000Y-117064900D03*
X187395000Y-117064900D03*
X186895000Y-117064900D03*
D65*
X203907900Y-129297500D03*
X203907900Y-128797500D03*
X203907900Y-128297500D03*
X203907900Y-127797500D03*
X203907900Y-127297500D03*
X203907900Y-126797500D03*
X203907900Y-126297500D03*
X203907900Y-125797500D03*
D66*
X205332900Y-124372500D03*
X205832900Y-124372500D03*
X206332900Y-124372500D03*
X206832900Y-124372500D03*
X207332900Y-124372500D03*
X207832900Y-124372500D03*
X208332900Y-124372500D03*
X208832900Y-124372500D03*
D65*
X210257900Y-125797500D03*
X210257900Y-126297500D03*
X210257900Y-126797500D03*
X210257900Y-127297500D03*
X210257900Y-127797500D03*
X210257900Y-128297500D03*
X210257900Y-128797500D03*
X210257900Y-129297500D03*
D66*
X208832900Y-130722500D03*
X208332900Y-130722500D03*
X207832900Y-130722500D03*
X207332900Y-130722500D03*
X206832900Y-130722500D03*
X206332900Y-130722500D03*
X205832900Y-130722500D03*
X205332900Y-130722500D03*
D67*
X163608000Y-136107700D03*
X163608000Y-134567700D03*
X163608000Y-133047700D03*
X163608000Y-131507700D03*
X170408000Y-131507700D03*
X170408000Y-133047700D03*
X170408000Y-134567700D03*
X170408000Y-136107700D03*
D68*
X217871500Y-112431700D03*
X217871500Y-111781700D03*
X217871500Y-111131700D03*
X217871500Y-110481700D03*
X217871500Y-109831700D03*
X217871500Y-109181700D03*
X217871500Y-108531700D03*
X217871500Y-107881700D03*
X223421500Y-107881700D03*
X223421500Y-108531700D03*
X223421500Y-109181700D03*
X223421500Y-109831700D03*
X223421500Y-110481700D03*
X223421500Y-111131700D03*
X223421500Y-111781700D03*
X223421500Y-112431700D03*
D69*
X219911500Y-108814200D03*
X219911500Y-109709200D03*
X219911500Y-110604200D03*
X219911500Y-111499200D03*
X221381500Y-108814200D03*
X221381500Y-109709200D03*
X221381500Y-110604200D03*
X221381500Y-111499200D03*
D70*
X200997260Y-131864460D03*
X200997260Y-132514700D03*
X200997260Y-133164940D03*
X199097340Y-133164940D03*
X199097340Y-132514700D03*
X199097340Y-131864460D03*
D71*
X196640500Y-128418300D03*
X196640500Y-129078700D03*
X196640500Y-129739100D03*
X194608500Y-129739100D03*
X194608500Y-128418300D03*
D50*
X200682000Y-106903700D03*
X200282000Y-106903700D03*
X199882000Y-106903700D03*
X199482000Y-106903700D03*
X199082000Y-106903700D03*
X198682000Y-106903700D03*
X198282000Y-106903700D03*
X200682000Y-107303700D03*
X200282000Y-107303700D03*
X199882000Y-107303700D03*
X199482000Y-107303700D03*
X199082000Y-107303700D03*
X198682000Y-107303700D03*
X198282000Y-107303700D03*
X200682000Y-107703700D03*
X200282000Y-107703700D03*
X199882000Y-107703700D03*
X199482000Y-107703700D03*
X199082000Y-107703700D03*
X198682000Y-107703700D03*
X198282000Y-107703700D03*
X200682000Y-108103700D03*
X200282000Y-108103700D03*
X199882000Y-108103700D03*
X199482000Y-108103700D03*
X199082000Y-108103700D03*
X198682000Y-108103700D03*
X198282000Y-108103700D03*
X200682000Y-108503700D03*
X200282000Y-108503700D03*
X199882000Y-108503700D03*
X199482000Y-108503700D03*
X199082000Y-108503700D03*
X198682000Y-108503700D03*
X198282000Y-108503700D03*
X200682000Y-108903700D03*
X200282000Y-108903700D03*
X199882000Y-108903700D03*
X199482000Y-108903700D03*
X199082000Y-108903700D03*
X198682000Y-108903700D03*
X198282000Y-108903700D03*
X200682000Y-109303700D03*
X200282000Y-109303700D03*
X199882000Y-109303700D03*
X199482000Y-109303700D03*
X199082000Y-109303700D03*
X198682000Y-109303700D03*
X198282000Y-109303700D03*
D72*
X201126800Y-128418300D03*
X201126800Y-129739100D03*
X199094800Y-129078700D03*
D73*
X196524500Y-131764700D03*
X196524500Y-132264700D03*
X196524500Y-132764700D03*
X196524500Y-133264700D03*
X194724500Y-133264700D03*
X194724500Y-132764700D03*
X194724500Y-132264700D03*
X194724500Y-131764700D03*
D63*
X200741000Y-115613300D03*
X200241000Y-115613300D03*
X200741000Y-116113300D03*
X200241000Y-116113300D03*
X200741000Y-116613300D03*
X200241000Y-116613300D03*
D64*
X191391000Y-115620900D03*
X190891000Y-115620900D03*
X190391000Y-115620900D03*
X191391000Y-116120900D03*
X190891000Y-116120900D03*
X190391000Y-116120900D03*
X191391000Y-116620900D03*
X190891000Y-116620900D03*
X190391000Y-116620900D03*
D74*
X188430820Y-104324340D03*
X187630820Y-104324340D03*
X186830820Y-104324340D03*
X186030820Y-104324340D03*
X185230820Y-104324340D03*
X184430820Y-104324340D03*
X183630820Y-104324340D03*
X188430820Y-105124340D03*
X187630820Y-105124340D03*
X186830820Y-105124340D03*
X186030820Y-105124340D03*
X185230820Y-105124340D03*
X184430820Y-105124340D03*
X183630820Y-105124340D03*
X188430820Y-105924340D03*
X187630820Y-105924340D03*
X186830820Y-105924340D03*
X186030820Y-105924340D03*
X185230820Y-105924340D03*
X184430820Y-105924340D03*
X183630820Y-105924340D03*
X188430820Y-106724340D03*
X187630820Y-106724340D03*
X186830820Y-106724340D03*
X186030820Y-106724340D03*
X185230820Y-106724340D03*
X184430820Y-106724340D03*
X183630820Y-106724340D03*
X188430820Y-107524340D03*
X187630820Y-107524340D03*
X186830820Y-107524340D03*
X186030820Y-107524340D03*
X185230820Y-107524340D03*
X184430820Y-107524340D03*
X183630820Y-107524340D03*
X188430820Y-108324340D03*
X187630820Y-108324340D03*
X186830820Y-108324340D03*
X186030820Y-108324340D03*
X185230820Y-108324340D03*
X184430820Y-108324340D03*
X183630820Y-108324340D03*
X188430820Y-109124340D03*
X187630820Y-109124340D03*
X186830820Y-109124340D03*
X186030820Y-109124340D03*
X185230820Y-109124340D03*
X184430820Y-109124340D03*
X183630820Y-109124340D03*
D75*
X195742680Y-105442900D03*
X195092680Y-105442900D03*
X194442680Y-105442900D03*
X193792680Y-105442900D03*
X193142680Y-105442900D03*
X192492680Y-105442900D03*
X191842680Y-105442900D03*
X195742680Y-106092900D03*
X195092680Y-106092900D03*
X194442680Y-106092900D03*
X193792680Y-106092900D03*
X193142680Y-106092900D03*
X192492680Y-106092900D03*
X191842680Y-106092900D03*
X195742680Y-106742900D03*
X195092680Y-106742900D03*
X194442680Y-106742900D03*
X193792680Y-106742900D03*
X193142680Y-106742900D03*
X192492680Y-106742900D03*
X191842680Y-106742900D03*
X195742680Y-107392900D03*
X195092680Y-107392900D03*
X194442680Y-107392900D03*
X193792680Y-107392900D03*
X193142680Y-107392900D03*
X192492680Y-107392900D03*
X191842680Y-107392900D03*
X195742680Y-108042900D03*
X195092680Y-108042900D03*
X194442680Y-108042900D03*
X193792680Y-108042900D03*
X193142680Y-108042900D03*
X192492680Y-108042900D03*
X191842680Y-108042900D03*
X195742680Y-108692900D03*
X195092680Y-108692900D03*
X194442680Y-108692900D03*
X193792680Y-108692900D03*
X193142680Y-108692900D03*
X192492680Y-108692900D03*
X191842680Y-108692900D03*
X195742680Y-109342900D03*
X195092680Y-109342900D03*
X194442680Y-109342900D03*
X193792680Y-109342900D03*
X193142680Y-109342900D03*
X192492680Y-109342900D03*
X191842680Y-109342900D03*
D63*
X197843000Y-115570700D03*
X197343000Y-115570700D03*
X197843000Y-116070700D03*
X197343000Y-116070700D03*
X197843000Y-116570700D03*
X197343000Y-116570700D03*
X197843000Y-117070700D03*
X197343000Y-117070700D03*
D50*
X197905000Y-120378300D03*
X197505000Y-120378300D03*
X197105000Y-120378300D03*
X196705000Y-120378300D03*
X197905000Y-120778300D03*
X197505000Y-120778300D03*
X197105000Y-120778300D03*
X196705000Y-120778300D03*
X197905000Y-121178300D03*
X197505000Y-121178300D03*
X197105000Y-121178300D03*
X196705000Y-121178300D03*
X197905000Y-121578300D03*
X197505000Y-121578300D03*
X197105000Y-121578300D03*
X196705000Y-121578300D03*
X197905000Y-121978300D03*
X197505000Y-121978300D03*
X197105000Y-121978300D03*
X196705000Y-121978300D03*
X197905000Y-122378300D03*
X197505000Y-122378300D03*
X197105000Y-122378300D03*
X196705000Y-122378300D03*
X197905000Y-122778300D03*
X197505000Y-122778300D03*
X197105000Y-122778300D03*
X196705000Y-122778300D03*
D76*
X186263700Y-131160700D03*
X186263700Y-132110700D03*
X186263700Y-133060700D03*
X184063700Y-133060700D03*
X184063700Y-132110700D03*
X184063700Y-131160700D03*
D77*
X191595900Y-131140700D03*
X191595900Y-131780700D03*
X191595900Y-132440700D03*
X191595900Y-133080700D03*
X188975900Y-133080700D03*
X188975900Y-132440700D03*
X188975900Y-131780700D03*
X188975900Y-131140700D03*
D78*
X169713500Y-112193700D03*
D79*
X167433500Y-105893700D03*
D78*
X165153500Y-112193700D03*
D80*
X174280000Y-136073200D03*
X174280000Y-133773200D03*
X174280000Y-131473200D03*
D81*
X180580000Y-133773200D03*
D82*
X175627500Y-123724700D03*
X177527500Y-123724700D03*
D83*
X190764260Y-127032700D03*
X190764260Y-128932700D03*
X188765280Y-127982700D03*
D76*
X186262900Y-126991100D03*
X186262900Y-127941100D03*
X186262900Y-128891100D03*
X184062900Y-128891100D03*
X184062900Y-126991100D03*
D21*
X154238740Y-83360260D03*
X154238740Y-87160260D03*
D84*
X153651500Y-122887620D03*
X158101500Y-122887620D03*
D85*
X153778000Y-136501700D03*
X159753000Y-136501700D03*
D86*
X154052500Y-141628380D03*
X161002500Y-141628380D03*
D87*
X153789000Y-119556740D03*
X157964000Y-119556740D03*
D88*
X84175978Y-92793818D03*
X84175978Y-97753818D03*
D89*
X86350978Y-86048818D03*
X85700978Y-86048818D03*
X85050978Y-86048818D03*
X84400978Y-86048818D03*
X84400978Y-90348818D03*
X85050978Y-90348818D03*
X85700978Y-90348818D03*
X86350978Y-90348818D03*
D90*
X86409095Y-96258514D03*
X86409095Y-98008514D03*
X86409095Y-94053850D03*
X86409095Y-92303850D03*
D91*
X213297840Y-131483060D03*
X213297840Y-130683060D03*
X213297840Y-129883060D03*
X213297840Y-129083060D03*
X213297840Y-128283060D03*
X213297840Y-127483060D03*
X213297840Y-126683060D03*
X213297840Y-125883060D03*
D92*
X214747840Y-124433060D03*
X215547840Y-124433060D03*
X216347840Y-124433060D03*
X217147840Y-124433060D03*
X217947840Y-124433060D03*
X218747840Y-124433060D03*
X219547840Y-124433060D03*
X220347840Y-124433060D03*
D91*
X221797840Y-125883060D03*
X221797840Y-126683060D03*
X221797840Y-127483060D03*
X221797840Y-128283060D03*
X221797840Y-129083060D03*
X221797840Y-129883060D03*
X221797840Y-130683060D03*
X221797840Y-131483060D03*
D92*
X220347840Y-132933060D03*
X219547840Y-132933060D03*
X218747840Y-132933060D03*
X217947840Y-132933060D03*
X217147840Y-132933060D03*
X216347840Y-132933060D03*
X215547840Y-132933060D03*
X214747840Y-132933060D03*
D93*
X158470600Y-70180200D03*
X158470600Y-72179180D03*
X163568660Y-70180200D03*
D94*
X52293250Y-113812200D02*
X52293250Y-116098200D01*
X53880750Y-113812200D02*
X53880750Y-116098200D01*
X55468250Y-113812200D02*
X55468250Y-116098200D01*
X57055750Y-113812200D02*
X57055750Y-116098200D01*
X58643250Y-113812200D02*
X58643250Y-116098200D01*
X60230750Y-113812200D02*
X60230750Y-116098200D01*
X61818250Y-113812200D02*
X61818250Y-116098200D01*
X63405750Y-113812200D02*
X63405750Y-116098200D01*
X64993250Y-113812200D02*
X64993250Y-116098200D01*
X66580750Y-113812200D02*
X66580750Y-116098200D01*
X68168250Y-113812200D02*
X68168250Y-116098200D01*
X69755750Y-113812200D02*
X69755750Y-116098200D01*
X71343250Y-113812200D02*
X71343250Y-116098200D01*
X72930750Y-113812200D02*
X72930750Y-116098200D01*
X74518250Y-113812200D02*
X74518250Y-116098200D01*
X76105750Y-113812200D02*
X76105750Y-116098200D01*
X77693250Y-113812200D02*
X77693250Y-116098200D01*
X79280750Y-113812200D02*
X79280750Y-116098200D01*
X80868250Y-113812200D02*
X80868250Y-116098200D01*
X82455750Y-113812200D02*
X82455750Y-116098200D01*
X84043250Y-113812200D02*
X84043250Y-116098200D01*
X85630750Y-113812200D02*
X85630750Y-116098200D01*
X87218250Y-113812200D02*
X87218250Y-116098200D01*
X88805750Y-113812200D02*
X88805750Y-116098200D01*
X90393250Y-113812200D02*
X90393250Y-116098200D01*
X91980750Y-113812200D02*
X91980750Y-116098200D01*
X93568250Y-113812200D02*
X93568250Y-116098200D01*
X95155750Y-113812200D02*
X95155750Y-116098200D01*
X96743250Y-113812200D02*
X96743250Y-116098200D01*
X98330750Y-113812200D02*
X98330750Y-116098200D01*
X99918250Y-113812200D02*
X99918250Y-116098200D01*
X54674500Y-112732700D02*
X54674500Y-116098200D01*
X57849500Y-112732700D02*
X57849500Y-116098200D01*
X61024500Y-112732700D02*
X61024500Y-116098200D01*
X64199500Y-112732700D02*
X64199500Y-116098200D01*
X67374500Y-112732700D02*
X67374500Y-116098200D01*
X70549500Y-112732700D02*
X70549500Y-116098200D01*
X73724500Y-112732700D02*
X73724500Y-116098200D01*
X76899500Y-112732700D02*
X76899500Y-116098200D01*
X80074500Y-112732700D02*
X80074500Y-116098200D01*
X83249500Y-112732700D02*
X83249500Y-116098200D01*
X86424500Y-112732700D02*
X86424500Y-116098200D01*
X89599500Y-112732700D02*
X89599500Y-116098200D01*
X92774500Y-112732700D02*
X92774500Y-116098200D01*
X95949500Y-112732700D02*
X95949500Y-116098200D01*
X99124500Y-112732700D02*
X99124500Y-116098200D01*
X59437000Y-111907200D02*
X59437000Y-116098200D01*
X65787000Y-111907200D02*
X65787000Y-116098200D01*
X72137000Y-111907200D02*
X72137000Y-116098200D01*
X78487000Y-111907200D02*
X78487000Y-116098200D01*
X84837000Y-111907200D02*
X84837000Y-116098200D01*
X91187000Y-111907200D02*
X91187000Y-116098200D01*
X97537000Y-111907200D02*
X97537000Y-116098200D01*
X68962000Y-110637200D02*
X68962000Y-116098200D01*
X81662000Y-110637200D02*
X81662000Y-116098200D01*
X94362000Y-110637200D02*
X94362000Y-116098200D01*
X88012000Y-109430700D02*
X88012000Y-116098200D01*
X100712000Y-107833200D02*
X100712000Y-116088200D01*
X126112000Y-107833200D02*
X126112000Y-116088200D01*
X105474500Y-116088200D02*
X105474500Y-112722700D01*
X108649500Y-116088200D02*
X108649500Y-112722700D01*
X111824500Y-116088200D02*
X111824500Y-112722700D01*
X114999500Y-116088200D02*
X114999500Y-112722700D01*
X118174500Y-116088200D02*
X118174500Y-112722700D01*
X121349500Y-116088200D02*
X121349500Y-112722700D01*
X127699500Y-116088200D02*
X127699500Y-112722700D01*
X124524500Y-116088200D02*
X124524500Y-112722700D01*
X130874500Y-116088200D02*
X130874500Y-112722700D01*
X134049500Y-116088200D02*
X134049500Y-112722700D01*
X137224500Y-116088200D02*
X137224500Y-112722700D01*
X103887000Y-111897200D02*
X103887000Y-116088200D01*
X110237000Y-111897200D02*
X110237000Y-116088200D01*
X116587000Y-111897200D02*
X116587000Y-116088200D01*
X122937000Y-111897200D02*
X122937000Y-116088200D01*
X129287000Y-111897200D02*
X129287000Y-116088200D01*
X135637000Y-111897200D02*
X135637000Y-116088200D01*
X107062000Y-110627200D02*
X107062000Y-116088200D01*
X119762000Y-110627200D02*
X119762000Y-116088200D01*
X132462000Y-110627200D02*
X132462000Y-116088200D01*
X113412000Y-109420700D02*
X113412000Y-116088200D01*
X138812000Y-109420700D02*
X138812000Y-115403200D01*
X101220000Y-110977400D02*
X101220000Y-116108200D01*
X75820000Y-110977400D02*
X75820000Y-116108200D01*
X50420000Y-110977400D02*
X50420000Y-115423200D01*
X135510000Y-112755400D02*
X135510000Y-116108200D01*
X132970000Y-112755400D02*
X132970000Y-116108200D01*
X130430000Y-112755400D02*
X130430000Y-116108200D01*
X127890000Y-112755400D02*
X127890000Y-116108200D01*
X134240000Y-111891800D02*
X134240000Y-116108200D01*
X131700000Y-111891800D02*
X131700000Y-116108200D01*
X129160000Y-111891800D02*
X129160000Y-116108200D01*
X125350000Y-112755400D02*
X125350000Y-116108200D01*
X124080000Y-111891800D02*
X124080000Y-116108200D01*
X122810000Y-112755400D02*
X122810000Y-116108200D01*
X120270000Y-112755400D02*
X120270000Y-116108200D01*
X117730000Y-112755400D02*
X117730000Y-116108200D01*
X115190000Y-112755400D02*
X115190000Y-116108200D01*
X121540000Y-111891800D02*
X121540000Y-116108200D01*
X119000000Y-111891800D02*
X119000000Y-116108200D01*
X116460000Y-111891800D02*
X116460000Y-116108200D01*
X112650000Y-112755400D02*
X112650000Y-116108200D01*
X111380000Y-111891800D02*
X111380000Y-116108200D01*
X110110000Y-112755400D02*
X110110000Y-116108200D01*
X107570000Y-112755400D02*
X107570000Y-116108200D01*
X105030000Y-112755400D02*
X105030000Y-116108200D01*
X102490000Y-112755400D02*
X102490000Y-116108200D01*
X108840000Y-111891800D02*
X108840000Y-116108200D01*
X106300000Y-111891800D02*
X106300000Y-116108200D01*
X103760000Y-111891800D02*
X103760000Y-116108200D01*
X99950000Y-112755400D02*
X99950000Y-116108200D01*
X98680000Y-111891800D02*
X98680000Y-116108200D01*
X97410000Y-112755400D02*
X97410000Y-116108200D01*
X94870000Y-112755400D02*
X94870000Y-116108200D01*
X92330000Y-112755400D02*
X92330000Y-116108200D01*
X89790000Y-112755400D02*
X89790000Y-116108200D01*
X96140000Y-111891800D02*
X96140000Y-116108200D01*
X93600000Y-111891800D02*
X93600000Y-116108200D01*
X91060000Y-111891800D02*
X91060000Y-116108200D01*
X85980000Y-111891800D02*
X85980000Y-116108200D01*
X83440000Y-111891800D02*
X83440000Y-116108200D01*
X80900000Y-111891800D02*
X80900000Y-116108200D01*
X78360000Y-111891800D02*
X78360000Y-116108200D01*
X73280000Y-111891800D02*
X73280000Y-116108200D01*
X70740000Y-111891800D02*
X70740000Y-116108200D01*
X68200000Y-111891800D02*
X68200000Y-116108200D01*
X65660000Y-111891800D02*
X65660000Y-116108200D01*
X60580000Y-111891800D02*
X60580000Y-116108200D01*
X58040000Y-111891800D02*
X58040000Y-116108200D01*
X55500000Y-111891800D02*
X55500000Y-116108200D01*
X52960000Y-111891800D02*
X52960000Y-116108200D01*
X113920000Y-108894600D02*
X113920000Y-116108200D01*
X88520000Y-108894600D02*
X88520000Y-116108200D01*
X63120000Y-108894600D02*
X63120000Y-116108200D01*
X205226280Y-140787400D02*
X205226280Y-140588700D01*
X203638780Y-140008900D02*
X203567660Y-139988580D01*
X203425420Y-139970800D02*
X202526260Y-139970800D01*
X204024860Y-138972580D02*
X204624300Y-139572020D01*
X203567660Y-139988580D02*
X203496540Y-139975880D01*
X203956280Y-140290840D02*
X203918180Y-140229880D01*
X204624300Y-140588700D02*
X204624300Y-140787400D01*
X204024860Y-140570240D02*
X204019780Y-140499120D01*
X204024860Y-140787400D02*
X204024860Y-140588700D01*
X204068040Y-141275080D02*
X204045180Y-141112520D01*
X204200120Y-141744980D02*
X204146780Y-141590040D01*
X203821660Y-140120660D02*
X203765780Y-140077480D01*
X203986760Y-140356880D02*
X203956280Y-140290840D01*
X204103600Y-141432560D02*
X204068040Y-141275080D01*
X203918180Y-140229880D02*
X203875000Y-140174000D01*
X204019780Y-140499120D02*
X204007080Y-140428000D01*
X203496540Y-139975880D02*
X203425420Y-139970800D01*
X204029940Y-140949960D02*
X204024860Y-140787400D01*
X204045180Y-141112520D02*
X204029940Y-140949960D01*
X203704820Y-140039380D02*
X203638780Y-140008900D01*
X204146780Y-141590040D02*
X204103600Y-141432560D01*
X205922240Y-143365500D02*
X205767300Y-143312160D01*
X205327880Y-143098800D02*
X205190720Y-143009900D01*
X204703040Y-142578100D02*
X204598900Y-142453640D01*
X206079720Y-143408680D02*
X205922240Y-143365500D01*
X205825720Y-140588700D02*
X205825720Y-140787400D01*
X205470120Y-143177540D02*
X205327880Y-143098800D01*
X204007080Y-140428000D02*
X203986760Y-140356880D01*
X205190720Y-143009900D02*
X205058640Y-142913380D01*
X203765780Y-140077480D02*
X203704820Y-140039380D01*
X206237200Y-143444240D02*
X206079720Y-143408680D01*
X205767300Y-143312160D02*
X205617440Y-143248660D01*
X204598900Y-142453640D02*
X204502380Y-142321560D01*
X206724880Y-143487420D02*
X206562320Y-143482340D01*
X204934180Y-142809240D02*
X204814800Y-142697480D01*
X206425160Y-140787400D02*
X206425160Y-140588700D01*
X205617440Y-143248660D02*
X205470120Y-143177540D01*
X203875000Y-140174000D02*
X203821660Y-140120660D01*
X206562320Y-143482340D02*
X206399760Y-143467100D01*
X204263620Y-141894840D02*
X204200120Y-141744980D01*
X204814800Y-142697480D02*
X204703040Y-142578100D01*
X204334740Y-142042160D02*
X204263620Y-141894840D01*
X204413480Y-142184400D02*
X204334740Y-142042160D01*
X206399760Y-143467100D02*
X206237200Y-143444240D01*
X204502380Y-142321560D02*
X204413480Y-142184400D01*
X205058640Y-142913380D02*
X204934180Y-142809240D01*
X205264380Y-113135700D02*
X205297400Y-113021400D01*
X204263620Y-112378780D02*
X204334740Y-112231460D01*
X206044160Y-112147640D02*
X206150840Y-112099380D01*
X206079720Y-110864940D02*
X206237200Y-110829380D01*
X205513300Y-111769180D02*
X205399000Y-111855540D01*
X205767300Y-110961460D02*
X205922240Y-110908120D01*
X204703040Y-111695520D02*
X204814800Y-111576140D01*
X205228820Y-113369380D02*
X205241520Y-113252540D01*
X204024860Y-113486220D02*
X204029940Y-113323660D01*
X204068040Y-112998540D02*
X204103600Y-112841060D01*
X204814800Y-111576140D02*
X204934180Y-111464380D01*
X206150840Y-112099380D02*
X206260060Y-112058740D01*
X204334740Y-112231460D02*
X204413480Y-112089220D01*
X205940020Y-112206060D02*
X206044160Y-112147640D01*
X205058640Y-111360240D02*
X205190720Y-111263720D01*
X204629380Y-113343980D02*
X204624300Y-113486220D01*
X207024880Y-137369840D02*
X207624320Y-137971820D01*
X204502380Y-111952060D02*
X204598900Y-111819980D01*
X205749520Y-112345760D02*
X205843500Y-112272100D01*
X205292320Y-111952060D02*
X205190720Y-112053660D01*
X204746220Y-112782640D02*
X204703040Y-112919800D01*
X205470120Y-111096080D02*
X205617440Y-111024960D01*
X205510760Y-112604840D02*
X205584420Y-112510860D01*
X204029940Y-113323660D02*
X204045180Y-113161100D01*
X205007840Y-112274640D02*
X204929100Y-112394020D01*
X204413480Y-112089220D02*
X204502380Y-111952060D01*
X204103600Y-112841060D02*
X204146780Y-112683580D01*
X204045180Y-113161100D02*
X204068040Y-112998540D01*
X205190720Y-111263720D02*
X205327880Y-111174820D01*
X205444720Y-112701360D02*
X205510760Y-112604840D01*
X206237200Y-110829380D02*
X206399760Y-110806520D01*
X205922240Y-110908120D02*
X206079720Y-110864940D01*
X205094200Y-112160340D02*
X205007840Y-112274640D01*
X204934180Y-111464380D02*
X205058640Y-111360240D01*
X205386300Y-112805500D02*
X205444720Y-112701360D01*
X204598900Y-111819980D02*
X204703040Y-111695520D01*
X204146780Y-112683580D02*
X204200120Y-112528640D01*
X204644620Y-113199200D02*
X204629380Y-113343980D01*
X204860520Y-112521020D02*
X204797020Y-112650560D01*
X206399760Y-110806520D02*
X206562320Y-110791280D01*
X204200120Y-112528640D02*
X204263620Y-112378780D01*
X205327880Y-111174820D02*
X205470120Y-111096080D01*
X206562320Y-110791280D02*
X206724880Y-110786200D01*
X205617440Y-111024960D02*
X205767300Y-110961460D01*
X206674080Y-141082040D02*
X206623280Y-141069340D01*
X205399000Y-111855540D02*
X205292320Y-111952060D01*
X205297400Y-113021400D02*
X205338040Y-112912180D01*
X204667480Y-113059500D02*
X204644620Y-113199200D01*
X205843500Y-112272100D02*
X205940020Y-112206060D01*
X205584420Y-112510860D02*
X205663160Y-112424500D01*
X205998440Y-141315720D02*
X206056860Y-141389380D01*
X206491200Y-112002860D02*
X206608040Y-111990160D01*
X206582640Y-111390720D02*
X206437860Y-111405960D01*
X206298160Y-111428820D02*
X206158460Y-111464380D01*
X206021300Y-111507560D02*
X205889220Y-111558360D01*
X206531840Y-141016000D02*
X206496280Y-140980440D01*
X206575020Y-141046480D02*
X206531840Y-141016000D01*
X206374360Y-112025720D02*
X206491200Y-112002860D01*
X206158460Y-111464380D02*
X206021300Y-111507560D01*
X206437860Y-111405960D02*
X206298160Y-111428820D01*
X205264380Y-141137920D02*
X205241520Y-141021080D01*
X206623280Y-141069340D02*
X206575020Y-141046480D01*
X205759680Y-111621860D02*
X205632680Y-111690440D01*
X205241520Y-141021080D02*
X205228820Y-140904240D01*
X206536920Y-141666240D02*
X206630900Y-141681480D01*
X206630900Y-141681480D02*
X206724880Y-141686560D01*
X206724880Y-141087120D02*
X206674080Y-141082040D01*
X206275300Y-141567180D02*
X206359120Y-141607820D01*
X206448020Y-141643380D02*
X206536920Y-141666240D01*
X205228820Y-140904240D02*
X205223740Y-140787400D01*
X205945100Y-141236980D02*
X205998440Y-141315720D01*
X206465800Y-140937260D02*
X206442940Y-140889000D01*
X205846040Y-140975360D02*
X205868900Y-141064260D01*
X206260060Y-112058740D02*
X206374360Y-112025720D01*
X205889220Y-111558360D02*
X205759680Y-111621860D01*
X205904460Y-141153160D02*
X205945100Y-141236980D01*
X206056860Y-141389380D02*
X206122900Y-141455420D01*
X206359120Y-141607820D02*
X206448020Y-141643380D01*
X206196560Y-141513840D02*
X206275300Y-141567180D01*
X205338040Y-112912180D02*
X205386300Y-112805500D01*
X204929100Y-112394020D02*
X204860520Y-112521020D01*
X204797020Y-112650560D02*
X204746220Y-112782640D01*
X204703040Y-112919800D02*
X204667480Y-113059500D01*
X205241520Y-113252540D02*
X205264380Y-113135700D01*
X205223740Y-113486220D02*
X205228820Y-113369380D01*
X205632680Y-111690440D02*
X205513300Y-111769180D01*
X206608040Y-111990160D02*
X206724880Y-111985080D01*
X205190720Y-112053660D02*
X205094200Y-112160340D01*
X206122900Y-141455420D02*
X206196560Y-141513840D01*
X206496280Y-140980440D02*
X206465800Y-140937260D01*
X205663160Y-112424500D02*
X205749520Y-112345760D01*
X206724880Y-111385640D02*
X206582640Y-111390720D01*
X206582640Y-142882900D02*
X206724880Y-142887980D01*
X206442940Y-113384620D02*
X206465800Y-113336360D01*
X206425160Y-113486220D02*
X206430240Y-113435420D01*
X205510760Y-141668780D02*
X205444720Y-141572260D01*
X206623280Y-113204280D02*
X206674080Y-113191580D01*
X205945100Y-113036640D02*
X205904460Y-113120460D01*
X206122900Y-112818200D02*
X206056860Y-112884240D01*
X205632680Y-142583180D02*
X205759680Y-142651760D01*
X204644620Y-141074420D02*
X204667480Y-141214120D01*
X206196560Y-112759780D02*
X206122900Y-112818200D01*
X205889220Y-142715260D02*
X206021300Y-142766060D01*
X205749520Y-141927860D02*
X205663160Y-141849120D01*
X206374360Y-142247900D02*
X206260060Y-142214880D01*
X205297400Y-141252220D02*
X205264380Y-141137920D01*
X206044160Y-142125980D02*
X205940020Y-142067560D01*
X206496280Y-113293180D02*
X206531840Y-113257620D01*
X206608040Y-142283460D02*
X206491200Y-142270760D01*
X206260060Y-142214880D02*
X206150840Y-142174240D01*
X206056860Y-112884240D02*
X205998440Y-112957900D01*
X205386300Y-141468120D02*
X205338040Y-141361440D01*
X206158460Y-142809240D02*
X206298160Y-142844800D01*
X205444720Y-141572260D02*
X205386300Y-141468120D01*
X206575020Y-113227140D02*
X206623280Y-113204280D01*
X206674080Y-113191580D02*
X206724880Y-113186500D01*
X204797020Y-141623060D02*
X204860520Y-141752600D01*
X206465800Y-113336360D02*
X206496280Y-113293180D01*
X204860520Y-141752600D02*
X204929100Y-141879600D01*
X206437860Y-142867660D02*
X206582640Y-142882900D01*
X206150840Y-142174240D02*
X206044160Y-142125980D01*
X204929100Y-141879600D02*
X205007840Y-141998980D01*
X205007840Y-141998980D02*
X205094200Y-142113280D01*
X206630900Y-112592140D02*
X206536920Y-112607380D01*
X204629380Y-140929640D02*
X204644620Y-141074420D01*
X205940020Y-142067560D02*
X205843500Y-142001520D01*
X205292320Y-142321560D02*
X205399000Y-142418080D01*
X205868900Y-113209360D02*
X205846040Y-113298260D01*
X205759680Y-142651760D02*
X205889220Y-142715260D01*
X205584420Y-141762760D02*
X205510760Y-141668780D01*
X204667480Y-141214120D02*
X204703040Y-141353820D01*
X205663160Y-141849120D02*
X205584420Y-141762760D01*
X206275300Y-112706440D02*
X206196560Y-112759780D01*
X204703040Y-141353820D02*
X204746220Y-141490980D01*
X204624300Y-140787400D02*
X204629380Y-140929640D01*
X205825720Y-140787400D02*
X205830800Y-140881380D01*
X206531840Y-113257620D02*
X206575020Y-113227140D01*
X206724880Y-112587060D02*
X206630900Y-112592140D01*
X206430240Y-113435420D02*
X206442940Y-113384620D01*
X206724880Y-142288540D02*
X206608040Y-142283460D01*
X205190720Y-142219960D02*
X205292320Y-142321560D01*
X205399000Y-142418080D02*
X205513300Y-142504440D01*
X205846040Y-113298260D02*
X205830800Y-113392240D01*
X206536920Y-112607380D02*
X206448020Y-112630240D01*
X205843500Y-142001520D02*
X205749520Y-141927860D01*
X206442940Y-140889000D02*
X206430240Y-140838200D01*
X205094200Y-142113280D02*
X205190720Y-142219960D01*
X205830800Y-140881380D02*
X205846040Y-140975360D01*
X205868900Y-141064260D02*
X205904460Y-141153160D01*
X205830800Y-113392240D02*
X205825720Y-113486220D01*
X206430240Y-140838200D02*
X206425160Y-140787400D01*
X205338040Y-141361440D02*
X205297400Y-141252220D01*
X205998440Y-112957900D02*
X205945100Y-113036640D01*
X206491200Y-142270760D02*
X206374360Y-142247900D01*
X206359120Y-112665800D02*
X206275300Y-112706440D01*
X206448020Y-112630240D02*
X206359120Y-112665800D01*
X205904460Y-113120460D02*
X205868900Y-113209360D01*
X204746220Y-141490980D02*
X204797020Y-141623060D01*
X206298160Y-142844800D02*
X206437860Y-142867660D01*
X206021300Y-142766060D02*
X206158460Y-142809240D01*
X205513300Y-142504440D02*
X205632680Y-142583180D01*
X207024880Y-137369840D02*
X207024880Y-113786220D01*
X206425160Y-138970040D02*
X205825720Y-138370600D01*
X205226280Y-138571260D02*
X205825720Y-139170700D01*
X207024880Y-138769380D02*
X206425440Y-138169940D01*
X205226280Y-139371360D02*
X204629380Y-138769380D01*
X204024860Y-138972580D02*
X204624300Y-139572020D01*
X206425440Y-113486500D02*
X206425160Y-113486220D01*
X197634100Y-126086900D02*
X196249800Y-127471200D01*
X182494220Y-137971820D02*
X178850800Y-137971820D01*
X192935900Y-127459300D02*
X191461900Y-125985300D01*
X205226280Y-113488760D02*
X205223740Y-113486220D01*
X193367700Y-133833100D02*
X193367700Y-128017300D01*
X192935900Y-133629900D02*
X192935900Y-127459300D01*
X197634100Y-124562900D02*
X197634100Y-125934500D01*
X188515500Y-134646700D02*
X189150500Y-134011700D01*
X56262000Y-110637200D02*
X56262000Y-116098200D01*
X193824900Y-127559300D02*
X193913000Y-127471200D01*
X53087000Y-111907200D02*
X53087000Y-116098200D01*
X102299500Y-116088200D02*
X102299500Y-112722700D01*
X205226280Y-138571260D02*
X205226280Y-113488760D01*
X126620000Y-110977400D02*
X126620000Y-116108200D01*
X206425440Y-138169940D02*
X206425440Y-113486500D01*
X207026900Y-138771400D02*
X207024880Y-138769380D01*
X138050000Y-112755400D02*
X138050000Y-115953200D01*
X204629380Y-113343980D02*
X204629380Y-138764300D01*
X206425160Y-138970040D02*
X206425160Y-140588700D01*
X62612000Y-109430700D02*
X62612000Y-116098200D01*
X51499500Y-112732700D02*
X51499500Y-116073200D01*
X196249800Y-127471200D02*
X193913000Y-127471200D01*
X183349140Y-137971820D02*
X182494220Y-137971820D01*
X204629380Y-138764300D02*
X204624300Y-138769380D01*
X207026900Y-140487400D02*
X207026900Y-138771400D01*
X205825720Y-138370600D02*
X205825720Y-113486220D01*
X190826900Y-134468900D02*
X192731900Y-134468900D01*
X113874400Y-107843200D02*
X113874400Y-116098200D01*
X192554100Y-134011700D02*
X192935900Y-133629900D01*
X50705750Y-113812200D02*
X50705750Y-115703200D01*
X197634100Y-125934500D02*
X197634100Y-126086900D01*
X136780000Y-111891800D02*
X136780000Y-116108200D01*
X193367700Y-128017300D02*
X193824900Y-127560100D01*
X189150500Y-134011700D02*
X192554100Y-134011700D01*
X192731900Y-134468900D02*
X193367700Y-133833100D01*
X205825720Y-139170700D02*
X205825720Y-140588700D01*
X204024860Y-138970040D02*
X204024860Y-113486220D01*
X190293500Y-135002300D02*
X190826900Y-134468900D01*
X204624300Y-139572020D02*
X204624300Y-140588700D01*
X191461900Y-125985300D02*
X191461900Y-124740700D01*
X193824900Y-127560100D02*
X193824900Y-127559300D01*
X205226280Y-139371360D02*
X205226280Y-140588700D01*
M02*
