G04 #@! TF.GenerationSoftware,KiCad,Pcbnew,8.0.4*
G04 #@! TF.CreationDate,2025-04-27T23:41:42-04:00*
G04 #@! TF.ProjectId,HDW_BUSINESS_CARD,4844575f-4255-4534-994e-4553535f4341,rev?*
G04 #@! TF.SameCoordinates,Original*
G04 #@! TF.FileFunction,Copper,L2,Bot*
G04 #@! TF.FilePolarity,Positive*
%FSLAX46Y46*%
G04 Gerber Fmt 4.6, Leading zero omitted, Abs format (unit mm)*
G04 Created by KiCad (PCBNEW 8.0.4) date 2025-04-27 23:41:42*
%MOMM*%
%LPD*%
G01*
G04 APERTURE LIST*
G04 Aperture macros list*
%AMRoundRect*
0 Rectangle with rounded corners*
0 $1 Rounding radius*
0 $2 $3 $4 $5 $6 $7 $8 $9 X,Y pos of 4 corners*
0 Add a 4 corners polygon primitive as box body*
4,1,4,$2,$3,$4,$5,$6,$7,$8,$9,$2,$3,0*
0 Add four circle primitives for the rounded corners*
1,1,$1+$1,$2,$3*
1,1,$1+$1,$4,$5*
1,1,$1+$1,$6,$7*
1,1,$1+$1,$8,$9*
0 Add four rect primitives between the rounded corners*
20,1,$1+$1,$2,$3,$4,$5,0*
20,1,$1+$1,$4,$5,$6,$7,0*
20,1,$1+$1,$6,$7,$8,$9,0*
20,1,$1+$1,$8,$9,$2,$3,0*%
G04 Aperture macros list end*
G04 #@! TA.AperFunction,Conductor*
%ADD10C,0.300000*%
G04 #@! TD*
G04 #@! TA.AperFunction,EtchedComponent*
%ADD11C,0.000000*%
G04 #@! TD*
G04 #@! TA.AperFunction,ComponentPad*
%ADD12C,1.500000*%
G04 #@! TD*
G04 #@! TA.AperFunction,SMDPad,CuDef*
%ADD13RoundRect,0.100000X0.637500X0.100000X-0.637500X0.100000X-0.637500X-0.100000X0.637500X-0.100000X0*%
G04 #@! TD*
G04 #@! TA.AperFunction,SMDPad,CuDef*
%ADD14RoundRect,0.237500X-0.300000X-0.237500X0.300000X-0.237500X0.300000X0.237500X-0.300000X0.237500X0*%
G04 #@! TD*
G04 #@! TA.AperFunction,SMDPad,CuDef*
%ADD15RoundRect,0.140000X0.140000X0.170000X-0.140000X0.170000X-0.140000X-0.170000X0.140000X-0.170000X0*%
G04 #@! TD*
G04 #@! TA.AperFunction,SMDPad,CuDef*
%ADD16RoundRect,0.243750X-0.456250X0.243750X-0.456250X-0.243750X0.456250X-0.243750X0.456250X0.243750X0*%
G04 #@! TD*
G04 #@! TA.AperFunction,ViaPad*
%ADD17C,0.350000*%
G04 #@! TD*
G04 #@! TA.AperFunction,Conductor*
%ADD18C,0.250000*%
G04 #@! TD*
G04 APERTURE END LIST*
D10*
X59560001Y-62274614D02*
X59660004Y-79652857D01*
X60260001Y-62678759D02*
X60360001Y-79364183D01*
X63060000Y-64295340D02*
X63160004Y-77747601D01*
X74760000Y-52575130D02*
X58860003Y-61870469D01*
X90960000Y-80403413D02*
X90860004Y-61754999D01*
X89460003Y-62563288D02*
X74760001Y-54191712D01*
X74760000Y-55000000D02*
X60960000Y-63082905D01*
X58960000Y-80057003D02*
X74759999Y-89063666D01*
X88160000Y-78786831D02*
X88060001Y-63371580D01*
X61760003Y-78555891D02*
X74760001Y-85830506D01*
X62360004Y-63891195D02*
X62460000Y-78151747D01*
X88760000Y-62967435D02*
X74760000Y-55000000D01*
X62460000Y-78151747D02*
X74760000Y-85022214D01*
X86660001Y-64179871D02*
X74760000Y-57424872D01*
X74760001Y-88255376D02*
X89560002Y-79595122D01*
X90860004Y-61754999D02*
X74760000Y-52575130D01*
X74759999Y-89063666D02*
X90260003Y-79999269D01*
X63160004Y-77747601D02*
X73570000Y-83630000D01*
X74760000Y-56616583D02*
X62360004Y-63891195D01*
X58860003Y-61870469D02*
X58960000Y-80057003D01*
X60360001Y-79364183D02*
X74760000Y-87447086D01*
X70900000Y-89200000D02*
X72800000Y-90300000D01*
X74760001Y-55808292D02*
X61660000Y-63487049D01*
X89560002Y-79595122D02*
X89460003Y-62563288D01*
X87460003Y-78382687D02*
X87360003Y-63775725D01*
X87360003Y-63775725D02*
X74760000Y-56616583D01*
X88060001Y-63371580D02*
X74760001Y-55808292D01*
X88860002Y-79190976D02*
X88760000Y-62967435D01*
X74760000Y-53383420D02*
X59560001Y-62274614D01*
X74760000Y-85022214D02*
X86760003Y-77978541D01*
X61060004Y-78960037D02*
X74760000Y-86638797D01*
X80910002Y-86321470D02*
X90960000Y-80403413D01*
X90160000Y-62159147D02*
X74760000Y-53383420D01*
X74760001Y-85830506D02*
X87460003Y-78382687D01*
X74760000Y-87447086D02*
X88860002Y-79190976D01*
X59660004Y-79652857D02*
X74760001Y-88255376D01*
X61660000Y-63487049D02*
X61760003Y-78555891D01*
X86760003Y-77978541D02*
X86660001Y-64179871D01*
X90260003Y-79999269D02*
X90160000Y-62159147D01*
X60960000Y-63082905D02*
X61060004Y-78960037D01*
X74760000Y-86638797D02*
X88160000Y-78786831D01*
X74760001Y-54191712D02*
X60260001Y-62678759D01*
X74760000Y-57424872D02*
X63060000Y-64295340D01*
D11*
G04 #@! TA.AperFunction,EtchedComponent*
G36*
X68741232Y-66426022D02*
G01*
X69020194Y-66532111D01*
X69273475Y-66736443D01*
X69282087Y-66745481D01*
X69445187Y-66989004D01*
X69532287Y-67276474D01*
X69539070Y-67576829D01*
X69461217Y-67859009D01*
X69442200Y-67897420D01*
X69354147Y-68063314D01*
X69248640Y-68261184D01*
X69197183Y-68357366D01*
X69139793Y-68469866D01*
X69101290Y-68569812D01*
X69078554Y-68680888D01*
X69068467Y-68826778D01*
X69067910Y-69031166D01*
X69073295Y-69298107D01*
X69081162Y-69579386D01*
X69092019Y-69779685D01*
X69110226Y-69922543D01*
X69140144Y-70031498D01*
X69186133Y-70130089D01*
X69246214Y-70231595D01*
X69382807Y-70456447D01*
X69472644Y-70619584D01*
X69525425Y-70747258D01*
X69550853Y-70865722D01*
X69558631Y-71001229D01*
X69558949Y-71077826D01*
X69552403Y-71246638D01*
X69525958Y-71384953D01*
X69467836Y-71528046D01*
X69366260Y-71711190D01*
X69323764Y-71782179D01*
X69089424Y-72170188D01*
X69089424Y-72883736D01*
X69089424Y-73597284D01*
X69278231Y-73877942D01*
X69401930Y-74074192D01*
X69519564Y-74280891D01*
X69580064Y-74399945D01*
X69640019Y-74521711D01*
X69700723Y-74618655D01*
X69778300Y-74704338D01*
X69888871Y-74792321D01*
X70048561Y-74896164D01*
X70273492Y-75029428D01*
X70448272Y-75130184D01*
X70688064Y-75266639D01*
X70864999Y-75360087D01*
X71006704Y-75419849D01*
X71140806Y-75455248D01*
X71294933Y-75475605D01*
X71496711Y-75490242D01*
X71519671Y-75491693D01*
X71777159Y-75512800D01*
X71958823Y-75542019D01*
X72093353Y-75585896D01*
X72205142Y-75648120D01*
X72449671Y-75864819D01*
X72610688Y-76123647D01*
X72688811Y-76406739D01*
X72684655Y-76696230D01*
X72598836Y-76974254D01*
X72431969Y-77222948D01*
X72184670Y-77424446D01*
X72143101Y-77448179D01*
X71858333Y-77552965D01*
X71555154Y-77579308D01*
X71270932Y-77524789D01*
X71227551Y-77507463D01*
X71008699Y-77365792D01*
X70807443Y-77152292D01*
X70651895Y-76899127D01*
X70612053Y-76803228D01*
X70539715Y-76639542D01*
X70464510Y-76530360D01*
X71101564Y-76530360D01*
X71144944Y-76758589D01*
X71260729Y-76934210D01*
X71427391Y-77048803D01*
X71623401Y-77093948D01*
X71827230Y-77061224D01*
X72017348Y-76942211D01*
X72055371Y-76903418D01*
X72177873Y-76699338D01*
X72200908Y-76480567D01*
X72124673Y-76263921D01*
X72046592Y-76158499D01*
X71931600Y-76048714D01*
X71815552Y-75999217D01*
X71650330Y-75987819D01*
X71482966Y-75999651D01*
X71367342Y-76049941D01*
X71254067Y-76158499D01*
X71139667Y-76326450D01*
X71101924Y-76506601D01*
X71101564Y-76530360D01*
X70464510Y-76530360D01*
X70440582Y-76495622D01*
X70299154Y-76357342D01*
X70099931Y-76210577D01*
X69827412Y-76041200D01*
X69685512Y-75958860D01*
X69194954Y-75678135D01*
X68724082Y-75675008D01*
X68391931Y-75657696D01*
X68137305Y-75604776D01*
X67936637Y-75507223D01*
X67766362Y-75356015D01*
X67707075Y-75285584D01*
X67538731Y-75009442D01*
X67468790Y-74725317D01*
X67477152Y-74637682D01*
X67973569Y-74637682D01*
X68021037Y-74865752D01*
X68046893Y-74921711D01*
X68180670Y-75077608D01*
X68367050Y-75164847D01*
X68576921Y-75179946D01*
X68781171Y-75119425D01*
X68910523Y-75024967D01*
X69034075Y-74838257D01*
X69070773Y-74633351D01*
X69030063Y-74432696D01*
X68921393Y-74258741D01*
X68754207Y-74133935D01*
X68537954Y-74080725D01*
X68512961Y-74080206D01*
X68291456Y-74125309D01*
X68120145Y-74246938D01*
X68010394Y-74424570D01*
X67973569Y-74637682D01*
X67477152Y-74637682D01*
X67497370Y-74425792D01*
X67624590Y-74103448D01*
X67728882Y-73925720D01*
X67826074Y-73765196D01*
X67894015Y-73619226D01*
X67937004Y-73464469D01*
X67959340Y-73277583D01*
X67965320Y-73035230D01*
X67959243Y-72714069D01*
X67958243Y-72680229D01*
X67939630Y-72061331D01*
X67730577Y-71757826D01*
X67619392Y-71588351D01*
X67556679Y-71456785D01*
X67528678Y-71318632D01*
X67521629Y-71129396D01*
X67521523Y-71081770D01*
X67522220Y-71049770D01*
X67974218Y-71049770D01*
X67981981Y-71115718D01*
X68055208Y-71333587D01*
X68195110Y-71498431D01*
X68378943Y-71599929D01*
X68583966Y-71627761D01*
X68787437Y-71571609D01*
X68869539Y-71518483D01*
X69020888Y-71344063D01*
X69086428Y-71144865D01*
X69073656Y-70942688D01*
X68990067Y-70759332D01*
X68843157Y-70616597D01*
X68640421Y-70536281D01*
X68528384Y-70526296D01*
X68376193Y-70543549D01*
X68249254Y-70609733D01*
X68136772Y-70710677D01*
X68025969Y-70831865D01*
X67977494Y-70929956D01*
X67974218Y-71049770D01*
X67522220Y-71049770D01*
X67525759Y-70887307D01*
X67546420Y-70742484D01*
X67595441Y-70608148D01*
X67684755Y-70445150D01*
X67746585Y-70343374D01*
X67971647Y-69977531D01*
X67955639Y-69243153D01*
X67939630Y-68508775D01*
X67715865Y-68165584D01*
X67545630Y-67862678D01*
X67460482Y-67594969D01*
X67459115Y-67467452D01*
X67967501Y-67467452D01*
X68012567Y-67692403D01*
X68129436Y-67862351D01*
X68296806Y-67969804D01*
X68493375Y-68007273D01*
X68697842Y-67967267D01*
X68888904Y-67842294D01*
X68925521Y-67804340D01*
X69021465Y-67678697D01*
X69056400Y-67560478D01*
X69049295Y-67407017D01*
X68989613Y-67176669D01*
X68863403Y-67020692D01*
X68657722Y-66923710D01*
X68637741Y-66918119D01*
X68408682Y-66903217D01*
X68210887Y-66977646D01*
X68061773Y-67127131D01*
X67978755Y-67337396D01*
X67967501Y-67467452D01*
X67459115Y-67467452D01*
X67457758Y-67340858D01*
X67534796Y-67078745D01*
X67571878Y-66997740D01*
X67746635Y-66725068D01*
X67966761Y-66542050D01*
X68247024Y-66438528D01*
X68422336Y-66412657D01*
X68741232Y-66426022D01*
G37*
G04 #@! TD.AperFunction*
G04 #@! TA.AperFunction,EtchedComponent*
G36*
X81265418Y-66494839D02*
G01*
X81522505Y-66616319D01*
X81747977Y-66793196D01*
X81907809Y-67004184D01*
X81913149Y-67014612D01*
X82013453Y-67259034D01*
X82050561Y-67484702D01*
X82021627Y-67714741D01*
X81923808Y-67972278D01*
X81758261Y-68273811D01*
X81554239Y-68612083D01*
X81555387Y-69294807D01*
X81558621Y-69603230D01*
X81572065Y-69835527D01*
X81603130Y-70020061D01*
X81659225Y-70185193D01*
X81747760Y-70359287D01*
X81876144Y-70570707D01*
X81897588Y-70604691D01*
X81971632Y-70738213D01*
X82007786Y-70864124D01*
X82014740Y-71025342D01*
X82008726Y-71153457D01*
X81988121Y-71352982D01*
X81944895Y-71513295D01*
X81863433Y-71678686D01*
X81770953Y-71827917D01*
X81554239Y-72162666D01*
X81554239Y-72904653D01*
X81555221Y-73199622D01*
X81560040Y-73410231D01*
X81571508Y-73556643D01*
X81592436Y-73659021D01*
X81625636Y-73737528D01*
X81673918Y-73812325D01*
X81682458Y-73824226D01*
X81861216Y-74080654D01*
X81982132Y-74280460D01*
X82055361Y-74446405D01*
X82091058Y-74601251D01*
X82099456Y-74758898D01*
X82053469Y-75087404D01*
X81919007Y-75361609D01*
X81801932Y-75495265D01*
X81667782Y-75614103D01*
X81542603Y-75695573D01*
X81400242Y-75748280D01*
X81214551Y-75780832D01*
X80959377Y-75801836D01*
X80852109Y-75807877D01*
X80273786Y-75838466D01*
X79803416Y-76113466D01*
X79537217Y-76272996D01*
X79343995Y-76402481D01*
X79204235Y-76520563D01*
X79098421Y-76645888D01*
X79007037Y-76797099D01*
X78933412Y-76944606D01*
X78754664Y-77237852D01*
X78538649Y-77436901D01*
X78275187Y-77548514D01*
X77977032Y-77579759D01*
X77756613Y-77563122D01*
X77569324Y-77521795D01*
X77503828Y-77495009D01*
X77229039Y-77297943D01*
X77035006Y-77047665D01*
X76927303Y-76760037D01*
X76921206Y-76640744D01*
X77411284Y-76640744D01*
X77476076Y-76830668D01*
X77603806Y-76977286D01*
X77774998Y-77070612D01*
X77970178Y-77100658D01*
X78169868Y-77057437D01*
X78354593Y-76930963D01*
X78379239Y-76904830D01*
X78494488Y-76714339D01*
X78521511Y-76520162D01*
X78475020Y-76336748D01*
X78369731Y-76178549D01*
X78220358Y-76060014D01*
X78041615Y-75995594D01*
X77848217Y-75999738D01*
X77654878Y-76086897D01*
X77595209Y-76134876D01*
X77497600Y-76262198D01*
X77428906Y-76417502D01*
X77411284Y-76640744D01*
X76921206Y-76640744D01*
X76911504Y-76450920D01*
X76993181Y-76136177D01*
X77011753Y-76094602D01*
X77170091Y-75845422D01*
X77382476Y-75667500D01*
X77658843Y-75556050D01*
X78009127Y-75506283D01*
X78238295Y-75503501D01*
X78435375Y-75506045D01*
X78579661Y-75496469D01*
X78704291Y-75465362D01*
X78842401Y-75403312D01*
X79027129Y-75300907D01*
X79100640Y-75258573D01*
X79380431Y-75094143D01*
X79588190Y-74960234D01*
X79743868Y-74837715D01*
X79809168Y-74768866D01*
X80508972Y-74768866D01*
X80525632Y-74921950D01*
X80590094Y-75048086D01*
X80693353Y-75163517D01*
X80814540Y-75274319D01*
X80912631Y-75322794D01*
X81032445Y-75326070D01*
X81098394Y-75318307D01*
X81310096Y-75253491D01*
X81462778Y-75127875D01*
X81583408Y-74925110D01*
X81609512Y-74710279D01*
X81545536Y-74504937D01*
X81395926Y-74330640D01*
X81283401Y-74258203D01*
X81073620Y-74201118D01*
X80870300Y-74233604D01*
X80694555Y-74341738D01*
X80567498Y-74511598D01*
X80510245Y-74729260D01*
X80508972Y-74768866D01*
X79809168Y-74768866D01*
X79867414Y-74707454D01*
X79978778Y-74550318D01*
X80097909Y-74347176D01*
X80150662Y-74251569D01*
X80430441Y-73740494D01*
X80430509Y-72982675D01*
X80430277Y-72683517D01*
X80424870Y-72462807D01*
X80407313Y-72294480D01*
X80370632Y-72152472D01*
X80307851Y-72010718D01*
X80211997Y-71843155D01*
X80076094Y-71623718D01*
X80059894Y-71597695D01*
X79983469Y-71453801D01*
X79948282Y-71313455D01*
X79944509Y-71141243D01*
X80418384Y-71141243D01*
X80478872Y-71354836D01*
X80628848Y-71542134D01*
X80831137Y-71647355D01*
X81064447Y-71662639D01*
X81211101Y-71625130D01*
X81328531Y-71546726D01*
X81439897Y-71421715D01*
X81452187Y-71403010D01*
X81530552Y-71190769D01*
X81519720Y-70974897D01*
X81429559Y-70781087D01*
X81269937Y-70635035D01*
X81135530Y-70578397D01*
X80907591Y-70562243D01*
X80706423Y-70628759D01*
X80547510Y-70759637D01*
X80446336Y-70936568D01*
X80418384Y-71141243D01*
X79944509Y-71141243D01*
X79944252Y-71129493D01*
X79947017Y-71069566D01*
X79964596Y-70888710D01*
X80004339Y-70738785D01*
X80080545Y-70581125D01*
X80197386Y-70392576D01*
X80430577Y-70034662D01*
X80430577Y-69293832D01*
X80390000Y-68570000D01*
X80237809Y-68272263D01*
X80081338Y-68026049D01*
X79986737Y-67824953D01*
X79942461Y-67639689D01*
X79935266Y-67505503D01*
X80456708Y-67505503D01*
X80494279Y-67744525D01*
X80600588Y-67924739D01*
X80736683Y-68018094D01*
X80974723Y-68064134D01*
X81210523Y-68022714D01*
X81293471Y-67982885D01*
X81451181Y-67837221D01*
X81535953Y-67647914D01*
X81548022Y-67442238D01*
X81487626Y-67247467D01*
X81355001Y-67090875D01*
X81285343Y-67046862D01*
X81052740Y-66973939D01*
X80834497Y-66989431D01*
X80649854Y-67082689D01*
X80518049Y-67243065D01*
X80458321Y-67459909D01*
X80456708Y-67505503D01*
X79935266Y-67505503D01*
X79935222Y-67504684D01*
X79986130Y-67216623D01*
X80123089Y-66950302D01*
X80327686Y-66723776D01*
X80581510Y-66555099D01*
X80866150Y-66462324D01*
X81010741Y-66450044D01*
X81265418Y-66494839D01*
G37*
G04 #@! TD.AperFunction*
G04 #@! TA.AperFunction,EtchedComponent*
G36*
X78013768Y-64653459D02*
G01*
X78284051Y-64729580D01*
X78529436Y-64884702D01*
X78718893Y-65101187D01*
X78797832Y-65236301D01*
X78841580Y-65366843D01*
X78859848Y-65532906D01*
X78862675Y-65694825D01*
X78858325Y-65900243D01*
X78836277Y-66045086D01*
X78783039Y-66173226D01*
X78685118Y-66328529D01*
X78653622Y-66374496D01*
X78444568Y-66677799D01*
X78427906Y-67441327D01*
X78411243Y-68204856D01*
X78596903Y-68464033D01*
X78765778Y-68717236D01*
X78870936Y-68926073D01*
X78922917Y-69119746D01*
X78932257Y-69327455D01*
X78929175Y-69384841D01*
X78864928Y-69703499D01*
X78717236Y-69960935D01*
X78481576Y-70163876D01*
X78359421Y-70232424D01*
X78080339Y-70339379D01*
X77825682Y-70359029D01*
X77562504Y-70291442D01*
X77436051Y-70234350D01*
X77158405Y-70046575D01*
X76969474Y-69809078D01*
X76870971Y-69530071D01*
X76865912Y-69281787D01*
X77333340Y-69281787D01*
X77359286Y-69474793D01*
X77454746Y-69639110D01*
X77602252Y-69762384D01*
X77784336Y-69832265D01*
X77983529Y-69836398D01*
X78182364Y-69762433D01*
X78273888Y-69694369D01*
X78383673Y-69579377D01*
X78433170Y-69463329D01*
X78444568Y-69298107D01*
X78432736Y-69130743D01*
X78382446Y-69015119D01*
X78273888Y-68901844D01*
X78065965Y-68775788D01*
X77848590Y-68745960D01*
X77642137Y-68808410D01*
X77466980Y-68959185D01*
X77394377Y-69072443D01*
X77333340Y-69281787D01*
X76865912Y-69281787D01*
X76864608Y-69217767D01*
X76952099Y-68880379D01*
X77093751Y-68592984D01*
X77294774Y-68255440D01*
X77294774Y-67522453D01*
X77294041Y-67231223D01*
X77289526Y-67022670D01*
X77277759Y-66874944D01*
X77255270Y-66766195D01*
X77218586Y-66674574D01*
X77164238Y-66578231D01*
X77137984Y-66535435D01*
X76988713Y-66287484D01*
X76889485Y-66101439D01*
X76831600Y-65952750D01*
X76806354Y-65816867D01*
X76805104Y-65676051D01*
X77285028Y-65676051D01*
X77317514Y-65879371D01*
X77425648Y-66055116D01*
X77595508Y-66182173D01*
X77813170Y-66239426D01*
X77852776Y-66240699D01*
X78005860Y-66224039D01*
X78131996Y-66159577D01*
X78247427Y-66056318D01*
X78358229Y-65935131D01*
X78390000Y-65837040D01*
X78409981Y-65717226D01*
X78402218Y-65651277D01*
X78328606Y-65424291D01*
X78191348Y-65261298D01*
X78012131Y-65166083D01*
X77812639Y-65142430D01*
X77614559Y-65194123D01*
X77439575Y-65324948D01*
X77342114Y-65466270D01*
X77285028Y-65676051D01*
X76805104Y-65676051D01*
X76805044Y-65669239D01*
X76808867Y-65606958D01*
X76876168Y-65302374D01*
X77019247Y-65050133D01*
X77221327Y-64854677D01*
X77465626Y-64720451D01*
X77735366Y-64651897D01*
X78013768Y-64653459D01*
G37*
G04 #@! TD.AperFunction*
G04 #@! TA.AperFunction,EtchedComponent*
G36*
X75003385Y-62826566D02*
G01*
X75278689Y-62936729D01*
X75518626Y-63128298D01*
X75688189Y-63366214D01*
X75788469Y-63659025D01*
X75788847Y-63969553D01*
X75690290Y-64288100D01*
X75576191Y-64491017D01*
X75444801Y-64714970D01*
X75356568Y-64938087D01*
X75305672Y-65187181D01*
X75286290Y-65489064D01*
X75290276Y-65808048D01*
X75301376Y-66065769D01*
X75317787Y-66247133D01*
X75345562Y-66380308D01*
X75390756Y-66493463D01*
X75459424Y-66614764D01*
X75465964Y-66625423D01*
X75611773Y-66868274D01*
X75708522Y-67049106D01*
X75765928Y-67192334D01*
X75793708Y-67322375D01*
X75801577Y-67463646D01*
X75801610Y-67468889D01*
X75756791Y-67786663D01*
X75629110Y-68062568D01*
X75433965Y-68285361D01*
X75186759Y-68443801D01*
X74902892Y-68526645D01*
X74597763Y-68522651D01*
X74420289Y-68477229D01*
X74134801Y-68325818D01*
X73916968Y-68103060D01*
X73776844Y-67824835D01*
X73724487Y-67507022D01*
X73726492Y-67454085D01*
X74200595Y-67454085D01*
X74232821Y-67656988D01*
X74341650Y-67831744D01*
X74513479Y-67958167D01*
X74734706Y-68016065D01*
X74780364Y-68017654D01*
X74952230Y-67999014D01*
X75082808Y-67926330D01*
X75155264Y-67857432D01*
X75260285Y-67721468D01*
X75303415Y-67574798D01*
X75308766Y-67461170D01*
X75295560Y-67294720D01*
X75240241Y-67177527D01*
X75138085Y-67072626D01*
X74930162Y-66946570D01*
X74712787Y-66916742D01*
X74506335Y-66979192D01*
X74331178Y-67129967D01*
X74258575Y-67243225D01*
X74200595Y-67454085D01*
X73726492Y-67454085D01*
X73729081Y-67385740D01*
X73765542Y-67172518D01*
X73844045Y-66976824D01*
X73957329Y-66788644D01*
X74158972Y-66484948D01*
X74158972Y-65663626D01*
X74158972Y-64842304D01*
X73949918Y-64538767D01*
X73843123Y-64377203D01*
X73780692Y-64251783D01*
X73750763Y-64122390D01*
X73741475Y-63948903D01*
X73741183Y-63892836D01*
X74198756Y-63892836D01*
X74203476Y-63929551D01*
X74285090Y-64153580D01*
X74433779Y-64311495D01*
X74628987Y-64394164D01*
X74850159Y-64392454D01*
X75057859Y-64309143D01*
X75189577Y-64180759D01*
X75281903Y-64001359D01*
X75318148Y-63812773D01*
X75301485Y-63698457D01*
X75189709Y-63517511D01*
X75012062Y-63370579D01*
X74887455Y-63312893D01*
X74675036Y-63291350D01*
X74480138Y-63356441D01*
X74322579Y-63490297D01*
X74222179Y-63675052D01*
X74198756Y-63892836D01*
X73741183Y-63892836D01*
X73740865Y-63831705D01*
X73744437Y-63619643D01*
X73761234Y-63477542D01*
X73800375Y-63370917D01*
X73870979Y-63265282D01*
X73900684Y-63227341D01*
X74141363Y-62998197D01*
X74417112Y-62855932D01*
X74710323Y-62799178D01*
X75003385Y-62826566D01*
G37*
G04 #@! TD.AperFunction*
G04 #@! TA.AperFunction,EtchedComponent*
G36*
X74979632Y-70010738D02*
G01*
X75232855Y-70097051D01*
X75456761Y-70242891D01*
X75635964Y-70444482D01*
X75755080Y-70698047D01*
X75798725Y-70999810D01*
X75795430Y-71091038D01*
X75767491Y-71286143D01*
X75705530Y-71469973D01*
X75594886Y-71682641D01*
X75554173Y-71751186D01*
X75334898Y-72113730D01*
X75334898Y-72864378D01*
X75336593Y-73179628D01*
X75345300Y-73414037D01*
X75366450Y-73591279D01*
X75405473Y-73735029D01*
X75467800Y-73868960D01*
X75558863Y-74016747D01*
X75620236Y-74108199D01*
X75754606Y-74391788D01*
X75795936Y-74691171D01*
X75749553Y-74986792D01*
X75620787Y-75259096D01*
X75414965Y-75488528D01*
X75207335Y-75623666D01*
X74913949Y-75728429D01*
X74626680Y-75738274D01*
X74368025Y-75674736D01*
X74137264Y-75545210D01*
X73931589Y-75341282D01*
X73776971Y-75093071D01*
X73714942Y-74917293D01*
X73684461Y-74718833D01*
X73689753Y-74652472D01*
X74185103Y-74652472D01*
X74217060Y-74845339D01*
X74299180Y-75028474D01*
X74410843Y-75158593D01*
X74433353Y-75173550D01*
X74608646Y-75226131D01*
X74818588Y-75222354D01*
X75013142Y-75166809D01*
X75099534Y-75112407D01*
X75236210Y-74931820D01*
X75291597Y-74714645D01*
X75259122Y-74494509D01*
X75232047Y-74434383D01*
X75083118Y-74249047D01*
X74878262Y-74151184D01*
X74715577Y-74133239D01*
X74537467Y-74178239D01*
X74370136Y-74295507D01*
X74243100Y-74456152D01*
X74185878Y-74631281D01*
X74185103Y-74652472D01*
X73689753Y-74652472D01*
X73699427Y-74531162D01*
X73766809Y-74329543D01*
X73893578Y-74089242D01*
X73993876Y-73927357D01*
X74091041Y-73771847D01*
X74154381Y-73648962D01*
X74192238Y-73527677D01*
X74212954Y-73376964D01*
X74224871Y-73165795D01*
X74229247Y-73051911D01*
X74236270Y-72690995D01*
X74224463Y-72411377D01*
X74189929Y-72190902D01*
X74128773Y-72007414D01*
X74037095Y-71838755D01*
X74008210Y-71795229D01*
X73819802Y-71465127D01*
X73727491Y-71160087D01*
X73727784Y-71115419D01*
X74223064Y-71115419D01*
X74298323Y-71321400D01*
X74453693Y-71479611D01*
X74668862Y-71569065D01*
X74905292Y-71573600D01*
X75107014Y-71485454D01*
X75238036Y-71342616D01*
X75318722Y-71124126D01*
X75303621Y-70898784D01*
X75196644Y-70691139D01*
X75121584Y-70611804D01*
X74995941Y-70515861D01*
X74877721Y-70480925D01*
X74724261Y-70488030D01*
X74491948Y-70548804D01*
X74334804Y-70676309D01*
X74239918Y-70880924D01*
X74223064Y-71115419D01*
X73727784Y-71115419D01*
X73729404Y-70868731D01*
X73812203Y-70604243D01*
X73981249Y-70336279D01*
X74197899Y-70146722D01*
X74446769Y-70031797D01*
X74712475Y-69987728D01*
X74979632Y-70010738D01*
G37*
G04 #@! TD.AperFunction*
G04 #@! TA.AperFunction,EtchedComponent*
G36*
X72014705Y-64607377D02*
G01*
X72289193Y-64722551D01*
X72526505Y-64918964D01*
X72705093Y-65184253D01*
X72798806Y-65442351D01*
X72815339Y-65693732D01*
X72752189Y-65959504D01*
X72606849Y-66260773D01*
X72569894Y-66323508D01*
X72455765Y-66530083D01*
X72377132Y-66724224D01*
X72329233Y-66931416D01*
X72307304Y-67177148D01*
X72306581Y-67486904D01*
X72313550Y-67695084D01*
X72325525Y-67946103D01*
X72342305Y-68123810D01*
X72372074Y-68259361D01*
X72423017Y-68383916D01*
X72503317Y-68528634D01*
X72555280Y-68615383D01*
X72670103Y-68816455D01*
X72736528Y-68969994D01*
X72767002Y-69113456D01*
X72773992Y-69273521D01*
X72727507Y-69603473D01*
X72596934Y-69884809D01*
X72395595Y-70106819D01*
X72136814Y-70258792D01*
X71833913Y-70330019D01*
X71500216Y-70309790D01*
X71488035Y-70307271D01*
X71247571Y-70210353D01*
X71020547Y-70038506D01*
X70838680Y-69819720D01*
X70759097Y-69664010D01*
X70695177Y-69412326D01*
X70697229Y-69352943D01*
X71191168Y-69352943D01*
X71244874Y-69544676D01*
X71363345Y-69696147D01*
X71527640Y-69797084D01*
X71718815Y-69837216D01*
X71917929Y-69806272D01*
X72106040Y-69693981D01*
X72159898Y-69640221D01*
X72278965Y-69439151D01*
X72295595Y-69218672D01*
X72224686Y-69009612D01*
X72087806Y-68841474D01*
X71907944Y-68751170D01*
X71708575Y-68735857D01*
X71513173Y-68792689D01*
X71345214Y-68918823D01*
X71228173Y-69111412D01*
X71221169Y-69131217D01*
X71191168Y-69352943D01*
X70697229Y-69352943D01*
X70703848Y-69161422D01*
X70788870Y-68890131D01*
X70951323Y-68581713D01*
X71179959Y-68203306D01*
X71179959Y-67442757D01*
X71179959Y-66682207D01*
X70950374Y-66302230D01*
X70831811Y-66095726D01*
X70762044Y-65939630D01*
X70729045Y-65799345D01*
X70722186Y-65668433D01*
X71206091Y-65668433D01*
X71238938Y-65818456D01*
X71347904Y-65973008D01*
X71390424Y-66017378D01*
X71511351Y-66128113D01*
X71610803Y-66177292D01*
X71735766Y-66182349D01*
X71814385Y-66174702D01*
X71997799Y-66132699D01*
X72137522Y-66061857D01*
X72156410Y-66045295D01*
X72272840Y-65862233D01*
X72311618Y-65646513D01*
X72275248Y-65430071D01*
X72166232Y-65244841D01*
X72088282Y-65176006D01*
X71931356Y-65113666D01*
X71730701Y-65092715D01*
X71539680Y-65115829D01*
X71464513Y-65144718D01*
X71344436Y-65257931D01*
X71251916Y-65433942D01*
X71207425Y-65631261D01*
X71206091Y-65668433D01*
X70722186Y-65668433D01*
X70720788Y-65641751D01*
X70766016Y-65316314D01*
X70903728Y-65037748D01*
X71136966Y-64799974D01*
X71145196Y-64793618D01*
X71425006Y-64638478D01*
X71720743Y-64577875D01*
X72014705Y-64607377D01*
G37*
G04 #@! TD.AperFunction*
G04 #@! TA.AperFunction,EtchedComponent*
G36*
X78119932Y-61579874D02*
G01*
X78289040Y-61702810D01*
X78313093Y-61730749D01*
X78393668Y-61904928D01*
X78416845Y-62118655D01*
X78381216Y-62323680D01*
X78333211Y-62419365D01*
X78221664Y-62524074D01*
X78061191Y-62618493D01*
X77900148Y-62677009D01*
X77832152Y-62684744D01*
X77740228Y-62663558D01*
X77609984Y-62615120D01*
X77604223Y-62612629D01*
X77456829Y-62499646D01*
X77339310Y-62321482D01*
X77274608Y-62117253D01*
X77268642Y-62040484D01*
X77309648Y-61901611D01*
X77413374Y-61746339D01*
X77550881Y-61608516D01*
X77693230Y-61521988D01*
X77718707Y-61514072D01*
X77914387Y-61511335D01*
X78119932Y-61579874D01*
G37*
G04 #@! TD.AperFunction*
G04 #@! TA.AperFunction,EtchedComponent*
G36*
X74940556Y-77830863D02*
G01*
X75060760Y-77921067D01*
X75071232Y-77930372D01*
X75192601Y-78067746D01*
X75253247Y-78228629D01*
X75268279Y-78326889D01*
X75278295Y-78481949D01*
X75252736Y-78587804D01*
X75174291Y-78691900D01*
X75111577Y-78756366D01*
X74975173Y-78874821D01*
X74849838Y-78928925D01*
X74707737Y-78940699D01*
X74547640Y-78924608D01*
X74420661Y-78861310D01*
X74310535Y-78763004D01*
X74193195Y-78625041D01*
X74141713Y-78493745D01*
X74132840Y-78371853D01*
X74179236Y-78137348D01*
X74310167Y-77955212D01*
X74513246Y-77838674D01*
X74662748Y-77805945D01*
X74825706Y-77797917D01*
X74940556Y-77830863D01*
G37*
G04 #@! TD.AperFunction*
G04 #@! TA.AperFunction,EtchedComponent*
G36*
X84356846Y-65189715D02*
G01*
X84546810Y-65313946D01*
X84682975Y-65492749D01*
X84741447Y-65703012D01*
X84742110Y-65728536D01*
X84702895Y-65892193D01*
X84604768Y-66062694D01*
X84476291Y-66197273D01*
X84399167Y-66242002D01*
X84146446Y-66288498D01*
X83903743Y-66241123D01*
X83847633Y-66214406D01*
X83737620Y-66119997D01*
X83638714Y-65979928D01*
X83572453Y-65832231D01*
X83560378Y-65714938D01*
X83561824Y-65709768D01*
X83589319Y-65607004D01*
X83614190Y-65500263D01*
X83688460Y-65368056D01*
X83830335Y-65248326D01*
X84003612Y-65165802D01*
X84136975Y-65143168D01*
X84356846Y-65189715D01*
G37*
G04 #@! TD.AperFunction*
G04 #@! TA.AperFunction,EtchedComponent*
G36*
X68710397Y-63291585D02*
G01*
X68814494Y-63370031D01*
X68878959Y-63432745D01*
X68997414Y-63569148D01*
X69051519Y-63694483D01*
X69063293Y-63836584D01*
X69047201Y-63996682D01*
X68983903Y-64123661D01*
X68885597Y-64233786D01*
X68749143Y-64350362D01*
X68619400Y-64401913D01*
X68488396Y-64411481D01*
X68328298Y-64395390D01*
X68201319Y-64332092D01*
X68091194Y-64233786D01*
X67953378Y-64035055D01*
X67907847Y-63825069D01*
X67947128Y-63623800D01*
X68063752Y-63451215D01*
X68250248Y-63327285D01*
X68449482Y-63276043D01*
X68604542Y-63266026D01*
X68710397Y-63291585D01*
G37*
G04 #@! TD.AperFunction*
G04 #@! TA.AperFunction,EtchedComponent*
G36*
X71821474Y-79489453D02*
G01*
X72004915Y-79567363D01*
X72168413Y-79698284D01*
X72265375Y-79835223D01*
X72322582Y-79978466D01*
X72325532Y-80100056D01*
X72291507Y-80225288D01*
X72193618Y-80400858D01*
X72040610Y-80549937D01*
X71865770Y-80645225D01*
X71754856Y-80665391D01*
X71637906Y-80636828D01*
X71493878Y-80566134D01*
X71462071Y-80545847D01*
X71271994Y-80368449D01*
X71177452Y-80160413D01*
X71176754Y-79958540D01*
X71253542Y-79785962D01*
X71398514Y-79625212D01*
X71577682Y-79510175D01*
X71652489Y-79484253D01*
X71821474Y-79489453D01*
G37*
G04 #@! TD.AperFunction*
G04 #@! TA.AperFunction,EtchedComponent*
G36*
X81210817Y-77684350D02*
G01*
X81308222Y-77739459D01*
X81456259Y-77912526D01*
X81519577Y-78113719D01*
X81504986Y-78320677D01*
X81419292Y-78511040D01*
X81269303Y-78662447D01*
X81061827Y-78752537D01*
X80996464Y-78763491D01*
X80837085Y-78762716D01*
X80706591Y-78730855D01*
X80692540Y-78723383D01*
X80505502Y-78559051D01*
X80399340Y-78356838D01*
X80375573Y-78139352D01*
X80435721Y-77929199D01*
X80581302Y-77748985D01*
X80624829Y-77715683D01*
X80798269Y-77648115D01*
X81009636Y-77638229D01*
X81210817Y-77684350D01*
G37*
G04 #@! TD.AperFunction*
G04 #@! TA.AperFunction,EtchedComponent*
G36*
X78049680Y-72328458D02*
G01*
X78203413Y-72420649D01*
X78343175Y-72575679D01*
X78435601Y-72753673D01*
X78449172Y-72805912D01*
X78439388Y-73007949D01*
X78351378Y-73208927D01*
X78203432Y-73367655D01*
X78198053Y-73371477D01*
X78024613Y-73439045D01*
X77813246Y-73448931D01*
X77612064Y-73402810D01*
X77514659Y-73347701D01*
X77402765Y-73221455D01*
X77323121Y-73067781D01*
X77300830Y-72852147D01*
X77363680Y-72648994D01*
X77492886Y-72477436D01*
X77669664Y-72356587D01*
X77875229Y-72305562D01*
X78049680Y-72328458D01*
G37*
G04 #@! TD.AperFunction*
G04 #@! TA.AperFunction,EtchedComponent*
G36*
X78006399Y-79444539D02*
G01*
X78187895Y-79542441D01*
X78328242Y-79704127D01*
X78407704Y-79921179D01*
X78418437Y-80046859D01*
X78371072Y-80224887D01*
X78247735Y-80386454D01*
X78076561Y-80505758D01*
X77885687Y-80556994D01*
X77861832Y-80557327D01*
X77698876Y-80541290D01*
X77564622Y-80506676D01*
X77551920Y-80501046D01*
X77395332Y-80372120D01*
X77301559Y-80186182D01*
X77275324Y-79973113D01*
X77321347Y-79762798D01*
X77412367Y-79617721D01*
X77598900Y-79473761D01*
X77803489Y-79418840D01*
X78006399Y-79444539D01*
G37*
G04 #@! TD.AperFunction*
G04 #@! TA.AperFunction,EtchedComponent*
G36*
X65636332Y-75907395D02*
G01*
X65733737Y-75962504D01*
X65882636Y-76136025D01*
X65946119Y-76337062D01*
X65930905Y-76543772D01*
X65843716Y-76734311D01*
X65691273Y-76886834D01*
X65480296Y-76979498D01*
X65417289Y-76991010D01*
X65275866Y-76997614D01*
X65163990Y-76960136D01*
X65034233Y-76861851D01*
X65022877Y-76851930D01*
X64864336Y-76655591D01*
X64798621Y-76440126D01*
X64825130Y-76225478D01*
X64943265Y-76031591D01*
X65050343Y-75938728D01*
X65223783Y-75871160D01*
X65435150Y-75861274D01*
X65636332Y-75907395D01*
G37*
G04 #@! TD.AperFunction*
G04 #@! TA.AperFunction,EtchedComponent*
G36*
X65567340Y-65099884D02*
G01*
X65752426Y-65216374D01*
X65890022Y-65393199D01*
X65926281Y-65479216D01*
X65949547Y-65694757D01*
X65887945Y-65893252D01*
X65760493Y-66057371D01*
X65586213Y-66169785D01*
X65384124Y-66213163D01*
X65173247Y-66170175D01*
X65169671Y-66168585D01*
X64957401Y-66028499D01*
X64829781Y-65846342D01*
X64792502Y-65638897D01*
X64851249Y-65422945D01*
X64892986Y-65352222D01*
X65008145Y-65216646D01*
X65135614Y-65113772D01*
X65160418Y-65100227D01*
X65361194Y-65056809D01*
X65567340Y-65099884D01*
G37*
G04 #@! TD.AperFunction*
G04 #@! TA.AperFunction,EtchedComponent*
G36*
X84366288Y-72425920D02*
G01*
X84547470Y-72544403D01*
X84671530Y-72715581D01*
X84724400Y-72917946D01*
X84692007Y-73129983D01*
X84667448Y-73184887D01*
X84516985Y-73380490D01*
X84319740Y-73496902D01*
X84097346Y-73523871D01*
X83994211Y-73503911D01*
X83781881Y-73394383D01*
X83641463Y-73226863D01*
X83577725Y-73023472D01*
X83595436Y-72806330D01*
X83699368Y-72597558D01*
X83779564Y-72508423D01*
X83921543Y-72414740D01*
X84103002Y-72382285D01*
X84142055Y-72381646D01*
X84366288Y-72425920D01*
G37*
G04 #@! TD.AperFunction*
G04 #@! TA.AperFunction,EtchedComponent*
G36*
X84283049Y-75787291D02*
G01*
X84491180Y-75901638D01*
X84556792Y-75961106D01*
X84682652Y-76146156D01*
X84722101Y-76343475D01*
X84688074Y-76536445D01*
X84593505Y-76708449D01*
X84451328Y-76842869D01*
X84274476Y-76923088D01*
X84075884Y-76932488D01*
X83868485Y-76854453D01*
X83863748Y-76851519D01*
X83684377Y-76686513D01*
X83591246Y-76484664D01*
X83584582Y-76268521D01*
X83664613Y-76060634D01*
X83831567Y-75883554D01*
X83853828Y-75867883D01*
X84068650Y-75775781D01*
X84283049Y-75787291D01*
G37*
G04 #@! TD.AperFunction*
G04 #@! TA.AperFunction,EtchedComponent*
G36*
X81226312Y-63371385D02*
G01*
X81389999Y-63473144D01*
X81511548Y-63623148D01*
X81582801Y-63803216D01*
X81595598Y-63995170D01*
X81541779Y-64180828D01*
X81413187Y-64342011D01*
X81274260Y-64430565D01*
X81113376Y-64495853D01*
X80987358Y-64506340D01*
X80842776Y-64463167D01*
X80790060Y-64440910D01*
X80594283Y-64306754D01*
X80483656Y-64112042D01*
X80456708Y-63914979D01*
X80498506Y-63674702D01*
X80625383Y-63494770D01*
X80805162Y-63385325D01*
X81028646Y-63336052D01*
X81226312Y-63371385D01*
G37*
G04 #@! TD.AperFunction*
G04 #@! TA.AperFunction,EtchedComponent*
G36*
X84374343Y-68734801D02*
G01*
X84556178Y-68855699D01*
X84683606Y-69024297D01*
X84717575Y-69121567D01*
X84721826Y-69347927D01*
X84644020Y-69545764D01*
X84503738Y-69700813D01*
X84320557Y-69798807D01*
X84114058Y-69825480D01*
X83903818Y-69766567D01*
X83863748Y-69743700D01*
X83684418Y-69579552D01*
X83590191Y-69380526D01*
X83578811Y-69169139D01*
X83648023Y-68967908D01*
X83795570Y-68799350D01*
X83967986Y-68703351D01*
X84168235Y-68678415D01*
X84374343Y-68734801D01*
G37*
G04 #@! TD.AperFunction*
G04 #@! TA.AperFunction,EtchedComponent*
G36*
X74972322Y-81272844D02*
G01*
X75147054Y-81405673D01*
X75262221Y-81585626D01*
X75303605Y-81800427D01*
X75260098Y-82003968D01*
X75148957Y-82178146D01*
X74987435Y-82304853D01*
X74792787Y-82365984D01*
X74582269Y-82343434D01*
X74550974Y-82331951D01*
X74332780Y-82197504D01*
X74198643Y-82015857D01*
X74151767Y-81806059D01*
X74195357Y-81587155D01*
X74332616Y-81378192D01*
X74382324Y-81329391D01*
X74564769Y-81227368D01*
X74769831Y-81210964D01*
X74972322Y-81272844D01*
G37*
G04 #@! TD.AperFunction*
G04 #@! TA.AperFunction,EtchedComponent*
G36*
X74946475Y-59753506D02*
G01*
X75122170Y-59888696D01*
X75238312Y-60076972D01*
X75261682Y-60161246D01*
X75258518Y-60387530D01*
X75173363Y-60581985D01*
X75026416Y-60730642D01*
X74837873Y-60819532D01*
X74627934Y-60834684D01*
X74416795Y-60762129D01*
X74404078Y-60754399D01*
X74227177Y-60591880D01*
X74133443Y-60393858D01*
X74120266Y-60183175D01*
X74185036Y-59982676D01*
X74325144Y-59815205D01*
X74523607Y-59708176D01*
X74738022Y-59687850D01*
X74946475Y-59753506D01*
G37*
G04 #@! TD.AperFunction*
G04 #@! TA.AperFunction,EtchedComponent*
G36*
X68703383Y-77672959D02*
G01*
X68885155Y-77746928D01*
X69035245Y-77886279D01*
X69133687Y-78092535D01*
X69145942Y-78144554D01*
X69143793Y-78368208D01*
X69058092Y-78561789D01*
X68908799Y-78709760D01*
X68715872Y-78796583D01*
X68499271Y-78806719D01*
X68351377Y-78763112D01*
X68155340Y-78626916D01*
X68045129Y-78431459D01*
X68018025Y-78230563D01*
X68058749Y-78000457D01*
X68167611Y-77828121D01*
X68324647Y-77715078D01*
X68509892Y-77662850D01*
X68703383Y-77672959D01*
G37*
G04 #@! TD.AperFunction*
G04 #@! TA.AperFunction,EtchedComponent*
G36*
X65647932Y-68750219D02*
G01*
X65816295Y-68885212D01*
X65931397Y-69087916D01*
X65953323Y-69166088D01*
X65948988Y-69365859D01*
X65862237Y-69550508D01*
X65715145Y-69702191D01*
X65529788Y-69803068D01*
X65328239Y-69835298D01*
X65169671Y-69799445D01*
X64975453Y-69665841D01*
X64849757Y-69479177D01*
X64801495Y-69265095D01*
X64839575Y-69049236D01*
X64880868Y-68968316D01*
X65042778Y-68791986D01*
X65239225Y-68699559D01*
X65448259Y-68686986D01*
X65647932Y-68750219D01*
G37*
G04 #@! TD.AperFunction*
G04 #@! TA.AperFunction,EtchedComponent*
G36*
X65563430Y-72414764D02*
G01*
X65666173Y-72470804D01*
X65858260Y-72639553D01*
X65949853Y-72822520D01*
X65944890Y-73029471D01*
X65922281Y-73105975D01*
X65797827Y-73327793D01*
X65617987Y-73469990D01*
X65398559Y-73523813D01*
X65212157Y-73499411D01*
X65018518Y-73397596D01*
X64877179Y-73233595D01*
X64802911Y-73035174D01*
X64810487Y-72830100D01*
X64828241Y-72777769D01*
X64962151Y-72561779D01*
X65141724Y-72424737D01*
X65348353Y-72373460D01*
X65563430Y-72414764D01*
G37*
G04 #@! TD.AperFunction*
G04 #@! TA.AperFunction,EtchedComponent*
G36*
X71916960Y-61452245D02*
G01*
X72090232Y-61560475D01*
X72218401Y-61717297D01*
X72284405Y-61905318D01*
X72271181Y-62107144D01*
X72235203Y-62197128D01*
X72080787Y-62409099D01*
X71889605Y-62532072D01*
X71674739Y-62560510D01*
X71493540Y-62511000D01*
X71285073Y-62376254D01*
X71169496Y-62199639D01*
X71139574Y-62010145D01*
X71184586Y-61761878D01*
X71316348Y-61569516D01*
X71503360Y-61451129D01*
X71715649Y-61409998D01*
X71916960Y-61452245D01*
G37*
G04 #@! TD.AperFunction*
G04 #@! TA.AperFunction,EtchedComponent*
G36*
X71900141Y-72270488D02*
G01*
X72104797Y-72375964D01*
X72224015Y-72502226D01*
X72307966Y-72691329D01*
X72316700Y-72902757D01*
X72257964Y-73105787D01*
X72139505Y-73269697D01*
X72010038Y-73350851D01*
X71778431Y-73398050D01*
X71555209Y-73372614D01*
X71399844Y-73295438D01*
X71250496Y-73119977D01*
X71182409Y-72910801D01*
X71194509Y-72694560D01*
X71285720Y-72497902D01*
X71437704Y-72357722D01*
X71673273Y-72263580D01*
X71900141Y-72270488D01*
G37*
G04 #@! TD.AperFunction*
D12*
X81030000Y-74750000D03*
X80980000Y-71100000D03*
X80980000Y-67510000D03*
X77950000Y-76550000D03*
X77880000Y-69300000D03*
X77830000Y-65700000D03*
X74780000Y-67470000D03*
X74760000Y-71020000D03*
X74750000Y-63850000D03*
X74740000Y-74700000D03*
X71750000Y-65640000D03*
X71740000Y-69310000D03*
X71630000Y-76520000D03*
X68550000Y-74650000D03*
X68530000Y-71060000D03*
X68490000Y-67430000D03*
D13*
X75647500Y-91795000D03*
X75647500Y-92445000D03*
X75647500Y-93095000D03*
X75647500Y-93745000D03*
X81372500Y-93745000D03*
X81372500Y-93095000D03*
X81372500Y-92445000D03*
X81372500Y-91795000D03*
D14*
X79262500Y-95300000D03*
X77537500Y-95300000D03*
D15*
X72920000Y-94300000D03*
X73880000Y-94300000D03*
D16*
X70600000Y-94137500D03*
X70600000Y-92262500D03*
D15*
X72820000Y-92300000D03*
X73780000Y-92300000D03*
D17*
X70900000Y-89200000D03*
X73560000Y-83620000D03*
D10*
X80800000Y-91222500D02*
X81372500Y-91795000D01*
X80800000Y-86431472D02*
X80800000Y-91222500D01*
X80910002Y-86321470D02*
X80800000Y-86431472D01*
D18*
X72820000Y-91680000D02*
X72820000Y-92300000D01*
X70637500Y-92300000D02*
X70600000Y-92262500D01*
X81372500Y-92445000D02*
X78288812Y-92445000D01*
X73230000Y-91270000D02*
X72820000Y-91680000D01*
D10*
X72820000Y-90320000D02*
X72820000Y-92300000D01*
D18*
X78288812Y-92445000D02*
X77113812Y-91270000D01*
X77113812Y-91270000D02*
X73230000Y-91270000D01*
D10*
X72800000Y-90300000D02*
X72820000Y-90320000D01*
D18*
X72820000Y-92300000D02*
X70637500Y-92300000D01*
X73780000Y-94200000D02*
X73880000Y-94300000D01*
X75647500Y-92445000D02*
X73925000Y-92445000D01*
X75647500Y-93095000D02*
X75647500Y-92445000D01*
X73780000Y-92300000D02*
X73780000Y-94200000D01*
X73925000Y-92445000D02*
X73780000Y-92300000D01*
X81200000Y-95300000D02*
X79262500Y-95300000D01*
X82109999Y-91795000D02*
X82435000Y-92120001D01*
X81372500Y-91795000D02*
X82109999Y-91795000D01*
X82435000Y-92120001D02*
X82435000Y-94065000D01*
X82435000Y-94065000D02*
X81200000Y-95300000D01*
X75647500Y-91795000D02*
X77002416Y-91795000D01*
X77002416Y-91795000D02*
X77537500Y-92330084D01*
X77537500Y-92330084D02*
X77537500Y-95300000D01*
X70762500Y-94300000D02*
X70600000Y-94137500D01*
X72920000Y-94300000D02*
X70762500Y-94300000D01*
M02*
