%TF.GenerationSoftware,KiCad,Pcbnew,8.0.4*%
%TF.CreationDate,2025-04-27T23:41:52-04:00*%
%TF.ProjectId,HDW_BUSINESS_CARD,4844575f-4255-4534-994e-4553535f4341,rev?*%
%TF.SameCoordinates,Original*%
%TF.FileFunction,Drillmap*%
%TF.FilePolarity,Positive*%
%FSLAX45Y45*%
G04 Gerber Fmt 4.5, Leading zero omitted, Abs format (unit mm)*
G04 Created by KiCad (PCBNEW 8.0.4) date 2025-04-27 23:41:52*
%MOMM*%
%LPD*%
G01*
G04 APERTURE LIST*
%ADD10C,0.150000*%
%ADD11C,0.200000*%
%ADD12C,0.100000*%
G04 APERTURE END LIST*
D10*
X14020800Y-9977550D02*
X14020800Y-5283200D01*
X13817600Y-10180750D02*
X5276850Y-10180750D01*
X5080000Y-9983900D02*
X5080000Y-5283200D01*
X5283200Y-5080000D02*
X13817600Y-5080000D01*
X5080000Y-5283200D02*
G75*
G02*
X5283200Y-5080000I203200J0D01*
G01*
X13817600Y-5080000D02*
G75*
G02*
X14020800Y-5283200I0J-203200D01*
G01*
X14020800Y-9977550D02*
G75*
G02*
X13817600Y-10180750I-203200J0D01*
G01*
X5276850Y-10180750D02*
G75*
G02*
X5080000Y-9983900I0J196850D01*
G01*
D11*
D12*
X7075000Y-8905000D02*
X7105000Y-8935000D01*
X7105000Y-8905000D02*
X7075000Y-8935000D01*
X7341000Y-8347000D02*
X7371000Y-8377000D01*
X7371000Y-8347000D02*
X7341000Y-8377000D01*
X6899000Y-6743000D02*
G75*
G02*
X6799000Y-6743000I-50000J0D01*
G01*
X6799000Y-6743000D02*
G75*
G02*
X6899000Y-6743000I50000J0D01*
G01*
X6903000Y-7106000D02*
G75*
G02*
X6803000Y-7106000I-50000J0D01*
G01*
X6803000Y-7106000D02*
G75*
G02*
X6903000Y-7106000I50000J0D01*
G01*
X6905000Y-7465000D02*
G75*
G02*
X6805000Y-7465000I-50000J0D01*
G01*
X6805000Y-7465000D02*
G75*
G02*
X6905000Y-7465000I50000J0D01*
G01*
X7213000Y-7652000D02*
G75*
G02*
X7113000Y-7652000I-50000J0D01*
G01*
X7113000Y-7652000D02*
G75*
G02*
X7213000Y-7652000I50000J0D01*
G01*
X7224000Y-6931000D02*
G75*
G02*
X7124000Y-6931000I-50000J0D01*
G01*
X7124000Y-6931000D02*
G75*
G02*
X7224000Y-6931000I50000J0D01*
G01*
X7225000Y-6564000D02*
G75*
G02*
X7125000Y-6564000I-50000J0D01*
G01*
X7125000Y-6564000D02*
G75*
G02*
X7225000Y-6564000I50000J0D01*
G01*
X7524000Y-7470000D02*
G75*
G02*
X7424000Y-7470000I-50000J0D01*
G01*
X7424000Y-7470000D02*
G75*
G02*
X7524000Y-7470000I50000J0D01*
G01*
X7525000Y-6385000D02*
G75*
G02*
X7425000Y-6385000I-50000J0D01*
G01*
X7425000Y-6385000D02*
G75*
G02*
X7525000Y-6385000I50000J0D01*
G01*
X7526000Y-7102000D02*
G75*
G02*
X7426000Y-7102000I-50000J0D01*
G01*
X7426000Y-7102000D02*
G75*
G02*
X7526000Y-7102000I50000J0D01*
G01*
X7528000Y-6747000D02*
G75*
G02*
X7428000Y-6747000I-50000J0D01*
G01*
X7428000Y-6747000D02*
G75*
G02*
X7528000Y-6747000I50000J0D01*
G01*
X7833000Y-6570000D02*
G75*
G02*
X7733000Y-6570000I-50000J0D01*
G01*
X7733000Y-6570000D02*
G75*
G02*
X7833000Y-6570000I50000J0D01*
G01*
X7838000Y-6930000D02*
G75*
G02*
X7738000Y-6930000I-50000J0D01*
G01*
X7738000Y-6930000D02*
G75*
G02*
X7838000Y-6930000I50000J0D01*
G01*
X7845000Y-7655000D02*
G75*
G02*
X7745000Y-7655000I-50000J0D01*
G01*
X7745000Y-7655000D02*
G75*
G02*
X7845000Y-7655000I50000J0D01*
G01*
X8148000Y-6751000D02*
G75*
G02*
X8048000Y-6751000I-50000J0D01*
G01*
X8048000Y-6751000D02*
G75*
G02*
X8148000Y-6751000I50000J0D01*
G01*
X8148000Y-7110000D02*
G75*
G02*
X8048000Y-7110000I-50000J0D01*
G01*
X8048000Y-7110000D02*
G75*
G02*
X8148000Y-7110000I50000J0D01*
G01*
X8153000Y-7475000D02*
G75*
G02*
X8053000Y-7475000I-50000J0D01*
G01*
X8053000Y-7475000D02*
G75*
G02*
X8153000Y-7475000I50000J0D01*
G01*
D11*
X5333277Y-10499734D02*
X5333277Y-10299734D01*
X5333277Y-10299734D02*
X5380896Y-10299734D01*
X5380896Y-10299734D02*
X5409467Y-10309258D01*
X5409467Y-10309258D02*
X5428515Y-10328305D01*
X5428515Y-10328305D02*
X5438039Y-10347353D01*
X5438039Y-10347353D02*
X5447563Y-10385448D01*
X5447563Y-10385448D02*
X5447563Y-10414020D01*
X5447563Y-10414020D02*
X5438039Y-10452115D01*
X5438039Y-10452115D02*
X5428515Y-10471162D01*
X5428515Y-10471162D02*
X5409467Y-10490210D01*
X5409467Y-10490210D02*
X5380896Y-10499734D01*
X5380896Y-10499734D02*
X5333277Y-10499734D01*
X5533277Y-10499734D02*
X5533277Y-10366400D01*
X5533277Y-10404496D02*
X5542801Y-10385448D01*
X5542801Y-10385448D02*
X5552324Y-10375924D01*
X5552324Y-10375924D02*
X5571372Y-10366400D01*
X5571372Y-10366400D02*
X5590420Y-10366400D01*
X5657086Y-10499734D02*
X5657086Y-10366400D01*
X5657086Y-10299734D02*
X5647562Y-10309258D01*
X5647562Y-10309258D02*
X5657086Y-10318781D01*
X5657086Y-10318781D02*
X5666610Y-10309258D01*
X5666610Y-10309258D02*
X5657086Y-10299734D01*
X5657086Y-10299734D02*
X5657086Y-10318781D01*
X5780896Y-10499734D02*
X5761848Y-10490210D01*
X5761848Y-10490210D02*
X5752324Y-10471162D01*
X5752324Y-10471162D02*
X5752324Y-10299734D01*
X5885658Y-10499734D02*
X5866610Y-10490210D01*
X5866610Y-10490210D02*
X5857086Y-10471162D01*
X5857086Y-10471162D02*
X5857086Y-10299734D01*
X6114229Y-10499734D02*
X6114229Y-10299734D01*
X6114229Y-10299734D02*
X6180896Y-10442591D01*
X6180896Y-10442591D02*
X6247562Y-10299734D01*
X6247562Y-10299734D02*
X6247562Y-10499734D01*
X6428515Y-10499734D02*
X6428515Y-10394972D01*
X6428515Y-10394972D02*
X6418991Y-10375924D01*
X6418991Y-10375924D02*
X6399943Y-10366400D01*
X6399943Y-10366400D02*
X6361848Y-10366400D01*
X6361848Y-10366400D02*
X6342801Y-10375924D01*
X6428515Y-10490210D02*
X6409467Y-10499734D01*
X6409467Y-10499734D02*
X6361848Y-10499734D01*
X6361848Y-10499734D02*
X6342801Y-10490210D01*
X6342801Y-10490210D02*
X6333277Y-10471162D01*
X6333277Y-10471162D02*
X6333277Y-10452115D01*
X6333277Y-10452115D02*
X6342801Y-10433067D01*
X6342801Y-10433067D02*
X6361848Y-10423543D01*
X6361848Y-10423543D02*
X6409467Y-10423543D01*
X6409467Y-10423543D02*
X6428515Y-10414020D01*
X6523753Y-10366400D02*
X6523753Y-10566400D01*
X6523753Y-10375924D02*
X6542801Y-10366400D01*
X6542801Y-10366400D02*
X6580896Y-10366400D01*
X6580896Y-10366400D02*
X6599943Y-10375924D01*
X6599943Y-10375924D02*
X6609467Y-10385448D01*
X6609467Y-10385448D02*
X6618991Y-10404496D01*
X6618991Y-10404496D02*
X6618991Y-10461639D01*
X6618991Y-10461639D02*
X6609467Y-10480686D01*
X6609467Y-10480686D02*
X6599943Y-10490210D01*
X6599943Y-10490210D02*
X6580896Y-10499734D01*
X6580896Y-10499734D02*
X6542801Y-10499734D01*
X6542801Y-10499734D02*
X6523753Y-10490210D01*
X6704705Y-10480686D02*
X6714229Y-10490210D01*
X6714229Y-10490210D02*
X6704705Y-10499734D01*
X6704705Y-10499734D02*
X6695182Y-10490210D01*
X6695182Y-10490210D02*
X6704705Y-10480686D01*
X6704705Y-10480686D02*
X6704705Y-10499734D01*
X6704705Y-10375924D02*
X6714229Y-10385448D01*
X6714229Y-10385448D02*
X6704705Y-10394972D01*
X6704705Y-10394972D02*
X6695182Y-10385448D01*
X6695182Y-10385448D02*
X6704705Y-10375924D01*
X6704705Y-10375924D02*
X6704705Y-10394972D01*
D12*
X5042500Y-10813250D02*
X5072500Y-10843250D01*
X5072500Y-10813250D02*
X5042500Y-10843250D01*
D11*
X5371372Y-10719734D02*
X5390420Y-10719734D01*
X5390420Y-10719734D02*
X5409467Y-10729258D01*
X5409467Y-10729258D02*
X5418991Y-10738781D01*
X5418991Y-10738781D02*
X5428515Y-10757829D01*
X5428515Y-10757829D02*
X5438039Y-10795924D01*
X5438039Y-10795924D02*
X5438039Y-10843543D01*
X5438039Y-10843543D02*
X5428515Y-10881639D01*
X5428515Y-10881639D02*
X5418991Y-10900686D01*
X5418991Y-10900686D02*
X5409467Y-10910210D01*
X5409467Y-10910210D02*
X5390420Y-10919734D01*
X5390420Y-10919734D02*
X5371372Y-10919734D01*
X5371372Y-10919734D02*
X5352324Y-10910210D01*
X5352324Y-10910210D02*
X5342801Y-10900686D01*
X5342801Y-10900686D02*
X5333277Y-10881639D01*
X5333277Y-10881639D02*
X5323753Y-10843543D01*
X5323753Y-10843543D02*
X5323753Y-10795924D01*
X5323753Y-10795924D02*
X5333277Y-10757829D01*
X5333277Y-10757829D02*
X5342801Y-10738781D01*
X5342801Y-10738781D02*
X5352324Y-10729258D01*
X5352324Y-10729258D02*
X5371372Y-10719734D01*
X5523753Y-10900686D02*
X5533277Y-10910210D01*
X5533277Y-10910210D02*
X5523753Y-10919734D01*
X5523753Y-10919734D02*
X5514229Y-10910210D01*
X5514229Y-10910210D02*
X5523753Y-10900686D01*
X5523753Y-10900686D02*
X5523753Y-10919734D01*
X5599943Y-10719734D02*
X5723753Y-10719734D01*
X5723753Y-10719734D02*
X5657086Y-10795924D01*
X5657086Y-10795924D02*
X5685658Y-10795924D01*
X5685658Y-10795924D02*
X5704705Y-10805448D01*
X5704705Y-10805448D02*
X5714229Y-10814972D01*
X5714229Y-10814972D02*
X5723753Y-10834020D01*
X5723753Y-10834020D02*
X5723753Y-10881639D01*
X5723753Y-10881639D02*
X5714229Y-10900686D01*
X5714229Y-10900686D02*
X5704705Y-10910210D01*
X5704705Y-10910210D02*
X5685658Y-10919734D01*
X5685658Y-10919734D02*
X5628515Y-10919734D01*
X5628515Y-10919734D02*
X5609467Y-10910210D01*
X5609467Y-10910210D02*
X5599943Y-10900686D01*
X5847562Y-10719734D02*
X5866610Y-10719734D01*
X5866610Y-10719734D02*
X5885658Y-10729258D01*
X5885658Y-10729258D02*
X5895182Y-10738781D01*
X5895182Y-10738781D02*
X5904705Y-10757829D01*
X5904705Y-10757829D02*
X5914229Y-10795924D01*
X5914229Y-10795924D02*
X5914229Y-10843543D01*
X5914229Y-10843543D02*
X5904705Y-10881639D01*
X5904705Y-10881639D02*
X5895182Y-10900686D01*
X5895182Y-10900686D02*
X5885658Y-10910210D01*
X5885658Y-10910210D02*
X5866610Y-10919734D01*
X5866610Y-10919734D02*
X5847562Y-10919734D01*
X5847562Y-10919734D02*
X5828515Y-10910210D01*
X5828515Y-10910210D02*
X5818991Y-10900686D01*
X5818991Y-10900686D02*
X5809467Y-10881639D01*
X5809467Y-10881639D02*
X5799943Y-10843543D01*
X5799943Y-10843543D02*
X5799943Y-10795924D01*
X5799943Y-10795924D02*
X5809467Y-10757829D01*
X5809467Y-10757829D02*
X5818991Y-10738781D01*
X5818991Y-10738781D02*
X5828515Y-10729258D01*
X5828515Y-10729258D02*
X5847562Y-10719734D01*
X6038039Y-10719734D02*
X6057086Y-10719734D01*
X6057086Y-10719734D02*
X6076134Y-10729258D01*
X6076134Y-10729258D02*
X6085658Y-10738781D01*
X6085658Y-10738781D02*
X6095182Y-10757829D01*
X6095182Y-10757829D02*
X6104705Y-10795924D01*
X6104705Y-10795924D02*
X6104705Y-10843543D01*
X6104705Y-10843543D02*
X6095182Y-10881639D01*
X6095182Y-10881639D02*
X6085658Y-10900686D01*
X6085658Y-10900686D02*
X6076134Y-10910210D01*
X6076134Y-10910210D02*
X6057086Y-10919734D01*
X6057086Y-10919734D02*
X6038039Y-10919734D01*
X6038039Y-10919734D02*
X6018991Y-10910210D01*
X6018991Y-10910210D02*
X6009467Y-10900686D01*
X6009467Y-10900686D02*
X5999943Y-10881639D01*
X5999943Y-10881639D02*
X5990420Y-10843543D01*
X5990420Y-10843543D02*
X5990420Y-10795924D01*
X5990420Y-10795924D02*
X5999943Y-10757829D01*
X5999943Y-10757829D02*
X6009467Y-10738781D01*
X6009467Y-10738781D02*
X6018991Y-10729258D01*
X6018991Y-10729258D02*
X6038039Y-10719734D01*
X6190420Y-10919734D02*
X6190420Y-10786400D01*
X6190420Y-10805448D02*
X6199943Y-10795924D01*
X6199943Y-10795924D02*
X6218991Y-10786400D01*
X6218991Y-10786400D02*
X6247563Y-10786400D01*
X6247563Y-10786400D02*
X6266610Y-10795924D01*
X6266610Y-10795924D02*
X6276134Y-10814972D01*
X6276134Y-10814972D02*
X6276134Y-10919734D01*
X6276134Y-10814972D02*
X6285658Y-10795924D01*
X6285658Y-10795924D02*
X6304705Y-10786400D01*
X6304705Y-10786400D02*
X6333277Y-10786400D01*
X6333277Y-10786400D02*
X6352324Y-10795924D01*
X6352324Y-10795924D02*
X6361848Y-10814972D01*
X6361848Y-10814972D02*
X6361848Y-10919734D01*
X6457086Y-10919734D02*
X6457086Y-10786400D01*
X6457086Y-10805448D02*
X6466610Y-10795924D01*
X6466610Y-10795924D02*
X6485658Y-10786400D01*
X6485658Y-10786400D02*
X6514229Y-10786400D01*
X6514229Y-10786400D02*
X6533277Y-10795924D01*
X6533277Y-10795924D02*
X6542801Y-10814972D01*
X6542801Y-10814972D02*
X6542801Y-10919734D01*
X6542801Y-10814972D02*
X6552324Y-10795924D01*
X6552324Y-10795924D02*
X6571372Y-10786400D01*
X6571372Y-10786400D02*
X6599943Y-10786400D01*
X6599943Y-10786400D02*
X6618991Y-10795924D01*
X6618991Y-10795924D02*
X6628515Y-10814972D01*
X6628515Y-10814972D02*
X6628515Y-10919734D01*
X7018991Y-10710210D02*
X6847563Y-10967353D01*
X7276134Y-10719734D02*
X7295182Y-10719734D01*
X7295182Y-10719734D02*
X7314229Y-10729258D01*
X7314229Y-10729258D02*
X7323753Y-10738781D01*
X7323753Y-10738781D02*
X7333277Y-10757829D01*
X7333277Y-10757829D02*
X7342801Y-10795924D01*
X7342801Y-10795924D02*
X7342801Y-10843543D01*
X7342801Y-10843543D02*
X7333277Y-10881639D01*
X7333277Y-10881639D02*
X7323753Y-10900686D01*
X7323753Y-10900686D02*
X7314229Y-10910210D01*
X7314229Y-10910210D02*
X7295182Y-10919734D01*
X7295182Y-10919734D02*
X7276134Y-10919734D01*
X7276134Y-10919734D02*
X7257086Y-10910210D01*
X7257086Y-10910210D02*
X7247563Y-10900686D01*
X7247563Y-10900686D02*
X7238039Y-10881639D01*
X7238039Y-10881639D02*
X7228515Y-10843543D01*
X7228515Y-10843543D02*
X7228515Y-10795924D01*
X7228515Y-10795924D02*
X7238039Y-10757829D01*
X7238039Y-10757829D02*
X7247563Y-10738781D01*
X7247563Y-10738781D02*
X7257086Y-10729258D01*
X7257086Y-10729258D02*
X7276134Y-10719734D01*
X7428515Y-10900686D02*
X7438039Y-10910210D01*
X7438039Y-10910210D02*
X7428515Y-10919734D01*
X7428515Y-10919734D02*
X7418991Y-10910210D01*
X7418991Y-10910210D02*
X7428515Y-10900686D01*
X7428515Y-10900686D02*
X7428515Y-10919734D01*
X7561848Y-10719734D02*
X7580896Y-10719734D01*
X7580896Y-10719734D02*
X7599944Y-10729258D01*
X7599944Y-10729258D02*
X7609467Y-10738781D01*
X7609467Y-10738781D02*
X7618991Y-10757829D01*
X7618991Y-10757829D02*
X7628515Y-10795924D01*
X7628515Y-10795924D02*
X7628515Y-10843543D01*
X7628515Y-10843543D02*
X7618991Y-10881639D01*
X7618991Y-10881639D02*
X7609467Y-10900686D01*
X7609467Y-10900686D02*
X7599944Y-10910210D01*
X7599944Y-10910210D02*
X7580896Y-10919734D01*
X7580896Y-10919734D02*
X7561848Y-10919734D01*
X7561848Y-10919734D02*
X7542801Y-10910210D01*
X7542801Y-10910210D02*
X7533277Y-10900686D01*
X7533277Y-10900686D02*
X7523753Y-10881639D01*
X7523753Y-10881639D02*
X7514229Y-10843543D01*
X7514229Y-10843543D02*
X7514229Y-10795924D01*
X7514229Y-10795924D02*
X7523753Y-10757829D01*
X7523753Y-10757829D02*
X7533277Y-10738781D01*
X7533277Y-10738781D02*
X7542801Y-10729258D01*
X7542801Y-10729258D02*
X7561848Y-10719734D01*
X7818991Y-10919734D02*
X7704706Y-10919734D01*
X7761848Y-10919734D02*
X7761848Y-10719734D01*
X7761848Y-10719734D02*
X7742801Y-10748305D01*
X7742801Y-10748305D02*
X7723753Y-10767353D01*
X7723753Y-10767353D02*
X7704706Y-10776877D01*
X8009467Y-10919734D02*
X7895182Y-10919734D01*
X7952325Y-10919734D02*
X7952325Y-10719734D01*
X7952325Y-10719734D02*
X7933277Y-10748305D01*
X7933277Y-10748305D02*
X7914229Y-10767353D01*
X7914229Y-10767353D02*
X7895182Y-10776877D01*
X8123753Y-10805448D02*
X8104706Y-10795924D01*
X8104706Y-10795924D02*
X8095182Y-10786400D01*
X8095182Y-10786400D02*
X8085658Y-10767353D01*
X8085658Y-10767353D02*
X8085658Y-10757829D01*
X8085658Y-10757829D02*
X8095182Y-10738781D01*
X8095182Y-10738781D02*
X8104706Y-10729258D01*
X8104706Y-10729258D02*
X8123753Y-10719734D01*
X8123753Y-10719734D02*
X8161848Y-10719734D01*
X8161848Y-10719734D02*
X8180896Y-10729258D01*
X8180896Y-10729258D02*
X8190420Y-10738781D01*
X8190420Y-10738781D02*
X8199944Y-10757829D01*
X8199944Y-10757829D02*
X8199944Y-10767353D01*
X8199944Y-10767353D02*
X8190420Y-10786400D01*
X8190420Y-10786400D02*
X8180896Y-10795924D01*
X8180896Y-10795924D02*
X8161848Y-10805448D01*
X8161848Y-10805448D02*
X8123753Y-10805448D01*
X8123753Y-10805448D02*
X8104706Y-10814972D01*
X8104706Y-10814972D02*
X8095182Y-10824496D01*
X8095182Y-10824496D02*
X8085658Y-10843543D01*
X8085658Y-10843543D02*
X8085658Y-10881639D01*
X8085658Y-10881639D02*
X8095182Y-10900686D01*
X8095182Y-10900686D02*
X8104706Y-10910210D01*
X8104706Y-10910210D02*
X8123753Y-10919734D01*
X8123753Y-10919734D02*
X8161848Y-10919734D01*
X8161848Y-10919734D02*
X8180896Y-10910210D01*
X8180896Y-10910210D02*
X8190420Y-10900686D01*
X8190420Y-10900686D02*
X8199944Y-10881639D01*
X8199944Y-10881639D02*
X8199944Y-10843543D01*
X8199944Y-10843543D02*
X8190420Y-10824496D01*
X8190420Y-10824496D02*
X8180896Y-10814972D01*
X8180896Y-10814972D02*
X8161848Y-10805448D01*
X8276134Y-10719734D02*
X8276134Y-10757829D01*
X8352325Y-10719734D02*
X8352325Y-10757829D01*
X8647563Y-10995924D02*
X8638039Y-10986400D01*
X8638039Y-10986400D02*
X8618991Y-10957829D01*
X8618991Y-10957829D02*
X8609468Y-10938781D01*
X8609468Y-10938781D02*
X8599944Y-10910210D01*
X8599944Y-10910210D02*
X8590420Y-10862591D01*
X8590420Y-10862591D02*
X8590420Y-10824496D01*
X8590420Y-10824496D02*
X8599944Y-10776877D01*
X8599944Y-10776877D02*
X8609468Y-10748305D01*
X8609468Y-10748305D02*
X8618991Y-10729258D01*
X8618991Y-10729258D02*
X8638039Y-10700686D01*
X8638039Y-10700686D02*
X8647563Y-10691162D01*
X8714230Y-10738781D02*
X8723753Y-10729258D01*
X8723753Y-10729258D02*
X8742801Y-10719734D01*
X8742801Y-10719734D02*
X8790420Y-10719734D01*
X8790420Y-10719734D02*
X8809468Y-10729258D01*
X8809468Y-10729258D02*
X8818991Y-10738781D01*
X8818991Y-10738781D02*
X8828515Y-10757829D01*
X8828515Y-10757829D02*
X8828515Y-10776877D01*
X8828515Y-10776877D02*
X8818991Y-10805448D01*
X8818991Y-10805448D02*
X8704706Y-10919734D01*
X8704706Y-10919734D02*
X8828515Y-10919734D01*
X9066611Y-10919734D02*
X9066611Y-10719734D01*
X9152325Y-10919734D02*
X9152325Y-10814972D01*
X9152325Y-10814972D02*
X9142801Y-10795924D01*
X9142801Y-10795924D02*
X9123753Y-10786400D01*
X9123753Y-10786400D02*
X9095182Y-10786400D01*
X9095182Y-10786400D02*
X9076134Y-10795924D01*
X9076134Y-10795924D02*
X9066611Y-10805448D01*
X9276134Y-10919734D02*
X9257087Y-10910210D01*
X9257087Y-10910210D02*
X9247563Y-10900686D01*
X9247563Y-10900686D02*
X9238039Y-10881639D01*
X9238039Y-10881639D02*
X9238039Y-10824496D01*
X9238039Y-10824496D02*
X9247563Y-10805448D01*
X9247563Y-10805448D02*
X9257087Y-10795924D01*
X9257087Y-10795924D02*
X9276134Y-10786400D01*
X9276134Y-10786400D02*
X9304706Y-10786400D01*
X9304706Y-10786400D02*
X9323753Y-10795924D01*
X9323753Y-10795924D02*
X9333277Y-10805448D01*
X9333277Y-10805448D02*
X9342801Y-10824496D01*
X9342801Y-10824496D02*
X9342801Y-10881639D01*
X9342801Y-10881639D02*
X9333277Y-10900686D01*
X9333277Y-10900686D02*
X9323753Y-10910210D01*
X9323753Y-10910210D02*
X9304706Y-10919734D01*
X9304706Y-10919734D02*
X9276134Y-10919734D01*
X9457087Y-10919734D02*
X9438039Y-10910210D01*
X9438039Y-10910210D02*
X9428515Y-10891162D01*
X9428515Y-10891162D02*
X9428515Y-10719734D01*
X9609468Y-10910210D02*
X9590420Y-10919734D01*
X9590420Y-10919734D02*
X9552325Y-10919734D01*
X9552325Y-10919734D02*
X9533277Y-10910210D01*
X9533277Y-10910210D02*
X9523753Y-10891162D01*
X9523753Y-10891162D02*
X9523753Y-10814972D01*
X9523753Y-10814972D02*
X9533277Y-10795924D01*
X9533277Y-10795924D02*
X9552325Y-10786400D01*
X9552325Y-10786400D02*
X9590420Y-10786400D01*
X9590420Y-10786400D02*
X9609468Y-10795924D01*
X9609468Y-10795924D02*
X9618992Y-10814972D01*
X9618992Y-10814972D02*
X9618992Y-10834020D01*
X9618992Y-10834020D02*
X9523753Y-10853067D01*
X9695182Y-10910210D02*
X9714230Y-10919734D01*
X9714230Y-10919734D02*
X9752325Y-10919734D01*
X9752325Y-10919734D02*
X9771373Y-10910210D01*
X9771373Y-10910210D02*
X9780896Y-10891162D01*
X9780896Y-10891162D02*
X9780896Y-10881639D01*
X9780896Y-10881639D02*
X9771373Y-10862591D01*
X9771373Y-10862591D02*
X9752325Y-10853067D01*
X9752325Y-10853067D02*
X9723753Y-10853067D01*
X9723753Y-10853067D02*
X9704706Y-10843543D01*
X9704706Y-10843543D02*
X9695182Y-10824496D01*
X9695182Y-10824496D02*
X9695182Y-10814972D01*
X9695182Y-10814972D02*
X9704706Y-10795924D01*
X9704706Y-10795924D02*
X9723753Y-10786400D01*
X9723753Y-10786400D02*
X9752325Y-10786400D01*
X9752325Y-10786400D02*
X9771373Y-10795924D01*
X9847563Y-10995924D02*
X9857087Y-10986400D01*
X9857087Y-10986400D02*
X9876134Y-10957829D01*
X9876134Y-10957829D02*
X9885658Y-10938781D01*
X9885658Y-10938781D02*
X9895182Y-10910210D01*
X9895182Y-10910210D02*
X9904706Y-10862591D01*
X9904706Y-10862591D02*
X9904706Y-10824496D01*
X9904706Y-10824496D02*
X9895182Y-10776877D01*
X9895182Y-10776877D02*
X9885658Y-10748305D01*
X9885658Y-10748305D02*
X9876134Y-10729258D01*
X9876134Y-10729258D02*
X9857087Y-10700686D01*
X9857087Y-10700686D02*
X9847563Y-10691162D01*
D12*
X5072500Y-11092250D02*
G75*
G02*
X4972500Y-11092250I-50000J0D01*
G01*
X4972500Y-11092250D02*
G75*
G02*
X5072500Y-11092250I50000J0D01*
G01*
D11*
X5438039Y-11183734D02*
X5323753Y-11183734D01*
X5380896Y-11183734D02*
X5380896Y-10983734D01*
X5380896Y-10983734D02*
X5361848Y-11012305D01*
X5361848Y-11012305D02*
X5342801Y-11031353D01*
X5342801Y-11031353D02*
X5323753Y-11040877D01*
X5523753Y-11164686D02*
X5533277Y-11174210D01*
X5533277Y-11174210D02*
X5523753Y-11183734D01*
X5523753Y-11183734D02*
X5514229Y-11174210D01*
X5514229Y-11174210D02*
X5523753Y-11164686D01*
X5523753Y-11164686D02*
X5523753Y-11183734D01*
X5657086Y-10983734D02*
X5676134Y-10983734D01*
X5676134Y-10983734D02*
X5695182Y-10993258D01*
X5695182Y-10993258D02*
X5704705Y-11002781D01*
X5704705Y-11002781D02*
X5714229Y-11021829D01*
X5714229Y-11021829D02*
X5723753Y-11059924D01*
X5723753Y-11059924D02*
X5723753Y-11107543D01*
X5723753Y-11107543D02*
X5714229Y-11145639D01*
X5714229Y-11145639D02*
X5704705Y-11164686D01*
X5704705Y-11164686D02*
X5695182Y-11174210D01*
X5695182Y-11174210D02*
X5676134Y-11183734D01*
X5676134Y-11183734D02*
X5657086Y-11183734D01*
X5657086Y-11183734D02*
X5638039Y-11174210D01*
X5638039Y-11174210D02*
X5628515Y-11164686D01*
X5628515Y-11164686D02*
X5618991Y-11145639D01*
X5618991Y-11145639D02*
X5609467Y-11107543D01*
X5609467Y-11107543D02*
X5609467Y-11059924D01*
X5609467Y-11059924D02*
X5618991Y-11021829D01*
X5618991Y-11021829D02*
X5628515Y-11002781D01*
X5628515Y-11002781D02*
X5638039Y-10993258D01*
X5638039Y-10993258D02*
X5657086Y-10983734D01*
X5847562Y-10983734D02*
X5866610Y-10983734D01*
X5866610Y-10983734D02*
X5885658Y-10993258D01*
X5885658Y-10993258D02*
X5895182Y-11002781D01*
X5895182Y-11002781D02*
X5904705Y-11021829D01*
X5904705Y-11021829D02*
X5914229Y-11059924D01*
X5914229Y-11059924D02*
X5914229Y-11107543D01*
X5914229Y-11107543D02*
X5904705Y-11145639D01*
X5904705Y-11145639D02*
X5895182Y-11164686D01*
X5895182Y-11164686D02*
X5885658Y-11174210D01*
X5885658Y-11174210D02*
X5866610Y-11183734D01*
X5866610Y-11183734D02*
X5847562Y-11183734D01*
X5847562Y-11183734D02*
X5828515Y-11174210D01*
X5828515Y-11174210D02*
X5818991Y-11164686D01*
X5818991Y-11164686D02*
X5809467Y-11145639D01*
X5809467Y-11145639D02*
X5799943Y-11107543D01*
X5799943Y-11107543D02*
X5799943Y-11059924D01*
X5799943Y-11059924D02*
X5809467Y-11021829D01*
X5809467Y-11021829D02*
X5818991Y-11002781D01*
X5818991Y-11002781D02*
X5828515Y-10993258D01*
X5828515Y-10993258D02*
X5847562Y-10983734D01*
X6038039Y-10983734D02*
X6057086Y-10983734D01*
X6057086Y-10983734D02*
X6076134Y-10993258D01*
X6076134Y-10993258D02*
X6085658Y-11002781D01*
X6085658Y-11002781D02*
X6095182Y-11021829D01*
X6095182Y-11021829D02*
X6104705Y-11059924D01*
X6104705Y-11059924D02*
X6104705Y-11107543D01*
X6104705Y-11107543D02*
X6095182Y-11145639D01*
X6095182Y-11145639D02*
X6085658Y-11164686D01*
X6085658Y-11164686D02*
X6076134Y-11174210D01*
X6076134Y-11174210D02*
X6057086Y-11183734D01*
X6057086Y-11183734D02*
X6038039Y-11183734D01*
X6038039Y-11183734D02*
X6018991Y-11174210D01*
X6018991Y-11174210D02*
X6009467Y-11164686D01*
X6009467Y-11164686D02*
X5999943Y-11145639D01*
X5999943Y-11145639D02*
X5990420Y-11107543D01*
X5990420Y-11107543D02*
X5990420Y-11059924D01*
X5990420Y-11059924D02*
X5999943Y-11021829D01*
X5999943Y-11021829D02*
X6009467Y-11002781D01*
X6009467Y-11002781D02*
X6018991Y-10993258D01*
X6018991Y-10993258D02*
X6038039Y-10983734D01*
X6190420Y-11183734D02*
X6190420Y-11050400D01*
X6190420Y-11069448D02*
X6199943Y-11059924D01*
X6199943Y-11059924D02*
X6218991Y-11050400D01*
X6218991Y-11050400D02*
X6247563Y-11050400D01*
X6247563Y-11050400D02*
X6266610Y-11059924D01*
X6266610Y-11059924D02*
X6276134Y-11078972D01*
X6276134Y-11078972D02*
X6276134Y-11183734D01*
X6276134Y-11078972D02*
X6285658Y-11059924D01*
X6285658Y-11059924D02*
X6304705Y-11050400D01*
X6304705Y-11050400D02*
X6333277Y-11050400D01*
X6333277Y-11050400D02*
X6352324Y-11059924D01*
X6352324Y-11059924D02*
X6361848Y-11078972D01*
X6361848Y-11078972D02*
X6361848Y-11183734D01*
X6457086Y-11183734D02*
X6457086Y-11050400D01*
X6457086Y-11069448D02*
X6466610Y-11059924D01*
X6466610Y-11059924D02*
X6485658Y-11050400D01*
X6485658Y-11050400D02*
X6514229Y-11050400D01*
X6514229Y-11050400D02*
X6533277Y-11059924D01*
X6533277Y-11059924D02*
X6542801Y-11078972D01*
X6542801Y-11078972D02*
X6542801Y-11183734D01*
X6542801Y-11078972D02*
X6552324Y-11059924D01*
X6552324Y-11059924D02*
X6571372Y-11050400D01*
X6571372Y-11050400D02*
X6599943Y-11050400D01*
X6599943Y-11050400D02*
X6618991Y-11059924D01*
X6618991Y-11059924D02*
X6628515Y-11078972D01*
X6628515Y-11078972D02*
X6628515Y-11183734D01*
X7018991Y-10974210D02*
X6847563Y-11231353D01*
X7276134Y-10983734D02*
X7295182Y-10983734D01*
X7295182Y-10983734D02*
X7314229Y-10993258D01*
X7314229Y-10993258D02*
X7323753Y-11002781D01*
X7323753Y-11002781D02*
X7333277Y-11021829D01*
X7333277Y-11021829D02*
X7342801Y-11059924D01*
X7342801Y-11059924D02*
X7342801Y-11107543D01*
X7342801Y-11107543D02*
X7333277Y-11145639D01*
X7333277Y-11145639D02*
X7323753Y-11164686D01*
X7323753Y-11164686D02*
X7314229Y-11174210D01*
X7314229Y-11174210D02*
X7295182Y-11183734D01*
X7295182Y-11183734D02*
X7276134Y-11183734D01*
X7276134Y-11183734D02*
X7257086Y-11174210D01*
X7257086Y-11174210D02*
X7247563Y-11164686D01*
X7247563Y-11164686D02*
X7238039Y-11145639D01*
X7238039Y-11145639D02*
X7228515Y-11107543D01*
X7228515Y-11107543D02*
X7228515Y-11059924D01*
X7228515Y-11059924D02*
X7238039Y-11021829D01*
X7238039Y-11021829D02*
X7247563Y-11002781D01*
X7247563Y-11002781D02*
X7257086Y-10993258D01*
X7257086Y-10993258D02*
X7276134Y-10983734D01*
X7428515Y-11164686D02*
X7438039Y-11174210D01*
X7438039Y-11174210D02*
X7428515Y-11183734D01*
X7428515Y-11183734D02*
X7418991Y-11174210D01*
X7418991Y-11174210D02*
X7428515Y-11164686D01*
X7428515Y-11164686D02*
X7428515Y-11183734D01*
X7561848Y-10983734D02*
X7580896Y-10983734D01*
X7580896Y-10983734D02*
X7599944Y-10993258D01*
X7599944Y-10993258D02*
X7609467Y-11002781D01*
X7609467Y-11002781D02*
X7618991Y-11021829D01*
X7618991Y-11021829D02*
X7628515Y-11059924D01*
X7628515Y-11059924D02*
X7628515Y-11107543D01*
X7628515Y-11107543D02*
X7618991Y-11145639D01*
X7618991Y-11145639D02*
X7609467Y-11164686D01*
X7609467Y-11164686D02*
X7599944Y-11174210D01*
X7599944Y-11174210D02*
X7580896Y-11183734D01*
X7580896Y-11183734D02*
X7561848Y-11183734D01*
X7561848Y-11183734D02*
X7542801Y-11174210D01*
X7542801Y-11174210D02*
X7533277Y-11164686D01*
X7533277Y-11164686D02*
X7523753Y-11145639D01*
X7523753Y-11145639D02*
X7514229Y-11107543D01*
X7514229Y-11107543D02*
X7514229Y-11059924D01*
X7514229Y-11059924D02*
X7523753Y-11021829D01*
X7523753Y-11021829D02*
X7533277Y-11002781D01*
X7533277Y-11002781D02*
X7542801Y-10993258D01*
X7542801Y-10993258D02*
X7561848Y-10983734D01*
X7695182Y-10983734D02*
X7818991Y-10983734D01*
X7818991Y-10983734D02*
X7752325Y-11059924D01*
X7752325Y-11059924D02*
X7780896Y-11059924D01*
X7780896Y-11059924D02*
X7799944Y-11069448D01*
X7799944Y-11069448D02*
X7809467Y-11078972D01*
X7809467Y-11078972D02*
X7818991Y-11098020D01*
X7818991Y-11098020D02*
X7818991Y-11145639D01*
X7818991Y-11145639D02*
X7809467Y-11164686D01*
X7809467Y-11164686D02*
X7799944Y-11174210D01*
X7799944Y-11174210D02*
X7780896Y-11183734D01*
X7780896Y-11183734D02*
X7723753Y-11183734D01*
X7723753Y-11183734D02*
X7704706Y-11174210D01*
X7704706Y-11174210D02*
X7695182Y-11164686D01*
X7914229Y-11183734D02*
X7952325Y-11183734D01*
X7952325Y-11183734D02*
X7971372Y-11174210D01*
X7971372Y-11174210D02*
X7980896Y-11164686D01*
X7980896Y-11164686D02*
X7999944Y-11136115D01*
X7999944Y-11136115D02*
X8009467Y-11098020D01*
X8009467Y-11098020D02*
X8009467Y-11021829D01*
X8009467Y-11021829D02*
X7999944Y-11002781D01*
X7999944Y-11002781D02*
X7990420Y-10993258D01*
X7990420Y-10993258D02*
X7971372Y-10983734D01*
X7971372Y-10983734D02*
X7933277Y-10983734D01*
X7933277Y-10983734D02*
X7914229Y-10993258D01*
X7914229Y-10993258D02*
X7904706Y-11002781D01*
X7904706Y-11002781D02*
X7895182Y-11021829D01*
X7895182Y-11021829D02*
X7895182Y-11069448D01*
X7895182Y-11069448D02*
X7904706Y-11088496D01*
X7904706Y-11088496D02*
X7914229Y-11098020D01*
X7914229Y-11098020D02*
X7933277Y-11107543D01*
X7933277Y-11107543D02*
X7971372Y-11107543D01*
X7971372Y-11107543D02*
X7990420Y-11098020D01*
X7990420Y-11098020D02*
X7999944Y-11088496D01*
X7999944Y-11088496D02*
X8009467Y-11069448D01*
X8180896Y-11050400D02*
X8180896Y-11183734D01*
X8133277Y-10974210D02*
X8085658Y-11117067D01*
X8085658Y-11117067D02*
X8209467Y-11117067D01*
X8276134Y-10983734D02*
X8276134Y-11021829D01*
X8352325Y-10983734D02*
X8352325Y-11021829D01*
X8647563Y-11259924D02*
X8638039Y-11250400D01*
X8638039Y-11250400D02*
X8618991Y-11221829D01*
X8618991Y-11221829D02*
X8609468Y-11202781D01*
X8609468Y-11202781D02*
X8599944Y-11174210D01*
X8599944Y-11174210D02*
X8590420Y-11126591D01*
X8590420Y-11126591D02*
X8590420Y-11088496D01*
X8590420Y-11088496D02*
X8599944Y-11040877D01*
X8599944Y-11040877D02*
X8609468Y-11012305D01*
X8609468Y-11012305D02*
X8618991Y-10993258D01*
X8618991Y-10993258D02*
X8638039Y-10964686D01*
X8638039Y-10964686D02*
X8647563Y-10955162D01*
X8828515Y-11183734D02*
X8714230Y-11183734D01*
X8771372Y-11183734D02*
X8771372Y-10983734D01*
X8771372Y-10983734D02*
X8752325Y-11012305D01*
X8752325Y-11012305D02*
X8733277Y-11031353D01*
X8733277Y-11031353D02*
X8714230Y-11040877D01*
X8999944Y-10983734D02*
X8961849Y-10983734D01*
X8961849Y-10983734D02*
X8942801Y-10993258D01*
X8942801Y-10993258D02*
X8933277Y-11002781D01*
X8933277Y-11002781D02*
X8914230Y-11031353D01*
X8914230Y-11031353D02*
X8904706Y-11069448D01*
X8904706Y-11069448D02*
X8904706Y-11145639D01*
X8904706Y-11145639D02*
X8914230Y-11164686D01*
X8914230Y-11164686D02*
X8923753Y-11174210D01*
X8923753Y-11174210D02*
X8942801Y-11183734D01*
X8942801Y-11183734D02*
X8980896Y-11183734D01*
X8980896Y-11183734D02*
X8999944Y-11174210D01*
X8999944Y-11174210D02*
X9009468Y-11164686D01*
X9009468Y-11164686D02*
X9018991Y-11145639D01*
X9018991Y-11145639D02*
X9018991Y-11098020D01*
X9018991Y-11098020D02*
X9009468Y-11078972D01*
X9009468Y-11078972D02*
X8999944Y-11069448D01*
X8999944Y-11069448D02*
X8980896Y-11059924D01*
X8980896Y-11059924D02*
X8942801Y-11059924D01*
X8942801Y-11059924D02*
X8923753Y-11069448D01*
X8923753Y-11069448D02*
X8914230Y-11078972D01*
X8914230Y-11078972D02*
X8904706Y-11098020D01*
X9257087Y-11183734D02*
X9257087Y-10983734D01*
X9342801Y-11183734D02*
X9342801Y-11078972D01*
X9342801Y-11078972D02*
X9333277Y-11059924D01*
X9333277Y-11059924D02*
X9314230Y-11050400D01*
X9314230Y-11050400D02*
X9285658Y-11050400D01*
X9285658Y-11050400D02*
X9266611Y-11059924D01*
X9266611Y-11059924D02*
X9257087Y-11069448D01*
X9466611Y-11183734D02*
X9447563Y-11174210D01*
X9447563Y-11174210D02*
X9438039Y-11164686D01*
X9438039Y-11164686D02*
X9428515Y-11145639D01*
X9428515Y-11145639D02*
X9428515Y-11088496D01*
X9428515Y-11088496D02*
X9438039Y-11069448D01*
X9438039Y-11069448D02*
X9447563Y-11059924D01*
X9447563Y-11059924D02*
X9466611Y-11050400D01*
X9466611Y-11050400D02*
X9495182Y-11050400D01*
X9495182Y-11050400D02*
X9514230Y-11059924D01*
X9514230Y-11059924D02*
X9523753Y-11069448D01*
X9523753Y-11069448D02*
X9533277Y-11088496D01*
X9533277Y-11088496D02*
X9533277Y-11145639D01*
X9533277Y-11145639D02*
X9523753Y-11164686D01*
X9523753Y-11164686D02*
X9514230Y-11174210D01*
X9514230Y-11174210D02*
X9495182Y-11183734D01*
X9495182Y-11183734D02*
X9466611Y-11183734D01*
X9647563Y-11183734D02*
X9628515Y-11174210D01*
X9628515Y-11174210D02*
X9618992Y-11155162D01*
X9618992Y-11155162D02*
X9618992Y-10983734D01*
X9799944Y-11174210D02*
X9780896Y-11183734D01*
X9780896Y-11183734D02*
X9742801Y-11183734D01*
X9742801Y-11183734D02*
X9723753Y-11174210D01*
X9723753Y-11174210D02*
X9714230Y-11155162D01*
X9714230Y-11155162D02*
X9714230Y-11078972D01*
X9714230Y-11078972D02*
X9723753Y-11059924D01*
X9723753Y-11059924D02*
X9742801Y-11050400D01*
X9742801Y-11050400D02*
X9780896Y-11050400D01*
X9780896Y-11050400D02*
X9799944Y-11059924D01*
X9799944Y-11059924D02*
X9809468Y-11078972D01*
X9809468Y-11078972D02*
X9809468Y-11098020D01*
X9809468Y-11098020D02*
X9714230Y-11117067D01*
X9885658Y-11174210D02*
X9904706Y-11183734D01*
X9904706Y-11183734D02*
X9942801Y-11183734D01*
X9942801Y-11183734D02*
X9961849Y-11174210D01*
X9961849Y-11174210D02*
X9971373Y-11155162D01*
X9971373Y-11155162D02*
X9971373Y-11145639D01*
X9971373Y-11145639D02*
X9961849Y-11126591D01*
X9961849Y-11126591D02*
X9942801Y-11117067D01*
X9942801Y-11117067D02*
X9914230Y-11117067D01*
X9914230Y-11117067D02*
X9895182Y-11107543D01*
X9895182Y-11107543D02*
X9885658Y-11088496D01*
X9885658Y-11088496D02*
X9885658Y-11078972D01*
X9885658Y-11078972D02*
X9895182Y-11059924D01*
X9895182Y-11059924D02*
X9914230Y-11050400D01*
X9914230Y-11050400D02*
X9942801Y-11050400D01*
X9942801Y-11050400D02*
X9961849Y-11059924D01*
X10038039Y-11259924D02*
X10047563Y-11250400D01*
X10047563Y-11250400D02*
X10066611Y-11221829D01*
X10066611Y-11221829D02*
X10076134Y-11202781D01*
X10076134Y-11202781D02*
X10085658Y-11174210D01*
X10085658Y-11174210D02*
X10095182Y-11126591D01*
X10095182Y-11126591D02*
X10095182Y-11088496D01*
X10095182Y-11088496D02*
X10085658Y-11040877D01*
X10085658Y-11040877D02*
X10076134Y-11012305D01*
X10076134Y-11012305D02*
X10066611Y-10993258D01*
X10066611Y-10993258D02*
X10047563Y-10964686D01*
X10047563Y-10964686D02*
X10038039Y-10955162D01*
M02*
