G04 #@! TF.GenerationSoftware,KiCad,Pcbnew,8.0.4*
G04 #@! TF.CreationDate,2025-04-23T21:37:21-04:00*
G04 #@! TF.ProjectId,HDW_BUSINESS_CARD,4844575f-4255-4534-994e-4553535f4341,rev?*
G04 #@! TF.SameCoordinates,Original*
G04 #@! TF.FileFunction,Paste,Bot*
G04 #@! TF.FilePolarity,Positive*
%FSLAX46Y46*%
G04 Gerber Fmt 4.6, Leading zero omitted, Abs format (unit mm)*
G04 Created by KiCad (PCBNEW 8.0.4) date 2025-04-23 21:37:21*
%MOMM*%
%LPD*%
G01*
G04 APERTURE LIST*
G04 Aperture macros list*
%AMRoundRect*
0 Rectangle with rounded corners*
0 $1 Rounding radius*
0 $2 $3 $4 $5 $6 $7 $8 $9 X,Y pos of 4 corners*
0 Add a 4 corners polygon primitive as box body*
4,1,4,$2,$3,$4,$5,$6,$7,$8,$9,$2,$3,0*
0 Add four circle primitives for the rounded corners*
1,1,$1+$1,$2,$3*
1,1,$1+$1,$4,$5*
1,1,$1+$1,$6,$7*
1,1,$1+$1,$8,$9*
0 Add four rect primitives between the rounded corners*
20,1,$1+$1,$2,$3,$4,$5,0*
20,1,$1+$1,$4,$5,$6,$7,0*
20,1,$1+$1,$6,$7,$8,$9,0*
20,1,$1+$1,$8,$9,$2,$3,0*%
G04 Aperture macros list end*
%ADD10R,0.500000X0.900000*%
%ADD11R,0.280000X0.430000*%
%ADD12R,0.700000X1.300000*%
%ADD13R,0.900000X2.500000*%
%ADD14R,0.700000X0.250000*%
%ADD15R,1.038000X0.600000*%
%ADD16R,0.510000X0.495000*%
%ADD17R,0.400000X0.600000*%
%ADD18R,1.975000X5.400000*%
%ADD19R,0.900000X1.700000*%
%ADD20R,1.525000X2.650000*%
%ADD21R,1.300480X1.699260*%
%ADD22R,1.500000X2.700000*%
%ADD23R,0.800000X0.350000*%
%ADD24R,0.350000X0.800000*%
%ADD25R,0.750000X0.750000*%
%ADD26O,0.750000X0.300000*%
%ADD27O,0.300000X0.750000*%
%ADD28R,0.540000X0.540000*%
%ADD29R,0.600000X0.200000*%
%ADD30R,0.200000X0.600000*%
%ADD31R,0.795000X0.795000*%
%ADD32R,0.400000X0.500000*%
%ADD33R,0.300000X0.500000*%
%ADD34C,0.225000*%
%ADD35R,0.250000X0.250000*%
%ADD36R,2.500000X3.300000*%
%ADD37R,1.800860X2.499360*%
%ADD38R,2.301240X2.499360*%
%ADD39R,2.200000X0.600000*%
%ADD40R,2.150000X3.450000*%
%ADD41R,2.200000X1.000000*%
%ADD42R,1.800000X3.400000*%
%ADD43R,1.500000X0.600000*%
%ADD44R,0.300000X0.300000*%
%ADD45C,0.165000*%
%ADD46RoundRect,0.075000X-0.675000X-0.075000X0.675000X-0.075000X0.675000X0.075000X-0.675000X0.075000X0*%
%ADD47RoundRect,0.075000X-0.075000X-0.675000X0.075000X-0.675000X0.075000X0.675000X-0.075000X0.675000X0*%
%ADD48R,2.800000X0.950000*%
%ADD49R,1.050000X0.450000*%
%ADD50R,0.882000X0.537000*%
%ADD51R,0.749300X0.398780*%
%ADD52R,0.660400X0.406400*%
%ADD53R,0.711200X0.457200*%
%ADD54R,1.000000X0.300000*%
%ADD55C,0.450000*%
%ADD56C,0.370000*%
%ADD57R,1.060000X0.650000*%
%ADD58R,1.220000X0.400000*%
%ADD59R,2.750000X3.050000*%
%ADD60R,1.200000X2.200000*%
%ADD61R,2.000000X1.500000*%
%ADD62R,2.000000X3.800000*%
%ADD63R,1.200000X1.500000*%
%ADD64R,0.800100X0.800100*%
%ADD65R,1.300000X3.400000*%
%ADD66R,1.525000X3.350000*%
%ADD67R,2.100000X5.450000*%
%ADD68R,1.575000X1.800000*%
%ADD69R,0.900000X1.580000*%
%ADD70R,0.400000X1.100000*%
%ADD71R,0.950000X1.050000*%
%ADD72R,1.600000X0.550000*%
%ADD73R,0.550000X1.600000*%
G04 APERTURE END LIST*
D10*
X119717998Y-34801494D03*
X121217998Y-34801494D03*
D11*
X119603398Y-31837494D03*
X120113398Y-31837494D03*
D12*
X119822798Y-36751094D03*
X121722798Y-36751094D03*
D13*
X119881598Y-42053494D03*
X122781598Y-42053494D03*
D14*
X209894600Y-111227240D03*
X209894600Y-110727240D03*
X209894600Y-110227240D03*
X209894600Y-109727240D03*
X209894600Y-109227240D03*
X209894600Y-108727240D03*
X209894600Y-108227240D03*
X209894600Y-107727240D03*
X214694600Y-107727240D03*
X214694600Y-108227240D03*
X214694600Y-108727240D03*
X214694600Y-109227240D03*
X214694600Y-109727240D03*
X214694600Y-110227240D03*
X214694600Y-110727240D03*
X214694600Y-111227240D03*
D15*
X211429600Y-107977240D03*
X211429600Y-108977240D03*
X211429600Y-109977240D03*
X211429600Y-110977240D03*
X213159600Y-107977240D03*
X213159600Y-108977240D03*
X213159600Y-109977240D03*
X213159600Y-110977240D03*
D14*
X203999300Y-111534840D03*
X203999300Y-111084840D03*
X203999300Y-110634840D03*
X203999300Y-110184840D03*
X203999300Y-109734840D03*
X203999300Y-109284840D03*
X203999300Y-108834840D03*
X203999300Y-108384840D03*
X206899300Y-108384840D03*
X206899300Y-108834840D03*
X206899300Y-109284840D03*
X206899300Y-109734840D03*
X206899300Y-110184840D03*
X206899300Y-110634840D03*
X206899300Y-111084840D03*
X206899300Y-111534840D03*
D16*
X205024300Y-108722340D03*
X205024300Y-109547340D03*
X205024300Y-110372340D03*
X205024300Y-111197340D03*
X205874300Y-108722340D03*
X205874300Y-109547340D03*
X205874300Y-110372340D03*
X205874300Y-111197340D03*
D17*
X119662398Y-33197494D03*
X120562398Y-33197494D03*
D18*
X154001000Y-131391860D03*
X159276000Y-131391860D03*
D19*
X119932398Y-39097094D03*
X122832398Y-39097094D03*
D20*
X153793000Y-126642380D03*
X158468000Y-126642380D03*
D21*
X165810440Y-122200700D03*
X169310560Y-122200700D03*
D22*
X169833500Y-116612700D03*
X165033500Y-116612700D03*
D23*
X210535900Y-119379200D03*
X210535900Y-118729200D03*
X210535900Y-118079200D03*
X210535900Y-117429200D03*
D24*
X211560900Y-116404200D03*
X212210900Y-116404200D03*
X212860900Y-116404200D03*
X213510900Y-116404200D03*
D23*
X214535900Y-117429200D03*
X214535900Y-118079200D03*
X214535900Y-118729200D03*
X214535900Y-119379200D03*
D24*
X213510900Y-120404200D03*
X212860900Y-120404200D03*
X212210900Y-120404200D03*
X211560900Y-120404200D03*
D25*
X211910900Y-117779200D03*
X211910900Y-119029200D03*
X213160900Y-117779200D03*
X213160900Y-119029200D03*
D26*
X203887940Y-119698500D03*
X203887940Y-119198500D03*
X203887940Y-118698500D03*
X203887940Y-118198500D03*
D27*
X204612940Y-117473500D03*
X205112940Y-117473500D03*
X205612940Y-117473500D03*
X206112940Y-117473500D03*
D26*
X206837940Y-118198500D03*
X206837940Y-118698500D03*
X206837940Y-119198500D03*
X206837940Y-119698500D03*
D27*
X206112940Y-120423500D03*
X205612940Y-120423500D03*
X205112940Y-120423500D03*
X204612940Y-120423500D03*
D28*
X204912940Y-118498500D03*
X204912940Y-119398500D03*
X205812940Y-118498500D03*
X205812940Y-119398500D03*
D29*
X218591180Y-120020100D03*
X218591180Y-119620100D03*
X218591180Y-119220100D03*
X218591180Y-118820100D03*
X218591180Y-118420100D03*
X218591180Y-118020100D03*
X218591180Y-117620100D03*
X218591180Y-117220100D03*
D30*
X219091180Y-116720100D03*
X219491180Y-116720100D03*
X219891180Y-116720100D03*
X220291180Y-116720100D03*
X220691180Y-116720100D03*
X221091180Y-116720100D03*
X221491180Y-116720100D03*
X221891180Y-116720100D03*
D29*
X222391180Y-117220100D03*
X222391180Y-117620100D03*
X222391180Y-118020100D03*
X222391180Y-118420100D03*
X222391180Y-118820100D03*
X222391180Y-119220100D03*
X222391180Y-119620100D03*
X222391180Y-120020100D03*
D30*
X221891180Y-120520100D03*
X221491180Y-120520100D03*
X221091180Y-120520100D03*
X220691180Y-120520100D03*
X220291180Y-120520100D03*
X219891180Y-120520100D03*
X219491180Y-120520100D03*
X219091180Y-120520100D03*
D31*
X219828680Y-117957600D03*
X219828680Y-119282600D03*
X221153680Y-117957600D03*
X221153680Y-119282600D03*
D32*
X162971420Y-107258460D03*
D33*
X162471420Y-107258460D03*
X161971420Y-107258460D03*
D32*
X161471420Y-107258460D03*
X161471420Y-106258460D03*
D33*
X161971420Y-106258460D03*
X162471420Y-106258460D03*
D32*
X162971420Y-106258460D03*
D34*
X194055000Y-120537100D03*
X193655000Y-120537100D03*
X193255000Y-120537100D03*
X192855000Y-120537100D03*
X192455000Y-120537100D03*
X192055000Y-120537100D03*
X191655000Y-120537100D03*
X194055000Y-120937100D03*
X193655000Y-120937100D03*
X193255000Y-120937100D03*
X192855000Y-120937100D03*
X192455000Y-120937100D03*
X192055000Y-120937100D03*
X191655000Y-120937100D03*
X194055000Y-121337100D03*
X193655000Y-121337100D03*
X193255000Y-121337100D03*
X192855000Y-121337100D03*
X192455000Y-121337100D03*
X192055000Y-121337100D03*
X191655000Y-121337100D03*
X194055000Y-121737100D03*
X193655000Y-121737100D03*
X193255000Y-121737100D03*
X192855000Y-121737100D03*
X192455000Y-121737100D03*
X192055000Y-121737100D03*
X191655000Y-121737100D03*
X194055000Y-122137100D03*
X193655000Y-122137100D03*
X193255000Y-122137100D03*
X192855000Y-122137100D03*
X192455000Y-122137100D03*
X192055000Y-122137100D03*
X191655000Y-122137100D03*
X194055000Y-122537100D03*
X193655000Y-122537100D03*
X193255000Y-122537100D03*
X192855000Y-122537100D03*
X192455000Y-122537100D03*
X192055000Y-122537100D03*
X191655000Y-122537100D03*
X194055000Y-122937100D03*
X193655000Y-122937100D03*
X193255000Y-122937100D03*
X192855000Y-122937100D03*
X192455000Y-122937100D03*
X192055000Y-122937100D03*
X191655000Y-122937100D03*
D35*
X200721000Y-121035800D03*
X200721000Y-120342800D03*
X200521000Y-120689300D03*
X200321000Y-121035800D03*
X200321000Y-120342800D03*
D34*
X189049000Y-120292700D03*
X188649000Y-120292700D03*
X188249000Y-120292700D03*
X187849000Y-120292700D03*
X187449000Y-120292700D03*
X187049000Y-120292700D03*
X186649000Y-120292700D03*
X186249000Y-120292700D03*
X189049000Y-120692700D03*
X188649000Y-120692700D03*
X188249000Y-120692700D03*
X187849000Y-120692700D03*
X187449000Y-120692700D03*
X187049000Y-120692700D03*
X186649000Y-120692700D03*
X186249000Y-120692700D03*
X189049000Y-121092700D03*
X188649000Y-121092700D03*
X188249000Y-121092700D03*
X187849000Y-121092700D03*
X187449000Y-121092700D03*
X187049000Y-121092700D03*
X186649000Y-121092700D03*
X186249000Y-121092700D03*
X189049000Y-121492700D03*
X188649000Y-121492700D03*
X188249000Y-121492700D03*
X187849000Y-121492700D03*
X187449000Y-121492700D03*
X187049000Y-121492700D03*
X186649000Y-121492700D03*
X186249000Y-121492700D03*
X189049000Y-121892700D03*
X188649000Y-121892700D03*
X188249000Y-121892700D03*
X187849000Y-121892700D03*
X187449000Y-121892700D03*
X187049000Y-121892700D03*
X186649000Y-121892700D03*
X186249000Y-121892700D03*
X189049000Y-122292700D03*
X188649000Y-122292700D03*
X188249000Y-122292700D03*
X187849000Y-122292700D03*
X187449000Y-122292700D03*
X187049000Y-122292700D03*
X186649000Y-122292700D03*
X186249000Y-122292700D03*
X189049000Y-122692700D03*
X188649000Y-122692700D03*
X188249000Y-122692700D03*
X187849000Y-122692700D03*
X187449000Y-122692700D03*
X187049000Y-122692700D03*
X186649000Y-122692700D03*
X186249000Y-122692700D03*
X189049000Y-123092700D03*
X188649000Y-123092700D03*
X188249000Y-123092700D03*
X187849000Y-123092700D03*
X187449000Y-123092700D03*
X187049000Y-123092700D03*
X186649000Y-123092700D03*
X186249000Y-123092700D03*
D36*
X179850500Y-108358500D03*
X173050500Y-108358500D03*
D37*
X173783500Y-118611680D03*
X173783500Y-114613720D03*
D38*
X178863500Y-118761540D03*
X178863500Y-114463860D03*
D39*
X164696000Y-143837700D03*
X164696000Y-142567700D03*
X164696000Y-141297700D03*
X164696000Y-140027700D03*
X164696000Y-138757700D03*
D40*
X170996000Y-141297700D03*
D41*
X174316500Y-143543200D03*
X174316500Y-142043200D03*
X174316500Y-140543200D03*
X174316500Y-139043200D03*
D42*
X180616500Y-141293200D03*
D43*
X192534940Y-144393620D03*
X192534940Y-143123620D03*
X192534940Y-141853620D03*
X192534940Y-140583620D03*
X192534940Y-139313620D03*
X192534940Y-138043620D03*
X192534940Y-136773620D03*
X192534940Y-135503620D03*
X197934940Y-135503620D03*
X197934940Y-136773620D03*
X197934940Y-138043620D03*
X197934940Y-139313620D03*
X197934940Y-140583620D03*
X197934940Y-141853620D03*
X197934940Y-143123620D03*
X197934940Y-144393620D03*
X200990940Y-144393620D03*
X200990940Y-143123620D03*
X200990940Y-141853620D03*
X200990940Y-140583620D03*
X200990940Y-139313620D03*
X200990940Y-138043620D03*
X200990940Y-136773620D03*
X200990940Y-135503620D03*
X210290940Y-135503620D03*
X210290940Y-136773620D03*
X210290940Y-138043620D03*
X210290940Y-139313620D03*
X210290940Y-140583620D03*
X210290940Y-141853620D03*
X210290940Y-143123620D03*
X210290940Y-144393620D03*
D44*
X184669000Y-117064900D03*
X184669000Y-116564900D03*
X184669000Y-116064900D03*
X184669000Y-115564900D03*
X184169000Y-117064900D03*
X184169000Y-116564900D03*
X184169000Y-116064900D03*
X184169000Y-115564900D03*
X183669000Y-117064900D03*
X183669000Y-116564900D03*
X183669000Y-116064900D03*
X183669000Y-115564900D03*
X194887000Y-116604700D03*
X194887000Y-116104700D03*
X194887000Y-115604700D03*
X194387000Y-116604700D03*
X194387000Y-115604700D03*
X193887000Y-116604700D03*
X193887000Y-116104700D03*
X193887000Y-115604700D03*
D45*
X193887000Y-116104700D03*
D44*
X187895000Y-117064900D03*
X187895000Y-116564900D03*
X187895000Y-116064900D03*
X187895000Y-115564900D03*
X187395000Y-117064900D03*
X187395000Y-115564900D03*
X186895000Y-117064900D03*
X186895000Y-116564900D03*
X186895000Y-116064900D03*
X186895000Y-115564900D03*
D46*
X203907900Y-129297500D03*
X203907900Y-128797500D03*
X203907900Y-128297500D03*
X203907900Y-127797500D03*
X203907900Y-127297500D03*
X203907900Y-126797500D03*
X203907900Y-126297500D03*
X203907900Y-125797500D03*
D47*
X205332900Y-124372500D03*
X205832900Y-124372500D03*
X206332900Y-124372500D03*
X206832900Y-124372500D03*
X207332900Y-124372500D03*
X207832900Y-124372500D03*
X208332900Y-124372500D03*
X208832900Y-124372500D03*
D46*
X210257900Y-125797500D03*
X210257900Y-126297500D03*
X210257900Y-126797500D03*
X210257900Y-127297500D03*
X210257900Y-127797500D03*
X210257900Y-128297500D03*
X210257900Y-128797500D03*
X210257900Y-129297500D03*
D47*
X208832900Y-130722500D03*
X208332900Y-130722500D03*
X207832900Y-130722500D03*
X207332900Y-130722500D03*
X206832900Y-130722500D03*
X206332900Y-130722500D03*
X205832900Y-130722500D03*
X205332900Y-130722500D03*
D48*
X163608000Y-136107700D03*
X163608000Y-134567700D03*
X163608000Y-133047700D03*
X163608000Y-131507700D03*
X170408000Y-131507700D03*
X170408000Y-133047700D03*
X170408000Y-134567700D03*
X170408000Y-136107700D03*
D49*
X217871500Y-112431700D03*
X217871500Y-111781700D03*
X217871500Y-111131700D03*
X217871500Y-110481700D03*
X217871500Y-109831700D03*
X217871500Y-109181700D03*
X217871500Y-108531700D03*
X217871500Y-107881700D03*
X223421500Y-107881700D03*
X223421500Y-108531700D03*
X223421500Y-109181700D03*
X223421500Y-109831700D03*
X223421500Y-110481700D03*
X223421500Y-111131700D03*
X223421500Y-111781700D03*
X223421500Y-112431700D03*
D50*
X219911500Y-108814200D03*
X219911500Y-109709200D03*
X219911500Y-110604200D03*
X219911500Y-111499200D03*
X221381500Y-108814200D03*
X221381500Y-109709200D03*
X221381500Y-110604200D03*
X221381500Y-111499200D03*
D51*
X200997260Y-131864460D03*
X200997260Y-132514700D03*
X200997260Y-133164940D03*
X199097340Y-133164940D03*
X199097340Y-132514700D03*
X199097340Y-131864460D03*
D52*
X196640500Y-128418300D03*
X196640500Y-129078700D03*
X196640500Y-129739100D03*
X194608500Y-129739100D03*
X194608500Y-128418300D03*
D34*
X200682000Y-106903700D03*
X200282000Y-106903700D03*
X199882000Y-106903700D03*
X199482000Y-106903700D03*
X199082000Y-106903700D03*
X198682000Y-106903700D03*
X198282000Y-106903700D03*
X200682000Y-107303700D03*
X200282000Y-107303700D03*
X199882000Y-107303700D03*
X199482000Y-107303700D03*
X199082000Y-107303700D03*
X198682000Y-107303700D03*
X198282000Y-107303700D03*
X200682000Y-107703700D03*
X200282000Y-107703700D03*
X199882000Y-107703700D03*
X199482000Y-107703700D03*
X199082000Y-107703700D03*
X198682000Y-107703700D03*
X198282000Y-107703700D03*
X200682000Y-108103700D03*
X200282000Y-108103700D03*
X199882000Y-108103700D03*
X199482000Y-108103700D03*
X199082000Y-108103700D03*
X198682000Y-108103700D03*
X198282000Y-108103700D03*
X200682000Y-108503700D03*
X200282000Y-108503700D03*
X199882000Y-108503700D03*
X199482000Y-108503700D03*
X199082000Y-108503700D03*
X198682000Y-108503700D03*
X198282000Y-108503700D03*
X200682000Y-108903700D03*
X200282000Y-108903700D03*
X199882000Y-108903700D03*
X199482000Y-108903700D03*
X199082000Y-108903700D03*
X198682000Y-108903700D03*
X198282000Y-108903700D03*
X200682000Y-109303700D03*
X200282000Y-109303700D03*
X199882000Y-109303700D03*
X199482000Y-109303700D03*
X199082000Y-109303700D03*
X198682000Y-109303700D03*
X198282000Y-109303700D03*
D53*
X201126800Y-128418300D03*
X201126800Y-129739100D03*
X199094800Y-129078700D03*
D54*
X196524500Y-131764700D03*
X196524500Y-132264700D03*
X196524500Y-132764700D03*
X196524500Y-133264700D03*
X194724500Y-133264700D03*
X194724500Y-132764700D03*
X194724500Y-132264700D03*
X194724500Y-131764700D03*
D44*
X200741000Y-116613300D03*
X200741000Y-116113300D03*
X200741000Y-115613300D03*
X200241000Y-116613300D03*
X200241000Y-116113300D03*
X200241000Y-115613300D03*
X191391000Y-116620900D03*
X191391000Y-116120900D03*
X191391000Y-115620900D03*
X190891000Y-116620900D03*
X190891000Y-116120900D03*
X190891000Y-115620900D03*
X190391000Y-116620900D03*
X190391000Y-116120900D03*
X190391000Y-115620900D03*
D45*
X190391000Y-116120900D03*
D55*
X188430820Y-104324340D03*
X187630820Y-104324340D03*
X186830820Y-104324340D03*
X186030820Y-104324340D03*
X185230820Y-104324340D03*
X184430820Y-104324340D03*
X183630820Y-104324340D03*
X188430820Y-105124340D03*
X187630820Y-105124340D03*
X186830820Y-105124340D03*
X186030820Y-105124340D03*
X185230820Y-105124340D03*
X184430820Y-105124340D03*
X183630820Y-105124340D03*
X188430820Y-105924340D03*
X187630820Y-105924340D03*
X186830820Y-105924340D03*
X186030820Y-105924340D03*
X185230820Y-105924340D03*
X184430820Y-105924340D03*
X183630820Y-105924340D03*
X188430820Y-106724340D03*
X187630820Y-106724340D03*
X186830820Y-106724340D03*
X186030820Y-106724340D03*
X185230820Y-106724340D03*
X184430820Y-106724340D03*
X183630820Y-106724340D03*
X188430820Y-107524340D03*
X187630820Y-107524340D03*
X186830820Y-107524340D03*
X186030820Y-107524340D03*
X185230820Y-107524340D03*
X184430820Y-107524340D03*
X183630820Y-107524340D03*
X188430820Y-108324340D03*
X187630820Y-108324340D03*
X186830820Y-108324340D03*
X186030820Y-108324340D03*
X185230820Y-108324340D03*
X184430820Y-108324340D03*
X183630820Y-108324340D03*
X188430820Y-109124340D03*
X187630820Y-109124340D03*
X186830820Y-109124340D03*
X186030820Y-109124340D03*
X185230820Y-109124340D03*
X184430820Y-109124340D03*
X183630820Y-109124340D03*
D56*
X195742680Y-105442900D03*
X195092680Y-105442900D03*
X194442680Y-105442900D03*
X193792680Y-105442900D03*
X193142680Y-105442900D03*
X192492680Y-105442900D03*
X191842680Y-105442900D03*
X195742680Y-106092900D03*
X195092680Y-106092900D03*
X194442680Y-106092900D03*
X193792680Y-106092900D03*
X193142680Y-106092900D03*
X192492680Y-106092900D03*
X191842680Y-106092900D03*
X195742680Y-106742900D03*
X195092680Y-106742900D03*
X194442680Y-106742900D03*
X193792680Y-106742900D03*
X193142680Y-106742900D03*
X192492680Y-106742900D03*
X191842680Y-106742900D03*
X195742680Y-107392900D03*
X195092680Y-107392900D03*
X194442680Y-107392900D03*
X193792680Y-107392900D03*
X193142680Y-107392900D03*
X192492680Y-107392900D03*
X191842680Y-107392900D03*
X195742680Y-108042900D03*
X195092680Y-108042900D03*
X194442680Y-108042900D03*
X193792680Y-108042900D03*
X193142680Y-108042900D03*
X192492680Y-108042900D03*
X191842680Y-108042900D03*
X195742680Y-108692900D03*
X195092680Y-108692900D03*
X194442680Y-108692900D03*
X193792680Y-108692900D03*
X193142680Y-108692900D03*
X192492680Y-108692900D03*
X191842680Y-108692900D03*
X195742680Y-109342900D03*
X195092680Y-109342900D03*
X194442680Y-109342900D03*
X193792680Y-109342900D03*
X193142680Y-109342900D03*
X192492680Y-109342900D03*
X191842680Y-109342900D03*
D44*
X197843000Y-117070700D03*
X197843000Y-116570700D03*
X197843000Y-116070700D03*
X197843000Y-115570700D03*
X197343000Y-117070700D03*
X197343000Y-116570700D03*
X197343000Y-116070700D03*
X197343000Y-115570700D03*
D34*
X197905000Y-120378300D03*
X197505000Y-120378300D03*
X197105000Y-120378300D03*
X196705000Y-120378300D03*
X197905000Y-120778300D03*
X197505000Y-120778300D03*
X197105000Y-120778300D03*
X196705000Y-120778300D03*
X197905000Y-121178300D03*
X197505000Y-121178300D03*
X197105000Y-121178300D03*
X196705000Y-121178300D03*
X197905000Y-121578300D03*
X197505000Y-121578300D03*
X197105000Y-121578300D03*
X196705000Y-121578300D03*
X197905000Y-121978300D03*
X197505000Y-121978300D03*
X197105000Y-121978300D03*
X196705000Y-121978300D03*
X197905000Y-122378300D03*
X197505000Y-122378300D03*
X197105000Y-122378300D03*
X196705000Y-122378300D03*
X197905000Y-122778300D03*
X197505000Y-122778300D03*
X197105000Y-122778300D03*
X196705000Y-122778300D03*
D57*
X186263700Y-131160700D03*
X186263700Y-132110700D03*
X186263700Y-133060700D03*
X184063700Y-133060700D03*
X184063700Y-132110700D03*
X184063700Y-131160700D03*
D58*
X191595900Y-131140700D03*
X191595900Y-131780700D03*
X191595900Y-132440700D03*
X191595900Y-133080700D03*
X188975900Y-133080700D03*
X188975900Y-132440700D03*
X188975900Y-131780700D03*
X188975900Y-131140700D03*
D59*
X165908500Y-107568700D03*
X168958500Y-107568700D03*
X165908500Y-104218700D03*
X168958500Y-104218700D03*
D60*
X169713500Y-112193700D03*
X165153500Y-112193700D03*
D61*
X174280000Y-136073200D03*
X174280000Y-133773200D03*
X174280000Y-131473200D03*
D62*
X180580000Y-133773200D03*
D63*
X175627500Y-123724700D03*
X177527500Y-123724700D03*
D64*
X190764260Y-127032700D03*
X190764260Y-128932700D03*
X188765280Y-127982700D03*
D57*
X186262900Y-126991100D03*
X186262900Y-127941100D03*
X186262900Y-128891100D03*
X184062900Y-128891100D03*
X184062900Y-126991100D03*
D65*
X153651500Y-122887620D03*
X158101500Y-122887620D03*
D66*
X153778000Y-136501700D03*
X159753000Y-136501700D03*
D67*
X154052500Y-141628380D03*
X161002500Y-141628380D03*
D68*
X153789000Y-119556740D03*
X157964000Y-119556740D03*
D69*
X84175978Y-92793818D03*
X84175978Y-97753818D03*
D70*
X86350978Y-86048818D03*
X85700978Y-86048818D03*
X85050978Y-86048818D03*
X84400978Y-86048818D03*
X84400978Y-90348818D03*
X85050978Y-90348818D03*
X85700978Y-90348818D03*
X86350978Y-90348818D03*
D71*
X86409095Y-96258514D03*
X86409095Y-98008514D03*
X86409095Y-94053850D03*
X86409095Y-92303850D03*
D72*
X213297840Y-131483060D03*
X213297840Y-130683060D03*
X213297840Y-129883060D03*
X213297840Y-129083060D03*
X213297840Y-128283060D03*
X213297840Y-127483060D03*
X213297840Y-126683060D03*
X213297840Y-125883060D03*
D73*
X214747840Y-124433060D03*
X215547840Y-124433060D03*
X216347840Y-124433060D03*
X217147840Y-124433060D03*
X217947840Y-124433060D03*
X218747840Y-124433060D03*
X219547840Y-124433060D03*
X220347840Y-124433060D03*
D72*
X221797840Y-125883060D03*
X221797840Y-126683060D03*
X221797840Y-127483060D03*
X221797840Y-128283060D03*
X221797840Y-129083060D03*
X221797840Y-129883060D03*
X221797840Y-130683060D03*
X221797840Y-131483060D03*
D73*
X220347840Y-132933060D03*
X219547840Y-132933060D03*
X218747840Y-132933060D03*
X217947840Y-132933060D03*
X217147840Y-132933060D03*
X216347840Y-132933060D03*
X215547840Y-132933060D03*
X214747840Y-132933060D03*
M02*
