%TF.GenerationSoftware,KiCad,Pcbnew,8.0.4*%
%TF.CreationDate,2025-04-23T21:37:30-04:00*%
%TF.ProjectId,HDW_BUSINESS_CARD,4844575f-4255-4534-994e-4553535f4341,rev?*%
%TF.SameCoordinates,Original*%
%TF.FileFunction,Plated,1,4,PTH,Drill*%
%TF.FilePolarity,Positive*%
%FSLAX46Y46*%
G04 Gerber Fmt 4.6, Leading zero omitted, Abs format (unit mm)*
G04 Created by KiCad (PCBNEW 8.0.4) date 2025-04-23 21:37:30*
%MOMM*%
%LPD*%
G01*
G04 APERTURE LIST*
%TA.AperFunction,ComponentDrill*%
%ADD10C,0.300000*%
%TD*%
%TA.AperFunction,ViaDrill*%
%ADD11C,0.400000*%
%TD*%
%TA.AperFunction,ComponentDrill*%
%ADD12C,0.500000*%
%TD*%
%TA.AperFunction,ComponentDrill*%
%ADD13C,0.700000*%
%TD*%
%TA.AperFunction,ComponentDrill*%
%ADD14C,0.762000*%
%TD*%
%TA.AperFunction,ComponentDrill*%
%ADD15C,0.800000*%
%TD*%
%TA.AperFunction,ComponentDrill*%
%ADD16C,0.850000*%
%TD*%
%TA.AperFunction,ComponentDrill*%
%ADD17C,2.700000*%
%TD*%
%TA.AperFunction,ComponentDrill*%
%ADD18C,3.200000*%
%TD*%
G04 APERTURE END LIST*
D10*
%TO.C,REF\u002A\u002A*%
X64850000Y-69460000D03*
%TD*%
D11*
X158470600Y-70180200D03*
X158470600Y-72179180D03*
X163568660Y-70180200D03*
D12*
%TO.C,REF\u002A\u002A*%
X51975000Y-54025000D03*
X51975000Y-98600000D03*
X52568109Y-52593109D03*
X52568109Y-55456891D03*
X52568109Y-97168109D03*
X52568109Y-100031891D03*
X54000000Y-52000000D03*
X54000000Y-56050000D03*
X54000000Y-96575000D03*
X54000000Y-100625000D03*
X55431891Y-52593109D03*
X55431891Y-55456891D03*
X55431891Y-97168109D03*
X55431891Y-100031891D03*
X56025000Y-54025000D03*
X56025000Y-98600000D03*
X56909000Y-45288200D03*
X57611944Y-43591144D03*
X57611944Y-46985256D03*
X59309000Y-42888200D03*
X59309000Y-47688200D03*
X61006056Y-43591144D03*
X61006056Y-46985256D03*
X61709000Y-45288200D03*
X134975000Y-54000000D03*
X134975000Y-98600000D03*
X135568109Y-52568109D03*
X135568109Y-55431891D03*
X135568109Y-97168109D03*
X135568109Y-100031891D03*
X137000000Y-51975000D03*
X137000000Y-56025000D03*
X137000000Y-96575000D03*
X137000000Y-100625000D03*
X138431891Y-52568109D03*
X138431891Y-55431891D03*
X138431891Y-97168109D03*
X138431891Y-100031891D03*
X139025000Y-54000000D03*
X139025000Y-98600000D03*
D13*
%TO.C,CAN10*%
X158851600Y-84810600D03*
X159409270Y-83094267D03*
X159409270Y-86526933D03*
X160869270Y-82033515D03*
X160869270Y-87587685D03*
X162673930Y-82033515D03*
X162673930Y-87587685D03*
X164133930Y-83094267D03*
X164133930Y-86526933D03*
X164691600Y-84810600D03*
D14*
%TO.C,G\u002A\u002A\u002A*%
X62336600Y-119624800D03*
X62336600Y-122224800D03*
X64586600Y-120924800D03*
X64586600Y-123524800D03*
X66786600Y-124874800D03*
X66836600Y-122224800D03*
D15*
X57886600Y-122174800D03*
X57886600Y-124774800D03*
X57886600Y-127374800D03*
X60086600Y-128724800D03*
X60186600Y-120874800D03*
X60186600Y-123474800D03*
X62336600Y-124774800D03*
X62336600Y-127374800D03*
X64686600Y-128724800D03*
X66836600Y-127424800D03*
%TO.C,Crystal*%
X154238740Y-83360260D03*
X154238740Y-87160260D03*
%TO.C,DIP-8*%
X168401640Y-80680560D03*
X168401640Y-83220560D03*
X168401640Y-85760560D03*
X168401640Y-88300560D03*
X176021640Y-80680560D03*
X176021640Y-83220560D03*
X176021640Y-85760560D03*
X176021640Y-88300560D03*
D16*
%TO.C,G\u002A\u002A\u002A*%
X69250102Y-73316800D03*
X69270102Y-66576800D03*
X69270102Y-69986800D03*
X72190102Y-75106800D03*
X72260102Y-68326800D03*
X72290102Y-64916800D03*
X75070102Y-69956800D03*
X75070102Y-73356800D03*
X75090102Y-63276800D03*
X75100102Y-66666800D03*
X77980102Y-64956800D03*
X77980102Y-68346800D03*
X78070102Y-75086800D03*
X80870102Y-70036800D03*
X80890102Y-66676800D03*
X80930102Y-73436800D03*
D17*
%TO.C,REF\u002A\u002A*%
X54000000Y-54000000D03*
X54000000Y-98600000D03*
X137000000Y-54000000D03*
X137000000Y-98600000D03*
D18*
X59309000Y-45288200D03*
M02*
