%TF.GenerationSoftware,KiCad,Pcbnew,8.0.4*%
%TF.CreationDate,2025-04-27T23:41:52-04:00*%
%TF.ProjectId,HDW_BUSINESS_CARD,4844575f-4255-4534-994e-4553535f4341,rev?*%
%TF.SameCoordinates,Original*%
%TF.FileFunction,Drillmap*%
%TF.FilePolarity,Positive*%
%FSLAX45Y45*%
G04 Gerber Fmt 4.5, Leading zero omitted, Abs format (unit mm)*
G04 Created by KiCad (PCBNEW 8.0.4) date 2025-04-27 23:41:52*
%MOMM*%
%LPD*%
G01*
G04 APERTURE LIST*
%ADD10C,0.150000*%
%ADD11C,0.200000*%
G04 APERTURE END LIST*
D10*
X14020800Y-9977550D02*
X14020800Y-5283200D01*
X13817600Y-10180750D02*
X5276850Y-10180750D01*
X5080000Y-9983900D02*
X5080000Y-5283200D01*
X5283200Y-5080000D02*
X13817600Y-5080000D01*
X5080000Y-5283200D02*
G75*
G02*
X5283200Y-5080000I203200J0D01*
G01*
X13817600Y-5080000D02*
G75*
G02*
X14020800Y-5283200I0J-203200D01*
G01*
X14020800Y-9977550D02*
G75*
G02*
X13817600Y-10180750I-203200J0D01*
G01*
X5276850Y-10180750D02*
G75*
G02*
X5080000Y-9983900I0J196850D01*
G01*
D11*
X5333277Y-10499734D02*
X5333277Y-10299734D01*
X5333277Y-10299734D02*
X5380896Y-10299734D01*
X5380896Y-10299734D02*
X5409467Y-10309258D01*
X5409467Y-10309258D02*
X5428515Y-10328305D01*
X5428515Y-10328305D02*
X5438039Y-10347353D01*
X5438039Y-10347353D02*
X5447563Y-10385448D01*
X5447563Y-10385448D02*
X5447563Y-10414020D01*
X5447563Y-10414020D02*
X5438039Y-10452115D01*
X5438039Y-10452115D02*
X5428515Y-10471162D01*
X5428515Y-10471162D02*
X5409467Y-10490210D01*
X5409467Y-10490210D02*
X5380896Y-10499734D01*
X5380896Y-10499734D02*
X5333277Y-10499734D01*
X5533277Y-10499734D02*
X5533277Y-10366400D01*
X5533277Y-10404496D02*
X5542801Y-10385448D01*
X5542801Y-10385448D02*
X5552324Y-10375924D01*
X5552324Y-10375924D02*
X5571372Y-10366400D01*
X5571372Y-10366400D02*
X5590420Y-10366400D01*
X5657086Y-10499734D02*
X5657086Y-10366400D01*
X5657086Y-10299734D02*
X5647562Y-10309258D01*
X5647562Y-10309258D02*
X5657086Y-10318781D01*
X5657086Y-10318781D02*
X5666610Y-10309258D01*
X5666610Y-10309258D02*
X5657086Y-10299734D01*
X5657086Y-10299734D02*
X5657086Y-10318781D01*
X5780896Y-10499734D02*
X5761848Y-10490210D01*
X5761848Y-10490210D02*
X5752324Y-10471162D01*
X5752324Y-10471162D02*
X5752324Y-10299734D01*
X5885658Y-10499734D02*
X5866610Y-10490210D01*
X5866610Y-10490210D02*
X5857086Y-10471162D01*
X5857086Y-10471162D02*
X5857086Y-10299734D01*
X6114229Y-10499734D02*
X6114229Y-10299734D01*
X6114229Y-10299734D02*
X6180896Y-10442591D01*
X6180896Y-10442591D02*
X6247562Y-10299734D01*
X6247562Y-10299734D02*
X6247562Y-10499734D01*
X6428515Y-10499734D02*
X6428515Y-10394972D01*
X6428515Y-10394972D02*
X6418991Y-10375924D01*
X6418991Y-10375924D02*
X6399943Y-10366400D01*
X6399943Y-10366400D02*
X6361848Y-10366400D01*
X6361848Y-10366400D02*
X6342801Y-10375924D01*
X6428515Y-10490210D02*
X6409467Y-10499734D01*
X6409467Y-10499734D02*
X6361848Y-10499734D01*
X6361848Y-10499734D02*
X6342801Y-10490210D01*
X6342801Y-10490210D02*
X6333277Y-10471162D01*
X6333277Y-10471162D02*
X6333277Y-10452115D01*
X6333277Y-10452115D02*
X6342801Y-10433067D01*
X6342801Y-10433067D02*
X6361848Y-10423543D01*
X6361848Y-10423543D02*
X6409467Y-10423543D01*
X6409467Y-10423543D02*
X6428515Y-10414020D01*
X6523753Y-10366400D02*
X6523753Y-10566400D01*
X6523753Y-10375924D02*
X6542801Y-10366400D01*
X6542801Y-10366400D02*
X6580896Y-10366400D01*
X6580896Y-10366400D02*
X6599943Y-10375924D01*
X6599943Y-10375924D02*
X6609467Y-10385448D01*
X6609467Y-10385448D02*
X6618991Y-10404496D01*
X6618991Y-10404496D02*
X6618991Y-10461639D01*
X6618991Y-10461639D02*
X6609467Y-10480686D01*
X6609467Y-10480686D02*
X6599943Y-10490210D01*
X6599943Y-10490210D02*
X6580896Y-10499734D01*
X6580896Y-10499734D02*
X6542801Y-10499734D01*
X6542801Y-10499734D02*
X6523753Y-10490210D01*
X6704705Y-10480686D02*
X6714229Y-10490210D01*
X6714229Y-10490210D02*
X6704705Y-10499734D01*
X6704705Y-10499734D02*
X6695182Y-10490210D01*
X6695182Y-10490210D02*
X6704705Y-10480686D01*
X6704705Y-10480686D02*
X6704705Y-10499734D01*
X6704705Y-10375924D02*
X6714229Y-10385448D01*
X6714229Y-10385448D02*
X6704705Y-10394972D01*
X6704705Y-10394972D02*
X6695182Y-10385448D01*
X6695182Y-10385448D02*
X6704705Y-10375924D01*
X6704705Y-10375924D02*
X6704705Y-10394972D01*
M02*
